<svg width="316" height="236" viewBox="0 0 316 236" fill="none" xmlns="http://www.w3.org/2000/svg">
<path d="M185.307 106.565H159.459V79.8584H185.307V106.565Z" stroke="white" stroke-width="2" stroke-linecap="round" stroke-linejoin="round"/>
<path d="M211.155 106.565H185.307V79.8584H211.155V106.565Z" stroke="white" stroke-width="2" stroke-linecap="round" stroke-linejoin="round"/>
<path d="M133.612 106.565H107.764V79.8584H133.612V106.565Z" stroke="white" stroke-width="2" stroke-linecap="round" stroke-linejoin="round"/>
<path d="M107.764 106.565H81.916V79.8584H107.764V106.565Z" stroke="white" stroke-width="2" stroke-linecap="round" stroke-linejoin="round"/>
<path d="M159.459 106.565H133.611V79.8584H159.459V106.565Z" stroke="white" stroke-width="2" stroke-linecap="round" stroke-linejoin="round"/>
<path d="M237.004 106.565H211.156V79.8584H237.004V106.565Z" stroke="white" stroke-width="2" stroke-linecap="round" stroke-linejoin="round"/>
<path d="M262.852 106.565H237.004V79.8584H262.852V106.565Z" stroke="white" stroke-width="2" stroke-linecap="round" stroke-linejoin="round"/>
<path d="M288.7 106.565H262.852V79.8584H288.7V106.565Z" stroke="white" stroke-width="2" stroke-linecap="round" stroke-linejoin="round"/>
<path d="M185.307 133.272H159.459V106.565H185.307V133.272Z" stroke="white" stroke-width="2" stroke-linecap="round" stroke-linejoin="round"/>
<path d="M211.155 133.272H185.307V106.565H211.155V133.272Z" stroke="white" stroke-width="2" stroke-linecap="round" stroke-linejoin="round"/>
<path d="M133.612 133.272H107.764V106.565H133.612V133.272Z" stroke="white" stroke-width="2" stroke-linecap="round" stroke-linejoin="round"/>
<path d="M107.764 133.272H81.916V106.565H107.764V133.272Z" stroke="white" stroke-width="2" stroke-linecap="round" stroke-linejoin="round"/>
<path d="M159.459 133.272H133.611V106.565H159.459V133.272Z" stroke="white" stroke-width="2" stroke-linecap="round" stroke-linejoin="round"/>
<path d="M237.004 133.272H211.156V106.565H237.004V133.272Z" stroke="white" stroke-width="2" stroke-linecap="round" stroke-linejoin="round"/>
<path d="M262.852 133.272H237.004V106.565H262.852V133.272Z" stroke="white" stroke-width="2" stroke-linecap="round" stroke-linejoin="round"/>
<path d="M288.7 133.272H262.852V106.565H288.7V133.272Z" stroke="white" stroke-width="2" stroke-linecap="round" stroke-linejoin="round"/>
<path d="M185.307 159.979H159.459V133.272H185.307V159.979Z" stroke="white" stroke-width="2" stroke-linecap="round" stroke-linejoin="round"/>
<path d="M211.155 159.979H185.307V133.272H211.155V159.979Z" stroke="white" stroke-width="2" stroke-linecap="round" stroke-linejoin="round"/>
<path d="M133.612 159.979H107.764V133.272H133.612V159.979Z" stroke="white" stroke-width="2" stroke-linecap="round" stroke-linejoin="round"/>
<path d="M107.764 159.979H81.916V133.272H107.764V159.979Z" stroke="white" stroke-width="2" stroke-linecap="round" stroke-linejoin="round"/>
<path d="M159.459 159.979H133.611V133.272H159.459V159.979Z" stroke="white" stroke-width="2" stroke-linecap="round" stroke-linejoin="round"/>
<path d="M237.004 159.979H211.156V133.272H237.004V159.979Z" stroke="white" stroke-width="2" stroke-linecap="round" stroke-linejoin="round"/>
<path d="M262.852 159.979H237.004V133.272H262.852V159.979Z" stroke="white" stroke-width="2" stroke-linecap="round" stroke-linejoin="round"/>
<path d="M288.7 159.979H262.852V133.272H288.7V159.979Z" stroke="white" stroke-width="2" stroke-linecap="round" stroke-linejoin="round"/>
<path d="M185.307 186.686H159.459V159.979H185.307V186.686Z" stroke="white" stroke-width="2" stroke-linecap="round" stroke-linejoin="round"/>
<path d="M211.155 186.686H185.307V159.979H211.155V186.686Z" stroke="white" stroke-width="2" stroke-linecap="round" stroke-linejoin="round"/>
<path d="M133.612 186.686H107.764V159.979H133.612V186.686Z" stroke="white" stroke-width="2" stroke-linecap="round" stroke-linejoin="round"/>
<path d="M107.764 186.686H81.916V159.979H107.764V186.686Z" stroke="white" stroke-width="2" stroke-linecap="round" stroke-linejoin="round"/>
<path d="M159.459 186.686H133.611V159.979H159.459V186.686Z" stroke="white" stroke-width="2" stroke-linecap="round" stroke-linejoin="round"/>
<path d="M237.004 186.686H211.156V159.979H237.004V186.686Z" stroke="white" stroke-width="2" stroke-linecap="round" stroke-linejoin="round"/>
<path d="M262.852 186.686H237.004V159.979H262.852V186.686Z" stroke="white" stroke-width="2" stroke-linecap="round" stroke-linejoin="round"/>
<path d="M288.7 186.686H262.852V159.979H288.7V186.686Z" stroke="white" stroke-width="2" stroke-linecap="round" stroke-linejoin="round"/>
<mask id="mask0_1776_9537" style="mask-type:alpha" maskUnits="userSpaceOnUse" x="25" y="45" width="87" height="100">
<path d="M108.719 144.746H26.6837C26.2481 144.746 25.8945 144.391 25.8945 143.953V46.0751C25.8945 45.6753 26.2176 45.3508 26.6162 45.3508L110.547 45.335C110.983 45.335 111.336 45.69 111.336 46.1275L108.719 144.746Z" fill="#7D2800"/>
</mask>
<g mask="url(#mask0_1776_9537)">
<path d="M-39.4141 71.0002V155.881C-39.4141 156.362 7.93933 150.672 13.6147 140.217C16.9319 134.094 20.7875 130.676 24.7758 126.19C29.2591 121.149 36.3805 125.05 41.5045 122.354C42.0559 122.064 43.8259 122.145 44.3832 121.883C56.501 116.164 60.6355 106.988 64.0483 98.3999C66.0233 93.4515 65.3151 88.8759 69.0158 84.4472C75.1897 77.0727 65.0666 74.7447 76.9162 71.1251C77.3953 70.9902 -39.4141 71.0002 -39.4141 71.0002Z" fill="white"/>
<path d="M42.4588 121.782H-39.4141V221.504C-39.4141 221.986 -34.9277 211.279 -29.2519 200.823C-25.9347 194.701 -22.215 189.328 -18.2271 184.842C-13.2607 179.258 -7.81525 175.061 -2.08261 172.365C10.0356 166.646 13.5637 157.77 16.9765 149.182C18.9515 144.234 20.9838 139.093 24.6842 134.664C30.8584 127.289 32.4692 125.527 44.3188 121.907C44.7983 121.772 42.9189 121.782 42.4588 121.782Z" fill="white"/>
<path d="M143.411 4.44059H-39.4141V91.0976L61.5381 104.163C61.5381 104.644 66.0249 93.9373 71.7002 83.482C75.0174 77.359 78.7371 71.9866 82.7255 67.5003C87.6914 61.9164 93.1369 57.7189 98.8695 55.0231C110.988 49.3048 114.516 40.4282 117.929 31.8403C119.904 26.8919 121.936 21.7507 125.637 17.3223C131.811 9.94751 133.422 8.18552 145.271 4.56554C145.75 4.43068 143.871 4.44059 143.411 4.44059Z" fill="white"/>
</g>
<mask id="mask1_1776_9537" style="mask-type:alpha" maskUnits="userSpaceOnUse" x="158" y="44" width="132" height="144">
<path d="M159.27 187.684H289.112C289.548 187.684 289.902 187.329 289.902 186.891V46.1459C289.902 45.7079 289.548 45.3525 289.112 45.3525C289.112 45.3525 280.838 43.0237 272.448 47.1863C264.452 51.153 253.787 58.4917 248.446 64.8126C246.304 67.3477 241.415 74.2477 239.341 76.1319C227.445 86.9339 218.039 81.8459 218.039 81.8459L159.27 45.3525C158.834 45.3525 158.48 45.7079 158.48 46.1459V186.891C158.48 187.329 158.834 187.684 159.27 187.684Z" fill="#1CFFAE"/>
</mask>
<g mask="url(#mask1_1776_9537)">
<path d="M376.124 -49.0039C350.143 -49.0039 345.192 -32.2757 341.492 -17.6228C340.955 -15.524 340.456 -13.5411 339.9 -11.5963C335.413 4.00028 328.204 11.4905 310.219 19.1926C299.769 23.6789 287.018 32.9212 276.108 43.9545C267.215 52.937 253.74 70.3499 245.3 89.925C245.195 90.169 245.086 90.4597 244.875 90.7295C239.324 97.8226 228.757 96.236 227.709 99.3177C227.594 99.6065 376.609 95.8552 376.609 95.8552L376.602 -47.9297C376.622 -48.4688 376.641 -49.0039 376.124 -49.0039Z" fill="white"/>
<path d="M243.485 95.8164C239.606 95.8164 236.195 96.1893 233.188 96.8727C216.054 100.766 212.001 114.733 208.853 127.198C208.317 129.296 207.818 131.28 207.262 133.224C202.775 148.821 195.566 156.311 177.581 164.013C167.131 168.499 154.38 177.742 143.471 188.775C133.692 198.652 118.371 218.724 110.299 240.654C110.184 240.943 376.611 240.676 376.611 240.676V95.9683C370.492 95.9354 244.003 95.8164 243.485 95.8164Z" fill="white"/>
</g>
<path d="M160.666 55.7903C161.044 55.4087 163.376 53.0505 163.376 53.0505C165.83 50.586 169.799 50.586 172.253 53.0505L175.034 55.8232C175.858 56.6515 176.951 57.0941 178.121 57.0941C179.29 57.0941 180.383 56.632 181.208 55.8038L183.174 53.8161" stroke="#FFC900" stroke-width="5" stroke-linecap="round" stroke-linejoin="round"/>
<path d="M181.381 55.6291L183.92 53.0797C186.374 50.6148 190.343 50.6148 192.797 53.0797L195.578 55.852C197.284 57.566 200.045 57.5466 201.732 55.852L204.493 53.0603C206.948 50.5958 210.917 50.5958 213.371 53.0603C213.371 53.0603 214.249 53.9361 215.018 54.7033" stroke="#FFC900" stroke-width="5" stroke-linecap="round" stroke-linejoin="round"/>
<path d="M138.445 99.6834C130.258 91.4613 119.37 87.9092 107.789 87.9092C98.1641 87.9092 89.0372 91.0091 81.4252 96.8818C81.1953 97.0551 81.042 97.3443 81.042 97.6521L81.0195 164.322C81.0195 164.63 81.1538 164.899 81.4027 165.092C89.0341 170.965 98.1412 174.065 107.767 174.065C119.348 174.065 130.258 169.54 138.445 161.299C146.633 153.077 151.158 142.14 151.158 130.491C151.138 118.861 146.633 107.925 138.445 99.6834Z" fill="#161B24"/>
<path d="M131.618 149.512C115.867 165.329 90.331 165.329 74.5802 149.512L55.5885 129.393C43.4859 117.24 40.6828 99.2842 47.1787 84.443C49.1368 79.9693 51.9403 75.7781 55.5885 72.1146C56.2324 71.4679 56.8928 70.8484 57.5683 70.2556C73.411 56.3543 97.5196 57.3208 112.626 72.4914L131.618 92.2333C147.369 108.051 147.369 133.695 131.618 149.512Z" fill="#42CBE9"/>
<path d="M131.618 149.512C115.867 165.329 90.331 165.329 74.5802 149.512L55.5885 129.393C43.4859 117.24 40.6828 99.2842 47.1787 84.443C49.1368 79.9693 51.9403 75.7781 55.5885 72.1146C56.2324 71.4679 56.8928 70.8484 57.5683 70.2556C73.411 56.3543 97.5196 57.3208 112.626 72.4914L131.618 92.2333C147.369 108.051 147.369 133.695 131.618 149.512Z" stroke="#161B24" stroke-width="2" stroke-miterlimit="10"/>
<path d="M134.328 96.7139C134.857 96.7139 135.286 97.145 135.286 97.6766C135.286 98.2085 134.857 98.6393 134.328 98.6393C133.799 98.6393 133.369 98.2085 133.369 97.6766C133.369 97.145 133.799 96.7139 134.328 96.7139Z" fill="#161B24"/>
<path d="M134.328 105.186C134.857 105.186 135.286 105.616 135.286 106.148C135.286 106.68 134.857 107.111 134.328 107.111C133.799 107.111 133.369 106.68 133.369 106.148C133.369 105.616 133.799 105.186 134.328 105.186Z" fill="#161B24"/>
<path d="M134.328 113.658C134.857 113.658 135.286 114.089 135.286 114.621C135.286 115.153 134.857 115.584 134.328 115.584C133.799 115.584 133.369 115.153 133.369 114.621C133.369 114.089 133.799 113.658 134.328 113.658Z" fill="#161B24"/>
<path d="M134.328 122.13C134.857 122.13 135.286 122.561 135.286 123.093C135.286 123.625 134.857 124.055 134.328 124.055C133.799 124.055 133.369 123.625 133.369 123.093C133.369 122.561 133.799 122.13 134.328 122.13Z" fill="#161B24"/>
<path d="M134.328 130.603C134.857 130.603 135.286 131.034 135.286 131.566C135.286 132.097 134.857 132.528 134.328 132.528C133.799 132.528 133.369 132.097 133.369 131.566C133.369 131.034 133.799 130.603 134.328 130.603Z" fill="#161B24"/>
<path d="M134.328 139.074C134.857 139.074 135.286 139.505 135.286 140.037C135.286 140.569 134.857 141 134.328 141C133.799 141 133.369 140.569 133.369 140.037C133.369 139.505 133.799 139.074 134.328 139.074Z" fill="#161B24"/>
<path d="M126.466 88.627C126.996 88.627 127.425 89.0577 127.425 89.5897C127.425 90.1212 126.996 90.5524 126.466 90.5524C125.937 90.5524 125.508 90.1212 125.508 89.5897C125.508 89.0577 125.937 88.627 126.466 88.627Z" fill="#161B24"/>
<path d="M125.89 96.7139C126.42 96.7139 126.849 97.145 126.849 97.6766C126.849 98.2085 126.42 98.6393 125.89 98.6393C125.361 98.6393 124.932 98.2085 124.932 97.6766C124.932 97.145 125.361 96.7139 125.89 96.7139Z" fill="#161B24"/>
<path d="M125.89 105.186C126.42 105.186 126.849 105.616 126.849 106.148C126.849 106.68 126.42 107.111 125.89 107.111C125.361 107.111 124.932 106.68 124.932 106.148C124.932 105.616 125.361 105.186 125.89 105.186Z" fill="#161B24"/>
<path d="M125.89 113.658C126.42 113.658 126.849 114.089 126.849 114.621C126.849 115.153 126.42 115.584 125.89 115.584C125.361 115.584 124.932 115.153 124.932 114.621C124.932 114.089 125.361 113.658 125.89 113.658Z" fill="#161B24"/>
<path d="M125.89 122.13C126.42 122.13 126.849 122.561 126.849 123.093C126.849 123.625 126.42 124.055 125.89 124.055C125.361 124.055 124.932 123.625 124.932 123.093C124.932 122.561 125.361 122.13 125.89 122.13Z" fill="#161B24"/>
<path d="M125.89 130.603C126.42 130.603 126.849 131.034 126.849 131.566C126.849 132.097 126.42 132.528 125.89 132.528C125.361 132.528 124.932 132.097 124.932 131.566C124.932 131.034 125.361 130.603 125.89 130.603Z" fill="#161B24"/>
<path d="M125.89 139.074C126.42 139.074 126.849 139.505 126.849 140.037C126.849 140.569 126.42 141 125.89 141C125.361 141 124.932 140.569 124.932 140.037C124.932 139.505 125.361 139.074 125.89 139.074Z" fill="#161B24"/>
<path d="M125.89 147.547C126.42 147.547 126.849 147.978 126.849 148.51C126.849 149.042 126.42 149.472 125.89 149.472C125.361 149.472 124.932 149.042 124.932 148.51C124.932 147.978 125.361 147.547 125.89 147.547Z" fill="#161B24"/>
<path d="M117.453 130.603C117.983 130.603 118.411 131.034 118.411 131.566C118.411 132.097 117.983 132.528 117.453 132.528C116.924 132.528 116.494 132.097 116.494 131.566C116.494 131.034 116.924 130.603 117.453 130.603Z" fill="#161B24"/>
<path d="M117.453 139.074C117.983 139.074 118.411 139.505 118.411 140.037C118.411 140.569 117.983 141 117.453 141C116.924 141 116.494 140.569 116.494 140.037C116.494 139.505 116.924 139.074 117.453 139.074Z" fill="#161B24"/>
<path d="M117.453 147.547C117.983 147.547 118.411 147.978 118.411 148.51C118.411 149.042 117.983 149.472 117.453 149.472C116.924 149.472 116.494 149.042 116.494 148.51C116.494 147.978 116.924 147.547 117.453 147.547Z" fill="#161B24"/>
<path d="M117.453 156.019C117.983 156.019 118.411 156.45 118.411 156.981C118.411 157.513 117.983 157.944 117.453 157.944C116.924 157.944 116.494 157.513 116.494 156.981C116.494 156.45 116.924 156.019 117.453 156.019Z" fill="#161B24"/>
<path d="M109.017 139.074C109.547 139.074 109.976 139.505 109.976 140.037C109.976 140.569 109.547 141 109.017 141C108.488 141 108.059 140.569 108.059 140.037C108.059 139.505 108.488 139.074 109.017 139.074Z" fill="#161B24"/>
<path d="M109.017 147.547C109.547 147.547 109.976 147.978 109.976 148.51C109.976 149.042 109.547 149.472 109.017 149.472C108.488 149.472 108.059 149.042 108.059 148.51C108.059 147.978 108.488 147.547 109.017 147.547Z" fill="#161B24"/>
<path d="M109.017 156.019C109.547 156.019 109.976 156.45 109.976 156.981C109.976 157.513 109.547 157.944 109.017 157.944C108.488 157.944 108.059 157.513 108.059 156.981C108.059 156.45 108.488 156.019 109.017 156.019Z" fill="#161B24"/>
<path d="M100.582 147.547C101.111 147.547 101.54 147.978 101.54 148.51C101.54 149.042 101.111 149.472 100.582 149.472C100.052 149.472 99.623 149.042 99.623 148.51C99.623 147.978 100.052 147.547 100.582 147.547Z" fill="#161B24"/>
<path d="M100.582 156.019C101.111 156.019 101.54 156.45 101.54 156.981C101.54 157.513 101.111 157.944 100.582 157.944C100.052 157.944 99.623 157.513 99.623 156.981C99.623 156.45 100.052 156.019 100.582 156.019Z" fill="#161B24"/>
<path d="M92.1442 147.547C92.6735 147.547 93.1029 147.978 93.1029 148.51C93.1029 149.042 92.6735 149.472 92.1442 149.472C91.6149 149.472 91.1855 149.042 91.1855 148.51C91.1855 147.978 91.6149 147.547 92.1442 147.547Z" fill="#161B24"/>
<path d="M92.1442 156.019C92.6735 156.019 93.1029 156.45 93.1029 156.981C93.1029 157.513 92.6735 157.944 92.1442 157.944C91.6149 157.944 91.1855 157.513 91.1855 156.981C91.1855 156.45 91.6149 156.019 92.1442 156.019Z" fill="#161B24"/>
<path d="M83.7067 147.547C84.236 147.547 84.6654 147.978 84.6654 148.51C84.6654 149.042 84.236 149.472 83.7067 149.472C83.1774 149.472 82.748 149.042 82.748 148.51C82.748 147.978 83.1774 147.547 83.7067 147.547Z" fill="#161B24"/>
<path d="M83.7067 156.019C84.236 156.019 84.6654 156.45 84.6654 156.981C84.6654 157.513 84.236 157.944 83.7067 157.944C83.1774 157.944 82.748 157.513 82.748 156.981C82.748 156.45 83.1774 156.019 83.7067 156.019Z" fill="#161B24"/>
<path d="M75.2712 147.547C75.8005 147.547 76.2298 147.978 76.2298 148.51C76.2298 149.042 75.8005 149.472 75.2712 149.472C74.7419 149.472 74.3125 149.042 74.3125 148.51C74.3125 147.978 74.7419 147.547 75.2712 147.547Z" fill="#161B24"/>
<path d="M82.4804 57.6758C104.743 57.6758 122.791 75.7996 122.791 98.1563C122.791 120.513 104.743 138.637 82.4804 138.637C60.2176 138.637 42.1699 120.513 42.1699 98.1563C42.1699 75.7996 60.2176 57.6758 82.4804 57.6758Z" fill="#7964FF"/>
<path d="M82.4804 57.6758C104.743 57.6758 122.791 75.7996 122.791 98.1563C122.791 120.513 104.743 138.637 82.4804 138.637C60.2176 138.637 42.1699 120.513 42.1699 98.1563C42.1699 75.7996 60.2176 57.6758 82.4804 57.6758Z" stroke="#161B24" stroke-width="2" stroke-miterlimit="10"/>
<path d="M82.5352 66.8584V98.1563" stroke="#161B24" stroke-width="2" stroke-miterlimit="10"/>
<path d="M93.2278 76.0225C101.381 80.0222 106.997 88.4305 106.997 98.1562C106.997 111.753 96.0204 122.775 82.4807 122.775C68.9409 122.775 57.9648 111.753 57.9648 98.1562C57.9648 88.4015 63.6142 79.9713 71.8074 75.9863" stroke="#161B24" stroke-width="2" stroke-miterlimit="10"/>
<path d="M156.941 113.613C158.856 118.226 162.08 122.67 167.162 123.587C176.194 125.218 185.476 118.515 187.16 112.928C188.432 108.704 183.872 106.381 181.775 110.42C180.209 113.436 179.601 117.892 180.183 122.318C181.634 133.35 191.496 145.565 209.638 145.956C221.044 146.202 234.167 138.596 239.455 133.031" stroke="#161B24" stroke-width="2" stroke-miterlimit="10"/>
<path d="M205.371 151.495C203.983 151.495 202.859 152.623 202.859 154.017C202.859 155.411 203.983 156.54 205.371 156.54C206.759 156.54 207.883 155.411 207.883 154.017C207.883 152.623 206.759 151.495 205.371 151.495Z" fill="#161B24"/>
<path d="M237.103 166.775L194.865 118.339L192.254 182.514L206.412 171.98L215.119 197.372L227.1 193.164L218.443 167.869L237.103 166.775Z" fill="white"/>
<path d="M237.103 166.775L194.865 118.339L192.254 182.514L206.412 171.98L215.119 197.372L227.1 193.164L218.443 167.869L237.103 166.775Z" stroke="#161B24" stroke-width="2" stroke-linecap="round" stroke-linejoin="round"/>
<path d="M252.118 70.1023L266.592 44.5703L292.062 59.1506L252.118 70.1023Z" fill="#FFC900"/>
<path d="M252.118 70.1023L266.592 44.5703L292.062 59.1506L252.118 70.1023Z" stroke="#161B24" stroke-width="2" stroke-linecap="round" stroke-linejoin="round"/>
<path d="M33.4914 160.868L53.1129 164.317L49.6504 184.367L33.4914 160.868Z" fill="#FFC900"/>
<path d="M33.4914 160.868L53.1129 164.317L49.6504 184.367L33.4914 160.868Z" stroke="#161B24" stroke-width="2" stroke-linecap="round" stroke-linejoin="round"/>
<path d="M133.619 52.7272C134.403 50.8275 136.572 49.9252 138.464 50.7121C140.355 51.499 141.254 53.6773 140.47 55.577C139.686 57.4767 137.517 58.3793 135.626 57.5921C133.733 56.8056 132.836 54.627 133.619 52.7272Z" fill="white"/>
</svg>
