<svg width="173" height="84" viewBox="0 0 173 84" fill="none" xmlns="http://www.w3.org/2000/svg">
<path d="M76.729 26.8002L76.755 26.834C77.0984 21.7557 81.3211 17.7414 86.4857 17.7414C86.4883 17.7414 86.4909 17.7414 86.4909 17.7414C86.4935 17.7414 86.4961 17.7414 86.4961 17.7414C89.1265 17.7414 91.5149 18.7846 93.2685 20.4783V10.2852C91.1741 9.45788 88.8897 9 86.4987 9C76.2815 9 68 17.2809 68 27.4974C68 34.1263 71.489 39.9383 76.729 43.2033V26.8002Z" fill="#00E6FF"/>
<path d="M96.2554 11.7837V28.1972L96.2294 28.1634C95.8885 33.2417 91.6632 37.256 86.4987 37.256C86.4961 37.256 86.4935 37.256 86.4935 37.256C86.4909 37.256 86.4883 37.256 86.4883 37.256C83.8579 37.256 81.4694 36.2127 79.7158 34.5191V44.7096C81.8181 45.5395 84.105 46 86.5013 46C96.7185 46 105 37.7191 105 27.5026C105 20.8633 101.503 15.0487 96.2554 11.7837Z" fill="#007AFF"/>
<path d="M92.1446 23.7589C92.0847 24.0737 91.9755 24.3833 91.8064 24.6746C90.9972 26.0769 89.2072 26.5556 87.8048 25.7465C86.4024 24.9374 85.9237 23.1475 86.7329 21.7452C86.954 21.3628 87.2506 21.0506 87.5889 20.8139C87.235 20.7566 86.8708 20.7254 86.4987 20.7254C82.7573 20.7254 79.7263 23.7563 79.7263 27.4974C79.7263 31.2385 82.7599 34.2693 86.4987 34.2693C90.2375 34.2693 93.2712 31.2385 93.2712 27.4974C93.2712 26.1159 92.8575 24.8307 92.1446 23.7589Z" fill="#9D60FB"/>
<path d="M13.9933 53.1177V63.8144C12.5065 62.3594 10.4867 61.4632 8.25985 61.4632C3.69821 61.4632 0 65.2157 0 69.8444C0 74.4731 3.69821 78.2257 8.25985 78.2257C12.6321 78.2257 16.2091 74.7771 16.4977 70.4144L16.5197 70.4434V53.1177H13.9933ZM8.25985 75.6621C5.09247 75.6621 2.52641 73.0584 2.52641 69.8444C2.52641 66.6305 5.09247 64.0267 8.25985 64.0267C11.4272 64.0267 13.9933 66.6305 13.9933 69.8444C13.9933 73.0584 11.4272 75.6621 8.25985 75.6621Z" fill="white"/>
<path d="M65.5239 61.4631C61.1517 61.4631 57.5747 64.9117 57.2861 69.2745L57.2641 69.2454V83.6634H59.7905V75.8744C61.2773 77.3294 63.2971 78.2257 65.5239 78.2257C70.0856 78.2257 73.7838 74.4731 73.7838 69.8444C73.7838 65.2157 70.0856 61.4631 65.5239 61.4631ZM65.5239 75.6621C62.3566 75.6621 59.7905 73.0583 59.7905 69.8444C59.7905 66.6305 62.3566 64.0267 65.5239 64.0267C68.6913 64.0267 71.2574 66.6305 71.2574 69.8444C71.2574 73.0583 68.6913 75.6621 65.5239 75.6621Z" fill="white"/>
<path d="M27.7135 61.4879C23.165 61.4879 19.4778 65.2292 19.4778 69.8445C19.4778 74.4598 23.165 78.2012 27.7135 78.2012C30.2333 78.2012 32.4888 77.0524 33.9976 75.2421L32.4954 73.4853C31.4051 74.9582 29.6694 75.9103 27.7135 75.9103C24.6694 75.9103 22.1584 73.6016 21.784 70.6156H32.9799H34.0658H35.2509C35.2729 70.3608 35.2883 70.1038 35.2883 69.8445C35.2883 65.2292 32.2619 61.4879 27.7135 61.4879ZM21.9117 68.3828C22.5571 65.7388 24.9095 63.7787 27.7157 63.7787C30.5218 63.7787 32.2134 65.7388 32.8566 68.3828H21.9117Z" fill="white"/>
<path d="M46.3094 61.4879C41.761 61.4879 38.0738 65.2292 38.0738 69.8445C38.0738 74.4598 41.761 78.2012 46.3094 78.2012C48.8292 78.2012 51.0847 77.0524 52.5935 75.2421L51.0913 73.4853C50.001 74.9582 48.2653 75.9103 46.3094 75.9103C43.2654 75.9103 40.7544 73.6016 40.3799 70.6156H51.5759H52.6618H53.8468C53.8688 70.3608 53.8842 70.1038 53.8842 69.8445C53.8842 65.2292 50.8578 61.4879 46.3094 61.4879ZM40.5077 68.3828C41.1531 65.7388 43.5055 63.7787 46.3116 63.7787C49.1178 63.7787 50.8094 65.7388 51.4525 68.3828H40.5077Z" fill="white"/>
<path d="M108.451 68.0093V78.0288H107.479V68.0093C107.479 66.4761 107.052 65.2379 106.2 64.2969C105.347 63.356 104.208 62.8844 102.783 62.8844C101.314 62.8844 100.107 63.3672 99.1578 64.3305C98.2085 65.2937 97.7327 66.5208 97.7327 68.0093V78.0288H96.7614V53.3879H97.7327V64.7886C98.79 62.8822 100.486 61.9301 102.816 61.9301C104.543 61.9301 105.913 62.4888 106.929 63.6063C107.944 64.7238 108.451 66.19 108.451 68.0093Z" fill="white"/>
<path d="M148.116 78.0288V53.3879H149.087V78.0288H148.116ZM151.03 69.1916L159.255 78.0288H157.959L149.702 69.1581L157.116 62.2586H158.508L151.03 69.1916Z" fill="white"/>
<path d="M161.032 74.6071L161.81 74.0148C163.235 76.0732 164.94 77.1036 166.927 77.1036C168.07 77.1036 169.004 76.8242 169.726 76.2654C170.449 75.7067 170.81 74.9244 170.81 73.9165C170.746 72.9755 170.464 72.2737 169.969 71.8133C169.473 71.3529 168.576 70.8277 167.281 70.2354L165.922 69.6118C164.605 69.0196 163.645 68.4295 163.041 67.8373C162.438 67.245 162.134 66.4784 162.134 65.5374C162.134 64.3328 162.599 63.3918 163.526 62.7124C164.453 61.9905 165.565 61.6284 166.861 61.6284C168.781 61.6284 170.411 62.471 171.75 64.1584L171.039 64.8155C169.808 63.327 168.394 62.5805 166.797 62.5805C165.762 62.5805 164.898 62.8376 164.206 63.3516C163.515 63.8657 163.171 64.5831 163.171 65.5039C163.193 65.8772 163.264 66.199 163.383 66.4739C163.502 66.7488 163.603 66.9611 163.691 67.1153C163.777 67.2696 164.008 67.4595 164.387 67.6897C164.764 67.92 165.035 68.0742 165.195 68.1502C165.358 68.2261 165.773 68.4295 166.442 68.7581L167.898 69.4152C169.237 70.0074 170.228 70.631 170.876 71.2881C171.524 71.9452 171.847 72.799 171.847 73.8516C171.847 75.1658 171.361 76.1962 170.389 76.9404C169.44 77.6847 168.264 78.0579 166.861 78.0579C164.442 78.0579 162.499 76.9069 161.032 74.6071Z" fill="white"/>
<path d="M92.3368 74.4821C91.0263 76.0757 89.0571 77.0882 86.8523 77.0882C82.9096 77.0882 79.7135 73.8452 79.7135 69.8445C79.7135 65.8439 82.9096 62.6009 86.8523 62.6009C89.0439 62.6009 91.0042 63.6044 92.3148 65.1823L93.024 64.5766C91.5439 62.7953 89.3302 61.6622 86.8545 61.6622C82.3986 61.6622 78.7885 65.3276 78.7885 69.8468C78.7885 74.3682 82.4008 78.0313 86.8545 78.0313C89.3501 78.0313 91.5813 76.8803 93.0593 75.0744L92.3368 74.4821Z" fill="white"/>
<path d="M143.634 74.4821C142.323 76.0757 140.354 77.0882 138.149 77.0882C134.207 77.0882 131.011 73.8452 131.011 69.8445C131.011 65.8439 134.207 62.6009 138.149 62.6009C140.341 62.6009 142.301 63.6044 143.612 65.1823L144.321 64.5766C142.841 62.7953 140.627 61.6622 138.152 61.6622C133.696 61.6622 130.086 65.3276 130.086 69.8468C130.086 74.3682 133.698 78.0313 138.152 78.0313C140.647 78.0313 142.878 76.8803 144.356 75.0744L143.634 74.4821Z" fill="white"/>
<path d="M119.891 61.6573C115.435 61.6573 111.825 65.3228 111.825 69.8419C111.825 74.3611 115.437 78.0265 119.891 78.0265C122.398 78.0265 124.638 76.8665 126.118 75.045L125.409 74.4058C124.102 76.0284 122.116 77.0655 119.891 77.0655C115.959 77.0655 112.772 73.8314 112.772 69.8419H126.129H126.739H127.076C127.076 65.3228 124.345 61.6573 119.891 61.6573ZM112.829 68.939C113.268 65.3764 116.261 62.6184 119.891 62.6184C123.521 62.6184 125.633 65.3764 126.072 68.939H112.829Z" fill="white"/>
</svg>
