<svg width="37" height="37" viewBox="0 0 37 37" fill="none" xmlns="http://www.w3.org/2000/svg">
<path d="M8.72899 17.8002L8.75501 17.834C9.09845 12.7557 13.3211 8.74139 18.4857 8.74139C18.4883 8.74139 18.4909 8.74139 18.4909 8.74139C18.4935 8.74139 18.4961 8.74139 18.4961 8.74139C21.1265 8.74139 23.5149 9.78463 25.2685 11.4783V1.28519C23.1741 0.457882 20.8897 0 18.4987 0C8.28148 0 0 8.2809 0 18.4974C0 25.1263 3.48899 30.9383 8.72899 34.2033V17.8002Z" fill="#00E6FF"/>
<path d="M28.2554 2.78371V19.1972L28.2294 19.1634C27.8885 24.2417 23.6632 28.256 18.4987 28.256C18.4961 28.256 18.4935 28.256 18.4935 28.256C18.4909 28.256 18.4883 28.256 18.4883 28.256C15.8579 28.256 13.4694 27.2128 11.7158 25.5191V35.7096C13.8181 36.5395 16.105 37 18.5013 37C28.7185 37 37 28.7191 37 18.5026C37 11.8633 33.5032 6.04872 28.2554 2.78371Z" fill="#007AFF"/>
<path d="M24.1446 14.7589C24.0848 15.0737 23.9755 15.3833 23.8064 15.6747C22.9973 17.0769 21.2072 17.5556 19.8049 16.7465C18.4025 15.9374 17.9238 14.1475 18.7329 12.7452C18.9541 12.3628 19.2507 12.0506 19.5889 11.8139C19.2351 11.7566 18.8708 11.7254 18.4988 11.7254C14.7574 11.7254 11.7263 14.7563 11.7263 18.4974C11.7263 22.2385 14.76 25.2694 18.4988 25.2694C22.2375 25.2694 25.2712 22.2385 25.2712 18.4974C25.2712 17.1159 24.8575 15.8307 24.1446 14.7589Z" fill="#9D60FB"/>
</svg>
