<svg width="19" height="18" viewBox="0 0 19 18" fill="none" xmlns="http://www.w3.org/2000/svg">
<path d="M9.47828 8.0943L2.86328 3.555C3.08828 3.43688 3.34703 3.375 3.61141 3.375H15.9864C16.2733 3.375 16.5489 3.44813 16.7908 3.5775L10.1195 8.0943C9.92266 8.2293 9.67516 8.2293 9.47828 8.0943Z" fill="#7964FF"/>
<path d="M17.6738 5.06271V12.9377C17.6738 13.8658 16.9145 14.6252 15.9863 14.6252H3.61133C2.6832 14.6252 1.92383 13.8658 1.92383 12.9377V5.06271C1.92383 4.82084 1.97445 4.58459 2.0757 4.37646L8.83695 9.01716C9.12945 9.21966 9.46695 9.32091 9.79883 9.32091C10.1363 9.32091 10.4682 9.22529 10.7551 9.02279L17.5444 4.42709C17.6288 4.62396 17.6738 4.83771 17.6738 5.06271H17.6738Z" fill="#7964FF"/>
</svg>
