<svg width="21" height="20" viewBox="0 0 21 20" fill="none" xmlns="http://www.w3.org/2000/svg">
<path fill-rule="evenodd" clip-rule="evenodd" d="M12.8171 0.74229C13.4369 0.897424 13.8136 1.52565 13.6585 2.14548L9.58613 18.4162C9.43099 19.036 8.80276 19.4128 8.18293 19.2576C7.56311 19.1025 7.1864 18.4743 7.34153 17.8544L11.4139 1.58369C11.569 0.963864 12.1972 0.587155 12.8171 0.74229Z" fill="#7964FF"/>
<path fill-rule="evenodd" clip-rule="evenodd" d="M14.8657 5.11459C15.3173 4.66253 16.0498 4.66211 16.5019 5.11365L20.5742 9.18134C20.7914 9.39834 20.9135 9.6928 20.9135 9.99987C20.9135 10.3069 20.7914 10.6014 20.5742 10.8184L16.5019 14.8861C16.0498 15.3376 15.3173 15.3372 14.8657 14.8851C14.4142 14.4331 14.4146 13.7006 14.8667 13.249L18.1195 9.99987L14.8667 6.75071C14.4146 6.29917 14.4142 5.56665 14.8657 5.11459Z" fill="#7964FF"/>
<path fill-rule="evenodd" clip-rule="evenodd" d="M6.13568 5.11459C6.58722 5.56665 6.5868 6.29917 6.13474 6.75071L2.88187 9.99987L6.13474 13.249C6.5868 13.7006 6.58722 14.4331 6.13568 14.8851C5.68413 15.3372 4.95161 15.3376 4.49955 14.8861L0.427211 10.8184C0.209961 10.6014 0.0878906 10.3069 0.0878906 9.99987C0.0878906 9.6928 0.209961 9.39834 0.427211 9.18134L4.49955 5.11365C4.95161 4.66211 5.68413 4.66253 6.13568 5.11459Z" fill="#7964FF"/>
</svg>
