<svg width="100" height="101" viewBox="0 0 100 101" fill="none" xmlns="http://www.w3.org/2000/svg">
<g clip-path="url(#clip0_1719_10301)">
<path d="M21.5074 63.3601C21.5074 69.1289 16.8405 73.7913 11.0662 73.7913C5.29191 73.7913 0.625 69.1289 0.625 63.3601C0.625 57.5913 5.29191 52.9288 11.0662 52.9288H21.5074V63.3601ZM26.728 63.3601C26.728 57.5913 31.3949 52.9288 37.1692 52.9288C42.9436 52.9288 47.6105 57.5913 47.6105 63.3601V89.4382C47.6105 95.207 42.9436 99.8694 37.1692 99.8694C31.3949 99.8694 26.728 95.207 26.728 89.4382V63.3601Z" fill="#E01E5A"/>
<path d="M37.1819 21.4742C31.4076 21.4742 26.7407 16.8117 26.7407 11.0429C26.7407 5.27415 31.4076 0.611694 37.1819 0.611694C42.9562 0.611694 47.6231 5.27415 47.6231 11.0429V21.4742H37.1819ZM37.1819 26.7688C42.9562 26.7688 47.6231 31.4313 47.6231 37.2001C47.6231 42.9689 42.9562 47.6313 37.1819 47.6313H10.9998C5.2255 47.6313 0.558594 42.9689 0.558594 37.2001C0.558594 31.4313 5.2255 26.7688 10.9998 26.7688H37.1819Z" fill="#36C5F0"/>
<path d="M79.0269 37.2001C79.0269 31.4313 83.6938 26.7688 89.4681 26.7688C95.2424 26.7688 99.9093 31.4313 99.9093 37.2001C99.9093 42.9689 95.2424 47.6313 89.4681 47.6313H79.0269V37.2001ZM73.8063 37.2001C73.8063 42.9689 69.1393 47.6313 63.365 47.6313C57.5907 47.6313 52.9238 42.9689 52.9238 37.2001V11.0429C52.9238 5.27415 57.5907 0.611694 63.365 0.611694C69.1393 0.611694 73.8063 5.27415 73.8063 11.0429V37.2001Z" fill="#2EB67D"/>
<path d="M63.365 79.0069C69.1393 79.0069 73.8063 83.6694 73.8063 89.4382C73.8063 95.207 69.1393 99.8694 63.365 99.8694C57.5907 99.8694 52.9238 95.207 52.9238 89.4382V79.0069H63.365ZM63.365 73.7913C57.5907 73.7913 52.9238 69.1289 52.9238 63.3601C52.9238 57.5913 57.5907 52.9288 63.365 52.9288H89.5472C95.3215 52.9288 99.9884 57.5913 99.9884 63.3601C99.9884 69.1289 95.3215 73.7913 89.5472 73.7913H63.365Z" fill="#ECB22E"/>
</g>
<defs>
<clipPath id="clip0_1719_10301">
<rect width="100" height="100" fill="white" transform="translate(0 0.5)"/>
</clipPath>
</defs>
</svg>
