<svg width="100" height="101" viewBox="0 0 100 101" fill="none" xmlns="http://www.w3.org/2000/svg">
<path fill-rule="evenodd" clip-rule="evenodd" d="M60.5828 6.91427C63.4134 7.64466 65.1338 10.6024 64.4253 13.5206L45.8279 90.1243C45.1194 93.0425 42.2504 94.8161 39.4198 94.0857C36.5892 93.3553 34.8689 90.3976 35.5773 87.4794L54.1748 10.8757C54.8832 7.95746 57.7522 6.18389 60.5828 6.91427Z" fill="white"/>
<path fill-rule="evenodd" clip-rule="evenodd" d="M70.2955 25.0403C72.3577 22.8772 75.7033 22.8751 77.7679 25.0358L96.3669 44.4999C97.3591 45.5383 97.9167 46.9473 97.9167 48.4166C97.9167 49.8859 97.3591 51.295 96.3669 52.3333L77.7679 71.7974C75.7033 73.9581 72.3577 73.9561 70.2955 71.793C68.2332 69.6298 68.2351 66.1247 70.2997 63.964L85.1561 48.4166L70.2997 32.8692C68.2351 30.7086 68.2332 27.2034 70.2955 25.0403Z" fill="white"/>
<path fill-rule="evenodd" clip-rule="evenodd" d="M29.7052 25.0403C31.7675 27.2034 31.7656 30.7086 29.7009 32.8692L14.8445 48.4166L29.7009 63.964C31.7656 66.1247 31.7675 69.6298 29.7052 71.793C27.6429 73.9561 24.2974 73.9581 22.2328 71.7974L3.63372 52.3333C2.6415 51.295 2.08398 49.8859 2.08398 48.4166C2.08398 46.9473 2.6415 45.5383 3.63372 44.4999L22.2328 25.0358C24.2974 22.8751 27.6429 22.8772 29.7052 25.0403Z" fill="white"/>
</svg>
