<svg width="295" height="138" viewBox="0 0 295 138" fill="none" xmlns="http://www.w3.org/2000/svg">
<path d="M86.9282 57.4135C85.6472 57.4135 84.6406 56.7534 84.6406 55.9134V-23.4999C84.6406 -24.34 85.6472 -25 86.9282 -25C88.2093 -25 89.2158 -24.34 89.2158 -23.4999V55.9134C89.2158 56.7534 88.2093 57.4135 86.9282 57.4135Z" fill="#94A4AD"/>
<path d="M89.6196 81.5575C135.649 81.5575 173.001 118.975 173.001 165.176C173.001 211.377 135.689 248.795 89.6196 248.795" fill="black" fill-opacity="0.05"/>
<path d="M89.6195 248.795C43.59 248.795 6.23853 211.377 6.23853 165.176C6.23853 118.975 43.55 81.5575 89.6195 81.5575" fill="white"/>
<path d="M93.8186 79.1512C94.923 79.1512 95.8182 78.2535 95.8182 77.146C95.8182 76.0385 94.923 75.1407 93.8186 75.1407C92.7143 75.1407 91.8191 76.0385 91.8191 77.146C91.8191 78.2535 92.7143 79.1512 93.8186 79.1512Z" fill="#94A4AD"/>
<path d="M93.8186 89.0571C94.923 89.0571 95.8182 88.1593 95.8182 87.0519C95.8182 85.9444 94.923 85.0466 93.8186 85.0466C92.7143 85.0466 91.8191 85.9444 91.8191 87.0519C91.8191 88.1593 92.7143 89.0571 93.8186 89.0571Z" fill="#94A4AD"/>
<path d="M93.8186 98.963C94.923 98.963 95.8182 98.0652 95.8182 96.9578C95.8182 95.8503 94.923 94.9525 93.8186 94.9525C92.7143 94.9525 91.8191 95.8503 91.8191 96.9578C91.8191 98.0652 92.7143 98.963 93.8186 98.963Z" fill="#94A4AD"/>
<path d="M93.8186 108.869C94.923 108.869 95.8182 107.971 95.8182 106.864C95.8182 105.756 94.923 104.858 93.8186 104.858C92.7143 104.858 91.8191 105.756 91.8191 106.864C91.8191 107.971 92.7143 108.869 93.8186 108.869Z" fill="#94A4AD"/>
<path d="M93.8186 118.775C94.923 118.775 95.8182 117.877 95.8182 116.77C95.8182 115.662 94.923 114.764 93.8186 114.764C92.7143 114.764 91.8191 115.662 91.8191 116.77C91.8191 117.877 92.7143 118.775 93.8186 118.775Z" fill="#94A4AD"/>
<path d="M93.8186 128.681C94.923 128.681 95.8182 127.783 95.8182 126.676C95.8182 125.568 94.923 124.67 93.8186 124.67C92.7143 124.67 91.8191 125.568 91.8191 126.676C91.8191 127.783 92.7143 128.681 93.8186 128.681Z" fill="#94A4AD"/>
<path d="M93.8186 138.587C94.923 138.587 95.8182 137.689 95.8182 136.581C95.8182 135.474 94.923 134.576 93.8186 134.576C92.7143 134.576 91.8191 135.474 91.8191 136.581C91.8191 137.689 92.7143 138.587 93.8186 138.587Z" fill="#94A4AD"/>
<path d="M83.9409 79.1512C85.0453 79.1512 85.9405 78.2535 85.9405 77.146C85.9405 76.0385 85.0453 75.1407 83.9409 75.1407C82.8366 75.1407 81.9414 76.0385 81.9414 77.146C81.9414 78.2535 82.8366 79.1512 83.9409 79.1512Z" fill="#94A4AD"/>
<path d="M83.9409 89.0571C85.0453 89.0571 85.9405 88.1593 85.9405 87.0519C85.9405 85.9444 85.0453 85.0466 83.9409 85.0466C82.8366 85.0466 81.9414 85.9444 81.9414 87.0519C81.9414 88.1593 82.8366 89.0571 83.9409 89.0571Z" fill="#94A4AD"/>
<path d="M83.9409 98.963C85.0453 98.963 85.9405 98.0652 85.9405 96.9578C85.9405 95.8503 85.0453 94.9525 83.9409 94.9525C82.8366 94.9525 81.9414 95.8503 81.9414 96.9578C81.9414 98.0652 82.8366 98.963 83.9409 98.963Z" fill="#94A4AD"/>
<path d="M83.9409 108.869C85.0453 108.869 85.9405 107.971 85.9405 106.864C85.9405 105.756 85.0453 104.858 83.9409 104.858C82.8366 104.858 81.9414 105.756 81.9414 106.864C81.9414 107.971 82.8366 108.869 83.9409 108.869Z" fill="#94A4AD"/>
<path d="M83.9409 118.775C85.0453 118.775 85.9405 117.877 85.9405 116.77C85.9405 115.662 85.0453 114.764 83.9409 114.764C82.8366 114.764 81.9414 115.662 81.9414 116.77C81.9414 117.877 82.8366 118.775 83.9409 118.775Z" fill="#94A4AD"/>
<path d="M83.9409 128.681C85.0453 128.681 85.9405 127.783 85.9405 126.676C85.9405 125.568 85.0453 124.67 83.9409 124.67C82.8366 124.67 81.9414 125.568 81.9414 126.676C81.9414 127.783 82.8366 128.681 83.9409 128.681Z" fill="#94A4AD"/>
<path d="M83.9409 138.587C85.0453 138.587 85.9405 137.689 85.9405 136.581C85.9405 135.474 85.0453 134.576 83.9409 134.576C82.8366 134.576 81.9414 135.474 81.9414 136.581C81.9414 137.689 82.8366 138.587 83.9409 138.587Z" fill="#94A4AD"/>
<path d="M74.0633 79.1512C75.1676 79.1512 76.0628 78.2535 76.0628 77.146C76.0628 76.0385 75.1676 75.1407 74.0633 75.1407C72.9589 75.1407 72.0637 76.0385 72.0637 77.146C72.0637 78.2535 72.9589 79.1512 74.0633 79.1512Z" fill="#94A4AD"/>
<path d="M74.0633 89.0571C75.1676 89.0571 76.0628 88.1593 76.0628 87.0519C76.0628 85.9444 75.1676 85.0466 74.0633 85.0466C72.9589 85.0466 72.0637 85.9444 72.0637 87.0519C72.0637 88.1593 72.9589 89.0571 74.0633 89.0571Z" fill="#94A4AD"/>
<path d="M74.0633 98.963C75.1676 98.963 76.0628 98.0652 76.0628 96.9578C76.0628 95.8503 75.1676 94.9525 74.0633 94.9525C72.9589 94.9525 72.0637 95.8503 72.0637 96.9578C72.0637 98.0652 72.9589 98.963 74.0633 98.963Z" fill="#94A4AD"/>
<path d="M74.0633 108.869C75.1676 108.869 76.0628 107.971 76.0628 106.864C76.0628 105.756 75.1676 104.858 74.0633 104.858C72.9589 104.858 72.0637 105.756 72.0637 106.864C72.0637 107.971 72.9589 108.869 74.0633 108.869Z" fill="#94A4AD"/>
<path d="M74.0633 118.775C75.1676 118.775 76.0628 117.877 76.0628 116.77C76.0628 115.662 75.1676 114.764 74.0633 114.764C72.9589 114.764 72.0637 115.662 72.0637 116.77C72.0637 117.877 72.9589 118.775 74.0633 118.775Z" fill="#94A4AD"/>
<path d="M74.0633 128.681C75.1676 128.681 76.0628 127.783 76.0628 126.676C76.0628 125.568 75.1676 124.67 74.0633 124.67C72.9589 124.67 72.0637 125.568 72.0637 126.676C72.0637 127.783 72.9589 128.681 74.0633 128.681Z" fill="#94A4AD"/>
<path d="M74.0633 138.587C75.1676 138.587 76.0628 137.689 76.0628 136.581C76.0628 135.474 75.1676 134.576 74.0633 134.576C72.9589 134.576 72.0637 135.474 72.0637 136.581C72.0637 137.689 72.9589 138.587 74.0633 138.587Z" fill="#94A4AD"/>
<path d="M64.1853 79.1512C65.2897 79.1512 66.1849 78.2535 66.1849 77.146C66.1849 76.0385 65.2897 75.1407 64.1853 75.1407C63.081 75.1407 62.1858 76.0385 62.1858 77.146C62.1858 78.2535 63.081 79.1512 64.1853 79.1512Z" fill="#94A4AD"/>
<path d="M64.1853 89.0571C65.2897 89.0571 66.1849 88.1593 66.1849 87.0519C66.1849 85.9444 65.2897 85.0466 64.1853 85.0466C63.081 85.0466 62.1858 85.9444 62.1858 87.0519C62.1858 88.1593 63.081 89.0571 64.1853 89.0571Z" fill="#94A4AD"/>
<path d="M64.1853 98.963C65.2897 98.963 66.1849 98.0652 66.1849 96.9578C66.1849 95.8503 65.2897 94.9525 64.1853 94.9525C63.081 94.9525 62.1858 95.8503 62.1858 96.9578C62.1858 98.0652 63.081 98.963 64.1853 98.963Z" fill="#94A4AD"/>
<path d="M64.1853 108.869C65.2897 108.869 66.1849 107.971 66.1849 106.864C66.1849 105.756 65.2897 104.858 64.1853 104.858C63.081 104.858 62.1858 105.756 62.1858 106.864C62.1858 107.971 63.081 108.869 64.1853 108.869Z" fill="#94A4AD"/>
<path d="M64.1853 118.775C65.2897 118.775 66.1849 117.877 66.1849 116.77C66.1849 115.662 65.2897 114.764 64.1853 114.764C63.081 114.764 62.1858 115.662 62.1858 116.77C62.1858 117.877 63.081 118.775 64.1853 118.775Z" fill="#94A4AD"/>
<path d="M64.1853 128.681C65.2897 128.681 66.1849 127.783 66.1849 126.676C66.1849 125.568 65.2897 124.67 64.1853 124.67C63.081 124.67 62.1858 125.568 62.1858 126.676C62.1858 127.783 63.081 128.681 64.1853 128.681Z" fill="#94A4AD"/>
<path d="M64.1853 138.587C65.2897 138.587 66.1849 137.689 66.1849 136.581C66.1849 135.474 65.2897 134.576 64.1853 134.576C63.081 134.576 62.1858 135.474 62.1858 136.581C62.1858 137.689 63.081 138.587 64.1853 138.587Z" fill="#94A4AD"/>
<path d="M54.3076 79.1512C55.412 79.1512 56.3072 78.2535 56.3072 77.146C56.3072 76.0385 55.412 75.1407 54.3076 75.1407C53.2033 75.1407 52.3081 76.0385 52.3081 77.146C52.3081 78.2535 53.2033 79.1512 54.3076 79.1512Z" fill="#94A4AD"/>
<path d="M54.3076 89.0571C55.412 89.0571 56.3072 88.1593 56.3072 87.0519C56.3072 85.9444 55.412 85.0466 54.3076 85.0466C53.2033 85.0466 52.3081 85.9444 52.3081 87.0519C52.3081 88.1593 53.2033 89.0571 54.3076 89.0571Z" fill="#94A4AD"/>
<path d="M54.3076 98.963C55.412 98.963 56.3072 98.0652 56.3072 96.9578C56.3072 95.8503 55.412 94.9525 54.3076 94.9525C53.2033 94.9525 52.3081 95.8503 52.3081 96.9578C52.3081 98.0652 53.2033 98.963 54.3076 98.963Z" fill="#94A4AD"/>
<path d="M54.3076 108.869C55.412 108.869 56.3072 107.971 56.3072 106.864C56.3072 105.756 55.412 104.858 54.3076 104.858C53.2033 104.858 52.3081 105.756 52.3081 106.864C52.3081 107.971 53.2033 108.869 54.3076 108.869Z" fill="#94A4AD"/>
<path d="M54.3076 118.775C55.412 118.775 56.3072 117.877 56.3072 116.77C56.3072 115.662 55.412 114.764 54.3076 114.764C53.2033 114.764 52.3081 115.662 52.3081 116.77C52.3081 117.877 53.2033 118.775 54.3076 118.775Z" fill="#94A4AD"/>
<path d="M54.3076 128.681C55.412 128.681 56.3072 127.783 56.3072 126.676C56.3072 125.568 55.412 124.67 54.3076 124.67C53.2033 124.67 52.3081 125.568 52.3081 126.676C52.3081 127.783 53.2033 128.681 54.3076 128.681Z" fill="#94A4AD"/>
<path d="M54.3076 138.587C55.412 138.587 56.3072 137.689 56.3072 136.581C56.3072 135.474 55.412 134.576 54.3076 134.576C53.2033 134.576 52.3081 135.474 52.3081 136.581C52.3081 137.689 53.2033 138.587 54.3076 138.587Z" fill="#94A4AD"/>
<path d="M44.43 79.1512C45.5343 79.1512 46.4295 78.2535 46.4295 77.146C46.4295 76.0385 45.5343 75.1407 44.43 75.1407C43.3256 75.1407 42.4304 76.0385 42.4304 77.146C42.4304 78.2535 43.3256 79.1512 44.43 79.1512Z" fill="#94A4AD"/>
<path d="M44.43 89.0571C45.5343 89.0571 46.4295 88.1593 46.4295 87.0519C46.4295 85.9444 45.5343 85.0466 44.43 85.0466C43.3256 85.0466 42.4304 85.9444 42.4304 87.0519C42.4304 88.1593 43.3256 89.0571 44.43 89.0571Z" fill="#94A4AD"/>
<path d="M44.43 98.963C45.5343 98.963 46.4295 98.0652 46.4295 96.9578C46.4295 95.8503 45.5343 94.9525 44.43 94.9525C43.3256 94.9525 42.4304 95.8503 42.4304 96.9578C42.4304 98.0652 43.3256 98.963 44.43 98.963Z" fill="#94A4AD"/>
<path d="M44.43 108.869C45.5343 108.869 46.4295 107.971 46.4295 106.864C46.4295 105.756 45.5343 104.858 44.43 104.858C43.3256 104.858 42.4304 105.756 42.4304 106.864C42.4304 107.971 43.3256 108.869 44.43 108.869Z" fill="#94A4AD"/>
<path d="M44.43 118.775C45.5343 118.775 46.4295 117.877 46.4295 116.77C46.4295 115.662 45.5343 114.764 44.43 114.764C43.3256 114.764 42.4304 115.662 42.4304 116.77C42.4304 117.877 43.3256 118.775 44.43 118.775Z" fill="#94A4AD"/>
<path d="M44.43 128.681C45.5343 128.681 46.4295 127.783 46.4295 126.676C46.4295 125.568 45.5343 124.67 44.43 124.67C43.3256 124.67 42.4304 125.568 42.4304 126.676C42.4304 127.783 43.3256 128.681 44.43 128.681Z" fill="#94A4AD"/>
<path d="M44.43 138.587C45.5343 138.587 46.4295 137.689 46.4295 136.581C46.4295 135.474 45.5343 134.576 44.43 134.576C43.3256 134.576 42.4304 135.474 42.4304 136.581C42.4304 137.689 43.3256 138.587 44.43 138.587Z" fill="#94A4AD"/>
<path d="M34.5523 79.1512C35.6566 79.1512 36.5518 78.2535 36.5518 77.146C36.5518 76.0385 35.6566 75.1407 34.5523 75.1407C33.448 75.1407 32.5527 76.0385 32.5527 77.146C32.5527 78.2535 33.448 79.1512 34.5523 79.1512Z" fill="#94A4AD"/>
<path d="M34.5523 89.0571C35.6566 89.0571 36.5518 88.1593 36.5518 87.0519C36.5518 85.9444 35.6566 85.0466 34.5523 85.0466C33.448 85.0466 32.5527 85.9444 32.5527 87.0519C32.5527 88.1593 33.448 89.0571 34.5523 89.0571Z" fill="#94A4AD"/>
<path d="M34.5523 98.963C35.6566 98.963 36.5518 98.0652 36.5518 96.9578C36.5518 95.8503 35.6566 94.9525 34.5523 94.9525C33.448 94.9525 32.5527 95.8503 32.5527 96.9578C32.5527 98.0652 33.448 98.963 34.5523 98.963Z" fill="#94A4AD"/>
<path d="M34.5523 108.869C35.6566 108.869 36.5518 107.971 36.5518 106.864C36.5518 105.756 35.6566 104.858 34.5523 104.858C33.448 104.858 32.5527 105.756 32.5527 106.864C32.5527 107.971 33.448 108.869 34.5523 108.869Z" fill="#94A4AD"/>
<path d="M34.5523 118.775C35.6566 118.775 36.5518 117.877 36.5518 116.77C36.5518 115.662 35.6566 114.764 34.5523 114.764C33.448 114.764 32.5527 115.662 32.5527 116.77C32.5527 117.877 33.448 118.775 34.5523 118.775Z" fill="#94A4AD"/>
<path d="M34.5523 128.681C35.6566 128.681 36.5518 127.783 36.5518 126.676C36.5518 125.568 35.6566 124.67 34.5523 124.67C33.448 124.67 32.5527 125.568 32.5527 126.676C32.5527 127.783 33.448 128.681 34.5523 128.681Z" fill="#94A4AD"/>
<path d="M34.5523 138.587C35.6566 138.587 36.5518 137.689 36.5518 136.581C36.5518 135.474 35.6566 134.576 34.5523 134.576C33.448 134.576 32.5527 135.474 32.5527 136.581C32.5527 137.689 33.448 138.587 34.5523 138.587Z" fill="#94A4AD"/>
<path d="M24.6743 79.1512C25.7787 79.1512 26.6739 78.2535 26.6739 77.146C26.6739 76.0385 25.7787 75.1407 24.6743 75.1407C23.57 75.1407 22.6748 76.0385 22.6748 77.146C22.6748 78.2535 23.57 79.1512 24.6743 79.1512Z" fill="#94A4AD"/>
<path d="M24.6743 89.0571C25.7787 89.0571 26.6739 88.1593 26.6739 87.0519C26.6739 85.9444 25.7787 85.0466 24.6743 85.0466C23.57 85.0466 22.6748 85.9444 22.6748 87.0519C22.6748 88.1593 23.57 89.0571 24.6743 89.0571Z" fill="#94A4AD"/>
<path d="M24.6743 98.963C25.7787 98.963 26.6739 98.0652 26.6739 96.9578C26.6739 95.8503 25.7787 94.9525 24.6743 94.9525C23.57 94.9525 22.6748 95.8503 22.6748 96.9578C22.6748 98.0652 23.57 98.963 24.6743 98.963Z" fill="#94A4AD"/>
<path d="M24.6743 108.869C25.7787 108.869 26.6739 107.971 26.6739 106.864C26.6739 105.756 25.7787 104.858 24.6743 104.858C23.57 104.858 22.6748 105.756 22.6748 106.864C22.6748 107.971 23.57 108.869 24.6743 108.869Z" fill="#94A4AD"/>
<path d="M24.6743 118.775C25.7787 118.775 26.6739 117.877 26.6739 116.77C26.6739 115.662 25.7787 114.764 24.6743 114.764C23.57 114.764 22.6748 115.662 22.6748 116.77C22.6748 117.877 23.57 118.775 24.6743 118.775Z" fill="#94A4AD"/>
<path d="M24.6743 128.681C25.7787 128.681 26.6739 127.783 26.6739 126.676C26.6739 125.568 25.7787 124.67 24.6743 124.67C23.57 124.67 22.6748 125.568 22.6748 126.676C22.6748 127.783 23.57 128.681 24.6743 128.681Z" fill="#94A4AD"/>
<path d="M24.6743 138.587C25.7787 138.587 26.6739 137.689 26.6739 136.581C26.6739 135.474 25.7787 134.576 24.6743 134.576C23.57 134.576 22.6748 135.474 22.6748 136.581C22.6748 137.689 23.57 138.587 24.6743 138.587Z" fill="#94A4AD"/>
<path d="M14.7967 79.1512C15.901 79.1512 16.7962 78.2535 16.7962 77.146C16.7962 76.0385 15.901 75.1407 14.7967 75.1407C13.6923 75.1407 12.7971 76.0385 12.7971 77.146C12.7971 78.2535 13.6923 79.1512 14.7967 79.1512Z" fill="#94A4AD"/>
<path d="M14.7967 89.0571C15.901 89.0571 16.7962 88.1593 16.7962 87.0519C16.7962 85.9444 15.901 85.0466 14.7967 85.0466C13.6923 85.0466 12.7971 85.9444 12.7971 87.0519C12.7971 88.1593 13.6923 89.0571 14.7967 89.0571Z" fill="#94A4AD"/>
<path d="M14.7967 98.963C15.901 98.963 16.7962 98.0652 16.7962 96.9578C16.7962 95.8503 15.901 94.9525 14.7967 94.9525C13.6923 94.9525 12.7971 95.8503 12.7971 96.9578C12.7971 98.0652 13.6923 98.963 14.7967 98.963Z" fill="#94A4AD"/>
<path d="M14.7967 108.869C15.901 108.869 16.7962 107.971 16.7962 106.864C16.7962 105.756 15.901 104.858 14.7967 104.858C13.6923 104.858 12.7971 105.756 12.7971 106.864C12.7971 107.971 13.6923 108.869 14.7967 108.869Z" fill="#94A4AD"/>
<path d="M14.7967 118.775C15.901 118.775 16.7962 117.877 16.7962 116.77C16.7962 115.662 15.901 114.764 14.7967 114.764C13.6923 114.764 12.7971 115.662 12.7971 116.77C12.7971 117.877 13.6923 118.775 14.7967 118.775Z" fill="#94A4AD"/>
<path d="M14.7967 128.681C15.901 128.681 16.7962 127.783 16.7962 126.676C16.7962 125.568 15.901 124.67 14.7967 124.67C13.6923 124.67 12.7971 125.568 12.7971 126.676C12.7971 127.783 13.6923 128.681 14.7967 128.681Z" fill="#94A4AD"/>
<path d="M14.7967 138.587C15.901 138.587 16.7962 137.689 16.7962 136.581C16.7962 135.474 15.901 134.576 14.7967 134.576C13.6923 134.576 12.7971 135.474 12.7971 136.581C12.7971 137.689 13.6923 138.587 14.7967 138.587Z" fill="#94A4AD"/>
<path d="M4.91898 79.1512C6.02329 79.1512 6.91852 78.2535 6.91852 77.146C6.91852 76.0385 6.02329 75.1407 4.91898 75.1407C3.81466 75.1407 2.91943 76.0385 2.91943 77.146C2.91943 78.2535 3.81466 79.1512 4.91898 79.1512Z" fill="#94A4AD"/>
<path d="M4.91898 89.0571C6.02329 89.0571 6.91852 88.1593 6.91852 87.0519C6.91852 85.9444 6.02329 85.0466 4.91898 85.0466C3.81466 85.0466 2.91943 85.9444 2.91943 87.0519C2.91943 88.1593 3.81466 89.0571 4.91898 89.0571Z" fill="#94A4AD"/>
<path d="M4.91898 98.963C6.02329 98.963 6.91852 98.0652 6.91852 96.9578C6.91852 95.8503 6.02329 94.9525 4.91898 94.9525C3.81466 94.9525 2.91943 95.8503 2.91943 96.9578C2.91943 98.0652 3.81466 98.963 4.91898 98.963Z" fill="#94A4AD"/>
<path d="M4.91898 108.869C6.02329 108.869 6.91852 107.971 6.91852 106.864C6.91852 105.756 6.02329 104.858 4.91898 104.858C3.81466 104.858 2.91943 105.756 2.91943 106.864C2.91943 107.971 3.81466 108.869 4.91898 108.869Z" fill="#94A4AD"/>
<path d="M4.91898 118.775C6.02329 118.775 6.91852 117.877 6.91852 116.77C6.91852 115.662 6.02329 114.764 4.91898 114.764C3.81466 114.764 2.91943 115.662 2.91943 116.77C2.91943 117.877 3.81466 118.775 4.91898 118.775Z" fill="#94A4AD"/>
<path d="M4.91898 128.681C6.02329 128.681 6.91852 127.783 6.91852 126.676C6.91852 125.568 6.02329 124.67 4.91898 124.67C3.81466 124.67 2.91943 125.568 2.91943 126.676C2.91943 127.783 3.81466 128.681 4.91898 128.681Z" fill="#94A4AD"/>
<path d="M4.91898 138.587C6.02329 138.587 6.91852 137.689 6.91852 136.581C6.91852 135.474 6.02329 134.576 4.91898 134.576C3.81466 134.576 2.91943 135.474 2.91943 136.581C2.91943 137.689 3.81466 138.587 4.91898 138.587Z" fill="#94A4AD"/>
<!--<path d="M39.2863 28.0487L27.1873 40.1823L39.2863 52.3158L51.3854 40.1823L39.2863 28.0487Z" fill="#D1D8DC"/>-->
<path fill-rule="evenodd" clip-rule="evenodd" d="M223.537 30C232.05 30.0063 238.939 36.901 238.933 45.3969C238.939 53.8928 232.043 60.7874 223.53 60.7937H208.128V45.4031C208.122 36.9072 215.017 30.0126 223.537 30C223.53 30 223.53 30 223.537 30M223.537 71.0667H264.597C273.11 71.0729 280.006 77.9676 280 86.4635C280.013 94.9594 273.117 101.854 264.604 101.867H223.537C215.024 101.86 208.128 94.9657 208.134 86.4698C208.128 77.9676 215.024 71.0729 223.537 71.0667Z" fill="#36C5F0"/>
<path fill-rule="evenodd" clip-rule="evenodd" d="M126 86.4635C125.994 77.9676 132.889 71.0729 141.402 71.0667C149.915 71.0729 156.811 77.9676 156.805 86.4635V101.867H141.402C132.889 101.86 125.994 94.9657 126 86.4635ZM167.067 86.4635V45.3969C167.061 36.9072 173.95 30.0126 182.463 30C190.976 30.0063 197.872 36.901 197.866 45.3969V86.4635C197.878 94.9594 190.982 101.854 182.469 101.867C173.957 101.86 167.061 94.9657 167.067 86.4635Z" fill="#2EB67D"/>
<path fill-rule="evenodd" clip-rule="evenodd" d="M182.47 184C173.957 183.994 167.061 177.099 167.067 168.603C167.061 160.107 173.957 153.213 182.47 153.206H197.872V168.603C197.878 177.093 190.982 183.987 182.47 184ZM182.47 142.927H141.402C132.89 142.921 125.994 136.026 126 127.53C125.987 119.034 132.883 112.14 141.396 112.127H182.463C190.976 112.133 197.872 119.028 197.866 127.524C197.872 136.026 190.982 142.921 182.47 142.927Z" fill="#ECB22E"/>
<path fill-rule="evenodd" clip-rule="evenodd" d="M280 127.53C280.006 136.026 273.11 142.921 264.597 142.927C256.085 142.921 249.189 136.026 249.195 127.53V112.133H264.597C273.11 112.14 280.006 119.034 280 127.53ZM238.933 127.53V168.597C238.945 177.093 232.05 183.987 223.537 184C215.024 183.994 208.128 177.099 208.134 168.603V127.543C208.122 119.047 215.017 112.152 223.53 112.14C232.05 112.14 238.939 119.034 238.933 127.53C238.933 127.536 238.933 127.53 238.933 127.53Z" fill="#E01E5A"/>
</svg>
