<svg width="443" height="225" viewBox="0 0 443 225" fill="none" xmlns="http://www.w3.org/2000/svg">
<path d="M248.087 156.446C248.087 190.072 246.669 217.404 219.707 218.204C219.317 218.204 198.665 218.232 198.275 218.232C170.757 218.232 148.464 190.569 148.464 156.474C148.464 122.379 170.757 94.7158 198.275 94.7158C198.387 94.7158 219.901 94.7158 220.04 94.7158C247.392 94.9091 248.087 122.461 248.087 156.446Z" fill="#E2CFFE"/>
<path d="M198.276 219.585C184.544 219.585 171.646 212.986 161.973 200.977C152.356 189.078 147.074 173.259 147.074 156.446C147.074 139.633 152.356 123.814 161.973 111.915C171.646 99.9058 184.544 93.3076 198.276 93.3076C198.498 93.3076 219.901 93.3076 220.04 93.3076C226.989 93.3628 232.493 95.1021 236.829 98.5807C240.777 101.756 243.64 106.283 245.641 112.495C249.199 123.538 249.477 138.308 249.477 156.446C249.477 172.9 249.171 188.609 245.335 200.066C241.082 212.821 232.716 219.198 219.762 219.557C219.318 219.585 198.498 219.585 198.276 219.585ZM198.276 96.0408C171.563 96.0408 149.854 123.124 149.854 156.418C149.854 189.713 171.563 216.796 198.276 216.796C199.304 216.796 219.095 216.796 219.679 216.769C244.779 216.051 246.697 191.287 246.697 156.391C246.697 138.474 246.419 123.952 243 113.268C239.248 101.59 231.937 96.096 220.04 95.9855C219.762 96.0408 200.027 96.0408 198.276 96.0408Z" fill="#94A4AD"/>
<path d="M203.363 98.0009C203.113 97.5039 202.557 97.2003 202.001 97.2555C201.028 97.3383 178.012 99.4365 169.201 104.489C160.278 109.596 152.578 127.955 152.245 128.728C152.078 129.142 152.106 129.639 152.384 130.026C152.634 130.412 153.079 130.633 153.551 130.633H174.982C175.372 130.633 175.761 130.467 176.039 130.164L203.168 99.5469C203.53 99.1052 203.613 98.4978 203.363 98.0009Z" fill="#9D60FB"/>
<path d="M214.258 101.921H177.067C176.288 101.921 175.677 101.314 175.677 100.541C175.677 99.768 176.288 99.1606 177.067 99.1606H214.258C215.037 99.1606 215.648 99.768 215.648 100.541C215.648 101.314 215.009 101.921 214.258 101.921Z" fill="#94A4AD"/>
<path d="M201.194 114.234H164.252C163.474 114.234 162.862 113.627 162.862 112.854C162.862 112.081 163.474 111.474 164.252 111.474H201.166C201.944 111.474 202.556 112.081 202.556 112.854C202.556 113.627 201.944 114.234 201.194 114.234Z" fill="#94A4AD"/>
<path d="M192.021 130.605H155.079C154.301 130.605 153.689 129.998 153.689 129.225C153.689 128.452 154.301 127.845 155.079 127.845H192.021C192.799 127.845 193.411 128.452 193.411 129.225C193.411 129.998 192.771 130.605 192.021 130.605Z" fill="#94A4AD"/>
<path d="M214.258 213.704H177.067C176.288 213.704 175.677 213.097 175.677 212.324C175.677 211.551 176.288 210.943 177.067 210.943H214.258C215.037 210.943 215.648 211.551 215.648 212.324C215.648 213.097 215.009 213.704 214.258 213.704Z" fill="#94A4AD"/>
<path d="M201.194 202.302H164.252C163.474 202.302 162.862 201.695 162.862 200.922C162.862 200.149 163.474 199.542 164.252 199.542H201.166C201.944 199.542 202.556 200.149 202.556 200.922C202.556 201.695 201.944 202.302 201.194 202.302Z" fill="#94A4AD"/>
<path d="M192.021 187.118H155.079C154.301 187.118 153.689 186.511 153.689 185.738C153.689 184.965 154.301 184.357 155.079 184.357H192.021C192.799 184.357 193.411 184.965 193.411 185.738C193.411 186.511 192.771 187.118 192.021 187.118Z" fill="#94A4AD"/>
<path d="M219.707 218.204C247.217 218.204 269.519 190.554 269.519 156.446C269.519 122.338 247.217 94.688 219.707 94.688C192.197 94.688 169.896 122.338 169.896 156.446C169.896 190.554 192.197 218.204 219.707 218.204Z" fill="white"/>
<path d="M219.707 219.585C205.976 219.585 193.078 212.986 183.405 200.977C173.787 189.078 168.506 173.259 168.506 156.446C168.506 139.633 173.787 123.814 183.405 111.915C193.078 99.9058 205.976 93.3076 219.707 93.3076C233.439 93.3076 246.336 99.9058 256.01 111.915C265.627 123.814 270.909 139.633 270.909 156.446C270.909 173.259 265.627 189.078 256.01 200.977C246.336 212.959 233.439 219.585 219.707 219.585ZM219.707 96.0408C192.995 96.0408 171.286 123.124 171.286 156.418C171.286 189.713 192.995 216.824 219.707 216.824C246.42 216.824 268.129 189.741 268.129 156.446C268.129 123.151 246.42 96.0408 219.707 96.0408Z" fill="#94A4AD"/>
<path d="M219.707 203.986C240.892 203.986 258.066 182.702 258.066 156.446C258.066 130.19 240.892 108.906 219.707 108.906C198.522 108.906 181.348 130.19 181.348 156.446C181.348 182.702 198.522 203.986 219.707 203.986Z" fill="white"/>
<path d="M129.944 5.46317C129.778 4.85664 129.224 4.41553 128.587 4.41553H38.3848C37.6093 4.41553 37 5.02206 37 5.794V189.545C37 190.234 37.4985 190.813 38.1632 190.896C38.2463 190.896 38.3017 190.923 38.3848 190.923C38.9663 190.923 39.5202 190.537 39.7141 189.958C53.7001 146.398 67.2707 136.143 79.2626 127.072C87.0726 121.172 94.4395 115.576 100.588 101.736C109.118 82.5199 108.01 66.7226 107.013 52.7724C106.348 43.2885 105.767 35.1004 108.425 27.629C111.306 19.4685 117.925 12.9345 129.252 7.00706C129.806 6.7038 130.083 6.0697 129.944 5.46317Z" fill="white"/>
<path d="M334.097 217.872L253.018 81.9523C252.706 81.4133 252.08 81.1581 251.484 81.2999L239.491 84.0796C239.036 84.193 238.695 84.4767 238.496 84.9021C238.326 85.3276 238.354 85.7814 238.582 86.1785L317.983 219.319C318.239 219.745 318.694 220 319.205 220H332.846C333.358 220 333.841 219.716 334.068 219.291C334.352 218.865 334.352 218.326 334.097 217.872Z" fill="#94A4AD"/>
<path d="M282.788 47.0509L300.67 44.5542L306.566 60.7825L258.147 76.0953L117.313 108.191L115.505 87.8296L282.788 47.0509Z" fill="#E2CFFE"/>
<path d="M294.246 50.5464C297.055 49.8806 299.864 51.6283 300.531 54.4023C301.199 57.2041 299.447 60.0059 296.666 60.6717L125.016 101.173C122.207 101.839 119.398 100.091 118.731 97.3171C118.064 94.543 119.816 91.7135 122.597 91.0477L294.246 50.5464ZM291.048 37.0367L119.426 77.538C109.136 79.9514 102.795 90.2432 105.215 100.507C107.634 110.771 117.952 117.096 128.242 114.683L299.864 74.2091C310.154 71.7957 316.495 61.5039 314.075 51.2399C311.628 40.9759 301.31 34.6233 291.048 37.0367Z" fill="#F3F5F8"/>
<path d="M123.82 116.569C114.531 116.569 106.077 110.216 103.852 100.812C101.238 89.8271 108.079 78.7864 119.092 76.1788L290.714 35.7052C296.053 34.4569 301.56 35.3446 306.204 38.2018C310.849 41.0591 314.131 45.5808 315.382 50.907C317.996 61.8923 311.155 72.9331 300.142 75.5407L128.548 116.014C126.963 116.375 125.378 116.569 123.82 116.569ZM295.469 37.9244C294.107 37.9244 292.716 38.0909 291.353 38.396L119.732 78.8696C110.221 81.1166 104.297 90.6594 106.549 100.147C108.468 108.275 115.783 113.767 123.82 113.767C125.155 113.767 126.546 113.601 127.908 113.296L299.53 72.8221C309.041 70.5751 314.965 61.0324 312.712 51.5451C311.628 46.9401 308.791 43.0565 304.758 40.5598C301.922 38.8121 298.723 37.9244 295.469 37.9244ZM123.82 102.699C122.596 102.699 121.428 102.366 120.344 101.7C118.842 100.785 117.785 99.3144 117.368 97.5945C116.951 95.8746 117.257 94.1269 118.174 92.6012C119.092 91.1032 120.566 90.0491 122.291 89.633L293.912 49.1594C297.444 48.3272 301.032 50.5187 301.866 54.0695C302.283 55.7894 301.977 57.5371 301.059 59.0628C300.142 60.5608 298.668 61.6149 296.943 62.031L125.35 102.505C124.849 102.643 124.321 102.699 123.82 102.699ZM294.552 51.9057L122.958 92.3793C121.957 92.6012 121.122 93.2115 120.594 94.0992C120.066 94.9592 119.899 95.9856 120.121 96.9842C120.344 97.9829 120.956 98.8151 121.846 99.3422C122.708 99.8692 123.737 100.036 124.738 99.8138L296.359 59.3402C297.361 59.1183 298.195 58.508 298.723 57.6203C299.252 56.7603 299.419 55.7339 299.196 54.7353C298.668 52.6824 296.61 51.4064 294.552 51.9057Z" fill="#94A4AD"/>
<path d="M213.246 5.78662L172.3 64.9367L131.354 5.78662H213.246Z" fill="white"/>
<path d="M172.3 66.3078C171.86 66.3078 171.421 66.0885 171.173 65.7045L130.227 6.5819C129.925 6.17056 129.897 5.62211 130.144 5.15593C130.392 4.71717 130.859 4.41553 131.354 4.41553H213.246C213.768 4.41553 214.236 4.68975 214.455 5.15593C214.703 5.59469 214.648 6.14314 214.373 6.5819L173.427 65.7045C173.179 66.0885 172.767 66.3078 172.3 66.3078ZM133.992 7.15777L172.327 62.4961L210.663 7.15777H133.992Z" fill="#94A4AD"/>
<path d="M206.459 10.3663C207.218 10.3663 207.833 9.75239 207.833 8.99514C207.833 8.23789 207.218 7.62402 206.459 7.62402C205.7 7.62402 205.085 8.23789 205.085 8.99514C205.085 9.75239 205.7 10.3663 206.459 10.3663Z" fill="#94A4AD"/>
<path d="M194.367 10.3663C195.126 10.3663 195.741 9.75239 195.741 8.99514C195.741 8.23789 195.126 7.62402 194.367 7.62402C193.608 7.62402 192.993 8.23789 192.993 8.99514C192.993 9.75239 193.608 10.3663 194.367 10.3663Z" fill="#94A4AD"/>
<path d="M194.367 22.4322C195.126 22.4322 195.741 21.8183 195.741 21.0611C195.741 20.3038 195.126 19.6899 194.367 19.6899C193.608 19.6899 192.993 20.3038 192.993 21.0611C192.993 21.8183 193.608 22.4322 194.367 22.4322Z" fill="#94A4AD"/>
<path d="M182.275 10.3663C183.034 10.3663 183.649 9.75239 183.649 8.99514C183.649 8.23789 183.034 7.62402 182.275 7.62402C181.517 7.62402 180.901 8.23789 180.901 8.99514C180.901 9.75239 181.517 10.3663 182.275 10.3663Z" fill="#94A4AD"/>
<path d="M182.275 22.4322C183.034 22.4322 183.649 21.8183 183.649 21.0611C183.649 20.3038 183.034 19.6899 182.275 19.6899C181.517 19.6899 180.901 20.3038 180.901 21.0611C180.901 21.8183 181.517 22.4322 182.275 22.4322Z" fill="#94A4AD"/>
<path d="M182.275 34.4981C183.034 34.4981 183.649 33.8842 183.649 33.127C183.649 32.3697 183.034 31.7559 182.275 31.7559C181.517 31.7559 180.901 32.3697 180.901 33.127C180.901 33.8842 181.517 34.4981 182.275 34.4981Z" fill="#94A4AD"/>
<path d="M182.275 46.564C183.034 46.564 183.649 45.9501 183.649 45.1929C183.649 44.4356 183.034 43.8218 182.275 43.8218C181.517 43.8218 180.901 44.4356 180.901 45.1929C180.901 45.9501 181.517 46.564 182.275 46.564Z" fill="#94A4AD"/>
<path d="M170.184 10.3663C170.942 10.3663 171.558 9.75239 171.558 8.99514C171.558 8.23789 170.942 7.62402 170.184 7.62402C169.425 7.62402 168.81 8.23789 168.81 8.99514C168.81 9.75239 169.425 10.3663 170.184 10.3663Z" fill="#94A4AD"/>
<path d="M170.184 22.4322C170.942 22.4322 171.558 21.8183 171.558 21.0611C171.558 20.3038 170.942 19.6899 170.184 19.6899C169.425 19.6899 168.81 20.3038 168.81 21.0611C168.81 21.8183 169.425 22.4322 170.184 22.4322Z" fill="#94A4AD"/>
<path d="M170.184 34.4981C170.942 34.4981 171.558 33.8842 171.558 33.127C171.558 32.3697 170.942 31.7559 170.184 31.7559C169.425 31.7559 168.81 32.3697 168.81 33.127C168.81 33.8842 169.425 34.4981 170.184 34.4981Z" fill="#94A4AD"/>
<path d="M170.184 46.564C170.942 46.564 171.558 45.9501 171.558 45.1929C171.558 44.4356 170.942 43.8218 170.184 43.8218C169.425 43.8218 168.81 44.4356 168.81 45.1929C168.81 45.9501 169.425 46.564 170.184 46.564Z" fill="#94A4AD"/>
<path d="M170.184 58.6294C170.942 58.6294 171.558 58.0156 171.558 57.2583C171.558 56.5011 170.942 55.8872 170.184 55.8872C169.425 55.8872 168.81 56.5011 168.81 57.2583C168.81 58.0156 169.425 58.6294 170.184 58.6294Z" fill="#94A4AD"/>
<path d="M158.093 10.3663C158.852 10.3663 159.467 9.75239 159.467 8.99514C159.467 8.23789 158.852 7.62402 158.093 7.62402C157.334 7.62402 156.719 8.23789 156.719 8.99514C156.719 9.75239 157.334 10.3663 158.093 10.3663Z" fill="#94A4AD"/>
<path d="M158.093 22.4322C158.852 22.4322 159.467 21.8183 159.467 21.0611C159.467 20.3038 158.852 19.6899 158.093 19.6899C157.334 19.6899 156.719 20.3038 156.719 21.0611C156.719 21.8183 157.334 22.4322 158.093 22.4322Z" fill="#94A4AD"/>
<path d="M158.093 34.4981C158.852 34.4981 159.467 33.8842 159.467 33.127C159.467 32.3697 158.852 31.7559 158.093 31.7559C157.334 31.7559 156.719 32.3697 156.719 33.127C156.719 33.8842 157.334 34.4981 158.093 34.4981Z" fill="#94A4AD"/>
<path d="M146.001 10.3663C146.76 10.3663 147.375 9.75239 147.375 8.99514C147.375 8.23789 146.76 7.62402 146.001 7.62402C145.242 7.62402 144.627 8.23789 144.627 8.99514C144.627 9.75239 145.242 10.3663 146.001 10.3663Z" fill="#94A4AD"/>
<path d="M146.001 22.4322C146.76 22.4322 147.375 21.8183 147.375 21.0611C147.375 20.3038 146.76 19.6899 146.001 19.6899C145.242 19.6899 144.627 20.3038 144.627 21.0611C144.627 21.8183 145.242 22.4322 146.001 22.4322Z" fill="#94A4AD"/>
<path d="M361.373 27.7021L369.579 44.1798L387.922 46.8195L374.648 59.6571L377.784 77.7741L361.373 69.2158L344.99 77.7741L348.126 59.6571L334.852 46.8195L353.195 44.1798L361.373 27.7021Z" fill="#E2CFFE"/>
<path d="M377.784 79.1636C377.56 79.1636 377.336 79.1081 377.14 78.9969L361.401 70.772L345.662 78.9969C345.186 79.247 344.626 79.1914 344.178 78.8858C343.757 78.5801 343.533 78.0522 343.617 77.5242L346.614 60.1296L333.871 47.7922C333.479 47.431 333.339 46.8753 333.507 46.3751C333.675 45.8749 334.124 45.5137 334.628 45.4303L352.243 42.9017L360.113 27.0632C360.337 26.5908 360.841 26.2852 361.373 26.2852C361.905 26.2852 362.381 26.5908 362.633 27.0632L370.503 42.9017L388.118 45.4303C388.65 45.5137 389.071 45.8749 389.239 46.3751C389.407 46.8753 389.267 47.431 388.875 47.7922L376.132 60.1296L379.129 77.5242C379.213 78.0522 379.017 78.5801 378.568 78.8858C378.372 79.0803 378.092 79.1636 377.784 79.1636ZM361.373 67.8266C361.597 67.8266 361.821 67.8821 362.017 67.9933L375.908 75.2457L373.247 59.9073C373.163 59.4627 373.331 58.9903 373.639 58.6847L384.87 47.82L369.327 45.5693C368.879 45.5137 368.486 45.208 368.262 44.819L361.317 30.8422L354.372 44.819C354.176 45.2358 353.783 45.5137 353.307 45.5693L337.764 47.82L348.995 58.6847C349.331 58.9903 349.471 59.4627 349.387 59.9073L346.726 75.2457L360.617 67.9933C360.925 67.8821 361.149 67.8266 361.373 67.8266Z" fill="#9D60FB"/>
<path d="M77.5912 35.9792L71.1904 42.3569L73.1303 44.2893L79.5311 37.9116L77.5912 35.9792Z" fill="#94A4AD"/>
<path d="M73.1301 35.9802L71.1904 37.9126L77.5912 44.2894L79.5309 42.357L73.1301 35.9802Z" fill="#94A4AD"/>
<path d="M123.776 161.841L117.055 168.538L119.092 170.567L125.812 163.87L123.776 161.841Z" fill="#94A4AD"/>
<path d="M119.091 161.842L117.055 163.871L123.776 170.566L125.812 168.537L119.091 161.842Z" fill="#94A4AD"/>
<path d="M390.303 176.379L383.902 182.757L385.842 184.689L392.243 178.312L390.303 176.379Z" fill="#94A4AD"/>
<path d="M385.842 176.38L383.902 178.312L390.303 184.689L392.243 182.757L385.842 176.38Z" fill="#94A4AD"/>
<path d="M308.164 108.256L301.764 114.634L303.704 116.566L310.104 110.188L308.164 108.256Z" fill="#94A4AD"/>
<path d="M303.703 108.257L301.764 110.189L308.164 116.566L310.104 114.634L303.703 108.257Z" fill="#94A4AD"/>
<path d="M155.671 220H38.3828C37.6084 220 37 219.387 37 218.607V190.655C37 189.875 37.6084 189.262 38.3828 189.262H155.671C156.445 189.262 157.054 189.875 157.054 190.655V218.607C157.054 219.359 156.418 220 155.671 220ZM39.7656 217.213H154.288V192.049H39.7656V217.213Z" fill="#94A4AD"/>
<path d="M135.98 220C135.206 220 134.598 219.387 134.598 218.607V190.655C134.598 189.875 135.206 189.262 135.98 189.262C136.755 189.262 137.363 189.875 137.363 190.655V218.607C137.363 219.359 136.727 220 135.98 220Z" fill="#94A4AD"/>
<path d="M116.482 220C115.708 220 115.1 219.387 115.1 218.607V190.655C115.1 189.875 115.708 189.262 116.482 189.262C117.257 189.262 117.865 189.875 117.865 190.655V218.607C117.865 219.359 117.257 220 116.482 220Z" fill="#94A4AD"/>
<path d="M97.0127 220C96.2383 220 95.6299 219.387 95.6299 218.607V190.655C95.6299 189.875 96.2383 189.262 97.0127 189.262C97.787 189.262 98.3955 189.875 98.3955 190.655V218.607C98.3955 219.359 97.787 220 97.0127 220Z" fill="#94A4AD"/>
<path d="M77.5429 220C76.7686 220 76.1602 219.387 76.1602 218.607V190.655C76.1602 189.875 76.7686 189.262 77.5429 189.262C78.3173 189.262 78.9257 189.875 78.9257 190.655V218.607C78.9257 219.359 78.3173 220 77.5429 220Z" fill="#94A4AD"/>
<path d="M58.0732 220C57.2989 220 56.6904 219.387 56.6904 218.607V190.655C56.6904 189.875 57.2989 189.262 58.0732 189.262C58.8476 189.262 59.456 189.875 59.456 190.655V218.607C59.456 219.359 58.8476 220 58.0732 220Z" fill="#94A4AD"/>
<path d="M155.671 189.262H135.87C135.455 189.262 135.068 189.457 134.791 189.763C134.542 190.098 134.432 190.516 134.515 190.934C136.921 202.945 144.388 213.34 155.007 219.471C155.229 219.582 155.45 219.666 155.699 219.666C155.948 219.666 156.169 219.61 156.39 219.471C156.805 219.22 157.082 218.774 157.082 218.272V190.683C157.054 189.875 156.418 189.262 155.671 189.262Z" fill="#94A4AD"/>
<path d="M79.4685 156.446C78.4087 156.446 77.4604 155.862 76.819 154.833C75.4524 152.553 77.321 149.383 79.5242 147.214C80.2494 146.491 81.2813 145.629 82.6479 144.739C82.0064 140.346 79.8868 134.422 76.4006 127.359C71.2968 116.987 64.938 107.56 61.0613 102.611C60.5872 101.999 60.6988 101.137 61.2845 100.664C61.898 100.191 62.7626 100.302 63.2367 100.886C70.6833 110.341 82.8152 130.224 85.1858 143.265C86.1899 142.765 87.3054 142.292 88.5326 141.847C93.0786 140.234 98.4055 139.4 104.346 139.4C104.374 139.4 104.374 139.4 104.402 139.4C105.183 139.4 105.796 140.012 105.796 140.79C105.796 141.569 105.183 142.181 104.402 142.181C104.402 142.181 104.374 142.181 104.346 142.181C95.1703 142.181 89.2019 144.211 85.5484 146.213C85.66 148.104 85.5205 149.772 85.0185 151.163C84.3213 153.22 82.0901 156.168 79.7195 156.418C79.6637 156.446 79.5521 156.446 79.4685 156.446ZM82.8431 148.02C82.2853 148.465 81.8391 148.855 81.5044 149.188C79.3569 151.302 78.9665 152.97 79.2175 153.415C79.3848 153.693 79.4406 153.665 79.4964 153.665C80.2773 153.582 81.8949 151.886 82.4527 150.273C82.6479 149.633 82.7873 148.882 82.8431 148.02Z" fill="#9D60FB"/>
<path d="M372.093 188.846C371.642 188.846 371.192 188.623 370.91 188.234L334.517 133.672C334.095 133.032 334.263 132.169 334.911 131.752C335.558 131.335 336.431 131.501 336.853 132.141L373.247 186.704C373.669 187.343 373.5 188.206 372.853 188.623C372.627 188.762 372.346 188.846 372.093 188.846Z" fill="#94A4AD"/>
<path d="M226.712 49.9609C239.065 49.9609 249.08 39.9839 249.08 27.6767C249.08 15.3695 239.065 5.39258 226.712 5.39258C214.358 5.39258 204.344 15.3695 204.344 27.6767C204.344 39.9839 214.358 49.9609 226.712 49.9609Z" fill="#E2CFFE"/>
<path d="M226.711 51.3539C213.626 51.3539 202.945 40.741 202.945 27.6769C202.945 14.6128 213.598 4 226.711 4C239.825 4 250.478 14.6128 250.478 27.6769C250.478 40.741 239.825 51.3539 226.711 51.3539ZM226.711 6.81338C215.164 6.81338 205.741 16.1727 205.741 27.7048C205.741 39.2368 215.136 48.5962 226.711 48.5962C238.287 48.5962 247.682 39.2368 247.682 27.7048C247.682 16.1727 238.287 6.81338 226.711 6.81338Z" fill="#94A4AD"/>
<path d="M249.079 27.6769C249.079 27.6769 239.069 39.014 226.711 39.014C214.352 39.014 204.343 27.6769 204.343 27.6769C204.343 27.6769 214.352 16.3398 226.711 16.3398C239.069 16.3398 249.079 27.6769 249.079 27.6769Z" fill="white"/>
<path d="M226.711 40.4069C213.878 40.4069 203.728 29.0977 203.309 28.5963C202.833 28.0671 202.833 27.2871 203.309 26.7579C203.728 26.2843 213.878 14.9473 226.711 14.9473C239.545 14.9473 249.694 26.2565 250.114 26.7579C250.589 27.2871 250.589 28.0671 250.114 28.5963C249.694 29.0699 239.545 40.4069 226.711 40.4069ZM206.3 27.6771C208.957 30.2955 217.177 37.6214 226.711 37.6214C236.246 37.6214 244.494 30.2955 247.122 27.6771C244.466 25.0587 236.246 17.7328 226.711 17.7328C217.177 17.7328 208.957 25.0587 206.3 27.6771Z" fill="#94A4AD"/>
<path d="M226.712 37.6489C232.24 37.6489 236.722 33.1842 236.722 27.6768C236.722 22.1693 232.24 17.7046 226.712 17.7046C221.184 17.7046 216.702 22.1693 216.702 27.6768C216.702 33.1842 221.184 37.6489 226.712 37.6489Z" fill="#9D60FB"/>
<path d="M229.438 116.5L228.37 159.558H214.644L213.493 116.5H229.438ZM213 186.202C213 183.689 213.74 181.566 215.219 179.834C216.753 178.103 219 177.237 221.959 177.237C224.863 177.237 227.082 178.103 228.616 179.834C230.205 181.566 231 183.689 231 186.202C231 188.604 230.205 190.671 228.616 192.402C227.082 194.134 224.863 195 221.959 195C219 195 216.753 194.134 215.219 192.402C213.74 190.671 213 188.604 213 186.202Z" fill="#9D60FB"/>
</svg>
