<svg version="1.1" xmlns="http://www.w3.org/2000/svg" viewBox="0 0 1106.5484008789062 517.3711853027344" width="1106.5484008789062" height="517.3711853027344">
  <!-- svg-source:excalidraw -->
  
  <defs>
    <style class="style-fonts">
      @font-face {
        font-family: "Virgil";
        src: url("https://excalidraw.com/Virgil.woff2");
      }
      @font-face {
        font-family: "Cascadia";
        src: url("https://excalidraw.com/Cascadia.woff2");
      }
    </style>
  </defs>
  <rect x="0" y="0" width="1106.5484008789062" height="517.3711853027344" fill="#ffffff"></rect><g stroke-linecap="round" transform="translate(408.72576904296875 265.29576110839844) rotate(0 138.48321533203125 121.03771209716797)"><path d="M32 0 M32 0 C89.17 -0.68, 146.76 -1.44, 244.97 0 M32 0 C112.48 -0.6, 193.09 -1.53, 244.97 0 M244.97 0 C265.87 -1.29, 276.83 11.12, 276.97 32 M244.97 0 C266.6 -1.03, 277.78 11.74, 276.97 32 M276.97 32 C277.27 68.33, 277.2 107.98, 276.97 210.08 M276.97 32 C278.96 90.94, 279.4 148.17, 276.97 210.08 M276.97 210.08 C275.78 230.41, 266.37 243.81, 244.97 242.08 M276.97 210.08 C277.2 232.52, 265.84 243.15, 244.97 242.08 M244.97 242.08 C164.91 240.38, 87.03 242.08, 32 242.08 M244.97 242.08 C184 242.07, 123.86 242.25, 32 242.08 M32 242.08 C10.41 242.15, -0.51 231.01, 0 210.08 M32 242.08 C11.36 240.89, 0.58 232.32, 0 210.08 M0 210.08 C1.37 165.38, -0.51 118.72, 0 32 M0 210.08 C1.67 174.48, 1.55 138.26, 0 32 M0 32 C1.17 12.19, 9.58 0.82, 32 0 M0 32 C0.52 12.78, 9.25 0.02, 32 0" stroke="#000000" stroke-width="1" fill="none"></path></g><g transform="translate(420.68731689453125 374.25392150878906) rotate(0 128.63987731933594 12.5)"><text x="0" y="0" font-family="Virgil, Segoe UI Emoji" font-size="20px" fill="#000000" text-anchor="start" style="white-space: pre;" direction="ltr" dominant-baseline="text-before-edge">Deepchecks Design System</text></g><g stroke-linecap="round"><g transform="translate(407.3609226428275 402.8412156350264) rotate(0 -66.7933357099223 1.3686676632976287)"><path d="M-1.19 -1.02 C-9.26 -1.06, -27.09 -1.86, -49.22 -1.19 C-71.35 -0.52, -120.06 2.44, -133.97 2.99 M0.38 1.06 C-7.76 1.28, -28.14 -0.34, -50.15 0.18 C-72.16 0.71, -117.96 3.79, -131.66 4.19" stroke="#000000" stroke-width="1" fill="none"></path></g><g transform="translate(407.3609226428275 402.8412156350264) rotate(0 -66.7933357099223 1.3686676632976287)"><path d="M-105.7 -7.36 C-111.02 -6.86, -117.26 -2.05, -133.54 5.18 M-104.52 -7.43 C-110.12 -4.85, -118.05 -1.77, -131.09 4.52" stroke="#000000" stroke-width="1" fill="none"></path></g><g transform="translate(407.3609226428275 402.8412156350264) rotate(0 -66.7933357099223 1.3686676632976287)"><path d="M-104.7 13.14 C-110.1 8.88, -116.57 8.94, -133.54 5.18 M-103.52 13.06 C-109.31 10.55, -117.49 8.52, -131.09 4.52" stroke="#000000" stroke-width="1" fill="none"></path></g></g><mask></mask><g stroke-linecap="round"><g transform="translate(823.4631419136037 399.5227021809652) rotate(189.68813389570147 -66.53883075048805 2.6024426131137375)"><path d="M0.9 -0.03 C-7.14 0.74, -25.32 4.24, -47.65 4.81 C-69.98 5.38, -118.84 3.61, -133.09 3.39 M-0.09 -1.09 C-8.23 -0.18, -25.67 5.04, -47.99 6.03 C-70.3 7.01, -119.8 5.02, -133.97 4.8" stroke="#000000" stroke-width="1" fill="none"></path></g><g transform="translate(823.4631419136037 399.5227021809652) rotate(189.68813389570147 -66.53883075048805 2.6024426131137375)"><path d="M-105.57 -2.77 C-116.41 -1.58, -124.97 1.67, -133.54 5.23 M-104.86 -5.17 C-111.93 -3.28, -118.65 -1.07, -133.14 5.66" stroke="#000000" stroke-width="1" fill="none"></path></g><g transform="translate(823.4631419136037 399.5227021809652) rotate(189.68813389570147 -66.53883075048805 2.6024426131137375)"><path d="M-106.12 17.74 C-116.79 11.81, -125.16 7.93, -133.54 5.23 M-105.4 15.34 C-112.19 12.58, -118.78 10.13, -133.14 5.66" stroke="#000000" stroke-width="1" fill="none"></path></g></g><mask></mask><g stroke-linecap="round" transform="translate(288.15777587890625 10.1888427734375) rotate(0 85.5 70.5)"><path d="M93.29 0.15 C104.48 0.04, 118.11 5.01, 128.16 9.67 C138.21 14.33, 146.79 20.69, 153.6 28.12 C160.42 35.55, 166.48 44.74, 169.04 54.25 C171.59 63.76, 171.14 75.69, 168.92 85.19 C166.69 94.68, 162.29 103.48, 155.71 111.2 C149.12 118.93, 139.42 126.55, 129.42 131.55 C119.43 136.55, 107.19 140.06, 95.74 141.23 C84.3 142.4, 71.96 141.53, 60.75 138.57 C49.53 135.61, 37.36 129.84, 28.44 123.45 C19.52 117.06, 12.06 108.93, 7.24 100.22 C2.43 91.5, -0.34 80.73, -0.43 71.18 C-0.51 61.64, 2.13 51.56, 6.76 42.93 C11.39 34.29, 18.67 25.88, 27.35 19.38 C36.02 12.89, 47.04 6.97, 58.81 3.96 C70.58 0.95, 90.54 1.47, 97.97 1.34 C105.4 1.22, 103.39 2.23, 103.41 3.21 M44.5 9.33 C53.59 3.88, 68.34 0.59, 79.88 -0.09 C91.42 -0.76, 103.04 1.99, 113.72 5.29 C124.39 8.6, 135.65 13.29, 143.91 19.72 C152.18 26.15, 158.79 34.81, 163.3 43.88 C167.81 52.94, 170.88 64.34, 170.98 74.12 C171.07 83.89, 168.81 94.12, 163.87 102.53 C158.93 110.94, 150.67 118.45, 141.35 124.56 C132.04 130.67, 119.16 136.39, 107.98 139.19 C96.8 142, 85.48 142.78, 74.26 141.4 C63.04 140.01, 50.36 136.12, 40.66 130.88 C30.96 125.63, 22.56 118, 16.05 109.91 C9.54 101.82, 3.7 91.7, 1.61 82.35 C-0.49 73, 0.85 63.02, 3.5 53.83 C6.15 44.64, 10.51 34.76, 17.49 27.21 C24.47 19.66, 40.45 11.59, 45.38 8.55 C50.31 5.5, 46.26 8, 47.08 8.94" stroke="#000000" stroke-width="1" fill="none"></path></g><g transform="translate(319.03020132427287 55.837814699785895) rotate(0 54.669944763183594 25)"><text x="54.669944763183594" y="0" font-family="Virgil, Segoe UI Emoji" font-size="20px" fill="#000000" text-anchor="middle" style="white-space: pre;" direction="ltr" dominant-baseline="text-before-edge">UI</text><text x="54.669944763183594" y="25" font-family="Virgil, Segoe UI Emoji" font-size="20px" fill="#000000" text-anchor="middle" style="white-space: pre;" direction="ltr" dominant-baseline="text-before-edge">Components</text></g><g stroke-linecap="round" transform="translate(474.41937255859375 10) rotate(0 85.5 70.5)"><path d="M95.3 0.15 C106.55 0.16, 119.06 5.39, 128.91 10.14 C138.76 14.88, 147.79 20.97, 154.39 28.63 C161 36.28, 166.03 46.74, 168.52 56.06 C171.01 65.38, 171.73 75.28, 169.31 84.54 C166.9 93.8, 160.97 103.85, 154.04 111.6 C147.11 119.36, 137.69 126.2, 127.73 131.07 C117.77 135.94, 105.87 139.78, 94.28 140.82 C82.69 141.86, 69.05 140.31, 58.18 137.33 C47.31 134.35, 37.56 129.21, 29.05 122.94 C20.54 116.67, 11.99 108.54, 7.12 99.7 C2.25 90.86, -0.27 79.63, -0.17 69.92 C-0.08 60.2, 3.06 50.12, 7.71 41.41 C12.36 32.7, 19.35 24.08, 27.75 17.64 C36.15 11.2, 46.26 5.64, 58.1 2.78 C69.95 -0.07, 91.28 0.56, 98.84 0.53 C106.39 0.5, 103.67 1.39, 103.44 2.61 M71.89 -0.27 C82.03 -2.94, 93.66 -0.43, 104.59 2.02 C115.53 4.47, 127.98 8.4, 137.47 14.43 C146.97 20.47, 156.15 29.51, 161.57 38.21 C166.99 46.92, 169.49 57.35, 169.98 66.69 C170.46 76.02, 168.09 85.19, 164.47 94.22 C160.84 103.25, 156.19 114.15, 148.23 120.87 C140.27 127.59, 127.67 131.43, 116.7 134.54 C105.74 137.65, 94.02 139.4, 82.43 139.52 C70.84 139.65, 57.53 139.47, 47.17 135.3 C36.8 131.12, 27.69 122.2, 20.26 114.46 C12.83 106.71, 5.6 97.95, 2.58 88.83 C-0.43 79.7, 0.49 68.77, 2.16 59.69 C3.83 50.6, 6.55 42.45, 12.6 34.33 C18.65 26.2, 28.63 16.48, 38.47 10.95 C48.31 5.42, 66.35 2.39, 71.64 1.15 C76.92 -0.09, 70.04 2.25, 70.2 3.49" stroke="#000000" stroke-width="1" fill="none"></path></g><g transform="translate(521.8617824399955 55.648971926348395) rotate(0 38.09996032714844 25)"><text x="38.09996032714844" y="0" font-family="Virgil, Segoe UI Emoji" font-size="20px" fill="#000000" text-anchor="middle" style="white-space: pre;" direction="ltr" dominant-baseline="text-before-edge">Fonts, </text><text x="38.09996032714844" y="25" font-family="Virgil, Segoe UI Emoji" font-size="20px" fill="#000000" text-anchor="middle" style="white-space: pre;" direction="ltr" dominant-baseline="text-before-edge">Colors...</text></g><g stroke-linecap="round" transform="translate(659.4530639648438 14.954071044921875) rotate(0 85.5 70.5)"><path d="M106.97 2.18 C117.96 3.28, 129.65 9.2, 138.84 15.23 C148.02 21.26, 156.67 29.71, 162.09 38.34 C167.5 46.97, 170.61 57.42, 171.34 67.02 C172.07 76.62, 170.55 87.22, 166.47 95.94 C162.4 104.65, 155.25 112.58, 146.9 119.31 C138.54 126.05, 127.11 132.65, 116.34 136.32 C105.57 140, 93.67 141.9, 82.27 141.35 C70.88 140.79, 58.44 137.25, 47.96 132.99 C37.47 128.73, 26.84 123.2, 19.38 115.77 C11.93 108.34, 6.13 97.56, 3.22 88.41 C0.31 79.25, 0.09 70.24, 1.93 60.82 C3.77 51.39, 8.06 40, 14.27 31.87 C20.48 23.73, 29.7 17.16, 39.18 12.03 C48.67 6.89, 59.24 2.43, 71.16 1.08 C83.07 -0.27, 103.44 3.03, 110.67 3.92 C117.89 4.81, 115 5.54, 114.5 6.42 M70.89 1.04 C81.75 -1.88, 95.36 -1.83, 106.43 0.59 C117.5 3.01, 127.98 9.22, 137.29 15.55 C146.61 21.88, 156.83 30.47, 162.33 38.59 C167.83 46.71, 169.8 54.75, 170.31 64.28 C170.82 73.8, 169.49 86.46, 165.4 95.72 C161.31 104.97, 153.47 113.25, 145.77 119.83 C138.07 126.4, 129.52 131.45, 119.21 135.17 C108.91 138.88, 95.57 142.26, 83.93 142.13 C72.3 142, 60.11 138.82, 49.4 134.38 C38.69 129.95, 27.55 122.95, 19.66 115.5 C11.77 108.06, 5.38 98.99, 2.06 89.69 C-1.27 80.38, -1.91 69.3, -0.29 59.68 C1.33 50.05, 5.29 40.01, 11.8 31.94 C18.32 23.88, 28.83 16.62, 38.8 11.27 C48.77 5.93, 66.19 1.48, 71.63 -0.12 C77.07 -1.72, 71.29 0.5, 71.45 1.67" stroke="#000000" stroke-width="1" fill="none"></path></g><g transform="translate(710.6354640806205 73.10304297127027) rotate(0 34.35997009277344 12.5)"><text x="34.35997009277344" y="0" font-family="Virgil, Segoe UI Emoji" font-size="20px" fill="#000000" text-anchor="middle" style="white-space: pre;" direction="ltr" dominant-baseline="text-before-edge">Images</text></g><g stroke-linecap="round"><g transform="translate(389.80718994140625 151.8457489013672) rotate(0 75.77619789991525 56.06962649390104)"><path d="M0.83 0.07 C25.99 18.51, 126.52 92.93, 151.75 111.82 M-0.2 -0.93 C24.73 18.17, 125.44 94.31, 150.74 113.07" stroke="#000000" stroke-width="1" fill="none"></path></g></g><mask></mask><g stroke-linecap="round"><g transform="translate(552.3110961914062 153.9347381591797) rotate(0 -5.818927962742805 56.30100026424975)"><path d="M-0.2 -0.63 C-1.82 17.91, -8.97 93.02, -10.56 112.15 M-1.77 1.66 C-3.45 20.24, -10.05 94.77, -11.44 113.23" stroke="#000000" stroke-width="1" fill="none"></path></g></g><mask></mask><g stroke-linecap="round"><g transform="translate(720.2106323242188 154.29258728027344) rotate(0 -89.98071996085343 55.802457868885256)"><path d="M0.35 0.28 C-29.53 18.95, -150.4 92.6, -180.31 111 M-0.92 -0.63 C-30.37 18.29, -148.37 93.55, -178.19 112.23" stroke="#000000" stroke-width="1" fill="none"></path></g></g><mask></mask><g stroke-linecap="round" transform="translate(10 360.0959930419922) rotate(0 128.79898071289062 49.1124267578125)"><path d="M24.56 0 M24.56 0 C101.14 1.33, 177.21 2.4, 233.04 0 M24.56 0 C92.05 -0.62, 158.44 -0.08, 233.04 0 M233.04 0 C250.07 1.26, 259.14 8.21, 257.6 24.56 M233.04 0 C251.31 -0.21, 256.57 6.1, 257.6 24.56 M257.6 24.56 C258.89 35.14, 256.9 47.15, 257.6 73.67 M257.6 24.56 C257.81 35.68, 256.37 45.17, 257.6 73.67 M257.6 73.67 C255.68 91.28, 248.6 98.95, 233.04 98.22 M257.6 73.67 C257.78 87.98, 249.4 99.88, 233.04 98.22 M233.04 98.22 C170.36 96.14, 108.75 97.47, 24.56 98.22 M233.04 98.22 C153.65 97.74, 75.07 97.79, 24.56 98.22 M24.56 98.22 C9.59 99.98, 1.49 89.92, 0 73.67 M24.56 98.22 C8.29 98.17, -0.49 90.59, 0 73.67 M0 73.67 C0.54 56.22, 1.81 35.77, 0 24.56 M0 73.67 C0.12 60.2, -0.48 49.18, 0 24.56 M0 24.56 C-0.37 8.93, 8.19 1.17, 24.56 0 M0 24.56 C0.52 6.66, 7.12 1.22, 24.56 0" stroke="#000000" stroke-width="1" fill="none"></path></g><g stroke-linecap="round" transform="translate(838.950439453125 362.5901336669922) rotate(0 128.79898071289062 49.1124267578125)"><path d="M24.56 0 M24.56 0 C89.15 0.4, 156.67 0.01, 233.04 0 M24.56 0 C105.98 -2.12, 187.96 -1.77, 233.04 0 M233.04 0 C248.11 -0.01, 257.19 8.17, 257.6 24.56 M233.04 0 C250.22 0.72, 259.34 10.15, 257.6 24.56 M257.6 24.56 C256.19 43.76, 259.53 59.82, 257.6 73.67 M257.6 24.56 C258.02 35.87, 257.66 47.22, 257.6 73.67 M257.6 73.67 C256.56 91.37, 248.32 97.16, 233.04 98.22 M257.6 73.67 C256.27 91.7, 247.51 99.37, 233.04 98.22 M233.04 98.22 C183.62 98.71, 136.21 98.96, 24.56 98.22 M233.04 98.22 C164.91 96.29, 97.39 97.13, 24.56 98.22 M24.56 98.22 C9.81 97.46, 0.64 90.35, 0 73.67 M24.56 98.22 C7.09 98.71, 1.19 90.58, 0 73.67 M0 73.67 C1.47 57.49, -0.83 43.4, 0 24.56 M0 73.67 C0.66 57.24, 0.12 42.92, 0 24.56 M0 24.56 C-1.84 8.98, 9.08 1.75, 24.56 0 M0 24.56 C-2.07 8.81, 9.88 1.47, 24.56 0" stroke="#000000" stroke-width="1" fill="none"></path></g><g transform="translate(63.06561279296875 396.8511199951172) rotate(0 75.13993072509766 12.5)"><text x="0" y="0" font-family="Virgil, Segoe UI Emoji" font-size="20px" fill="#000000" text-anchor="start" style="white-space: pre;" direction="ltr" dominant-baseline="text-before-edge">Monitoring Repo</text></g><g transform="translate(898.5415649414062 397.0289764404297) rotate(0 61.02995300292969 12.5)"><text x="0" y="0" font-family="Virgil, Segoe UI Emoji" font-size="20px" fill="#000000" text-anchor="start" style="white-space: pre;" direction="ltr" dominant-baseline="text-before-edge">CI App Repo</text></g></svg>