<svg width="1105" height="167" viewBox="0 0 1105 167" fill="none" xmlns="http://www.w3.org/2000/svg">
  <g clip-path="url(#clip0_10169_10921)">
    <path
      d="M256.491 14.0557V67.6147C248.926 60.3295 238.649 55.842 227.319 55.842C204.108 55.842 185.291 74.6314 185.291 97.8074C185.291 120.984 204.108 139.773 227.319 139.773C249.565 139.773 267.766 122.505 269.234 100.661L269.346 100.807V14.0557H256.491ZM227.319 126.937C211.203 126.937 198.146 113.9 198.146 97.8074C198.146 81.7151 211.203 68.6778 227.319 68.6778C243.435 68.6778 256.491 81.7151 256.491 97.8074C256.491 113.9 243.435 126.937 227.319 126.937Z"
      fill="#101F39"
    />
    <path
      d="M518.687 55.842C496.441 55.842 478.24 73.1094 476.772 94.9538L476.66 94.8083V167H489.515V128C497.08 135.285 507.357 139.773 518.687 139.773C541.898 139.773 560.715 120.984 560.715 97.8075C560.715 74.6314 541.898 55.842 518.687 55.842ZM518.687 126.937C502.571 126.937 489.515 113.9 489.515 97.8075C489.515 81.7151 502.571 68.6779 518.687 68.6779C534.804 68.6779 547.86 81.7151 547.86 97.8075C547.86 113.9 534.804 126.937 518.687 126.937Z"
      fill="#101F39"
    />
    <path
      d="M326.291 55.9651C303.148 55.9651 284.386 74.6985 284.386 97.8074C284.386 120.916 303.148 139.65 326.291 139.65C339.112 139.65 350.588 133.898 358.265 124.833L350.622 116.037C345.074 123.412 336.243 128.179 326.291 128.179C310.802 128.179 298.026 116.619 296.121 101.668H353.088H358.613H364.642C364.754 100.392 364.833 99.1055 364.833 97.8074C364.833 74.6985 349.434 55.9651 326.291 55.9651ZM296.771 90.4886C300.054 77.25 312.024 67.4356 326.302 67.4356C340.58 67.4356 349.187 77.25 352.46 90.4886H296.771Z"
      fill="#101F39"
    />
    <path
      d="M420.926 55.9651C397.783 55.9651 379.021 74.6985 379.021 97.8074C379.021 120.916 397.783 139.65 420.926 139.65C433.747 139.65 445.223 133.898 452.9 124.833L445.257 116.037C439.709 123.412 430.878 128.179 420.926 128.179C405.437 128.179 392.661 116.619 390.756 101.668H447.723H453.248H459.277C459.389 100.392 459.468 99.1055 459.468 97.8074C459.468 74.6985 444.069 55.9651 420.926 55.9651ZM391.406 90.4886C394.689 77.25 406.659 67.4356 420.937 67.4356C435.215 67.4356 443.822 77.25 447.095 90.4886H391.406Z"
      fill="#101F39"
    />
    <path
      d="M737.096 88.6198V138.788H732.154V88.6198C732.154 80.9429 729.98 74.7432 725.642 70.0319C721.305 65.3205 715.511 62.9593 708.26 62.9593C700.784 62.9593 694.643 65.3765 689.812 70.1997C684.982 75.023 682.561 81.1667 682.561 88.6198V138.788H677.619V15.4097H682.561V72.4938C687.941 62.9481 696.57 58.1808 708.428 58.1808C717.214 58.1808 724.185 60.9785 729.352 66.5739C734.519 72.1693 737.096 79.5105 737.096 88.6198Z"
      fill="#101F39"
    />
    <path
      d="M938.918 138.788V15.4097H943.861V138.788H938.918ZM953.746 94.5397L995.594 138.788H989.004L946.987 94.3718L984.711 59.8259H991.795L953.746 94.5397Z"
      fill="#101F39"
    />
    <path
      d="M1004.65 121.655L1008.61 118.689C1015.86 128.996 1024.53 134.155 1034.64 134.155C1040.46 134.155 1045.21 132.756 1048.88 129.959C1052.56 127.161 1054.4 123.244 1054.4 118.197C1054.07 113.486 1052.64 109.972 1050.12 107.667C1047.6 105.361 1043.03 102.731 1036.44 99.7659L1029.53 96.6436C1022.83 93.6781 1017.94 90.7237 1014.87 87.7582C1011.8 84.7926 1010.25 80.9542 1010.25 76.2428C1010.25 70.211 1012.62 65.4997 1017.34 62.0977C1022.05 58.4831 1027.71 56.6702 1034.3 56.6702C1044.08 56.6702 1052.37 60.8891 1059.18 69.3381L1055.56 72.6282C1049.3 65.1752 1042.1 61.4374 1033.98 61.4374C1028.71 61.4374 1024.32 62.7244 1020.8 65.2983C1017.28 67.8721 1015.53 71.4644 1015.53 76.075C1015.64 77.9438 1016 79.5553 1016.61 80.9318C1017.21 82.3082 1017.73 83.3714 1018.18 84.1435C1018.61 84.9157 1019.79 85.8669 1021.72 87.0196C1023.63 88.1722 1025.01 88.9444 1025.83 89.3249C1026.66 89.7053 1028.77 90.7237 1032.17 92.3688L1039.58 95.6588C1046.4 98.6244 1051.44 101.747 1054.74 105.037C1058.03 108.327 1059.68 112.602 1059.68 117.873C1059.68 124.453 1057.2 129.612 1052.26 133.338C1047.43 137.065 1041.44 138.934 1034.3 138.934C1022 138.934 1012.11 133.17 1004.65 121.655Z"
      fill="#101F39"
    />
    <path
      d="M655.103 121.028C648.435 129.007 638.416 134.077 627.197 134.077C607.136 134.077 590.874 117.839 590.874 97.8073C590.874 77.7758 607.136 61.538 627.197 61.538C638.348 61.538 648.323 66.5627 654.991 74.4634L658.6 71.4307C651.069 62.5116 639.805 56.8379 627.208 56.8379C604.536 56.8379 586.167 75.1908 586.167 97.8185C586.167 120.457 604.547 138.799 627.208 138.799C639.906 138.799 651.259 133.036 658.779 123.994L655.103 121.028Z"
      fill="#101F39"
    />
    <path
      d="M916.122 121.028C909.454 129.007 899.435 134.077 888.216 134.077C868.155 134.077 851.893 117.839 851.893 97.8073C851.893 77.7758 868.155 61.538 888.216 61.538C899.367 61.538 909.342 66.5627 916.01 74.4634L919.619 71.4307C912.088 62.5116 900.824 56.8379 888.227 56.8379C865.555 56.8379 847.186 75.1908 847.186 97.8185C847.186 120.457 865.566 138.799 888.227 138.799C900.925 138.799 912.278 133.036 919.798 123.994L916.122 121.028Z"
      fill="#101F39"
    />
    <path
      d="M795.318 56.8157C772.646 56.8157 754.277 75.1686 754.277 97.7963C754.277 120.424 772.657 138.777 795.318 138.777C808.072 138.777 819.47 132.969 827.002 123.848L823.393 120.648C816.747 128.772 806.638 133.965 795.318 133.965C775.313 133.965 759.096 117.772 759.096 97.7963H827.058H830.162H831.877C831.877 75.1686 817.98 56.8157 795.318 56.8157ZM759.388 93.2752C761.618 75.4371 776.849 61.6277 795.318 61.6277C813.788 61.6277 824.536 75.4371 826.766 93.2752H759.388Z"
      fill="#101F39"
    />
    <path
      d="M37.6007 76.5673L37.7127 76.7128C39.1921 54.8684 57.3816 37.601 79.6282 37.601C79.6394 37.601 79.6507 37.601 79.6507 37.601C79.6619 37.601 79.6731 37.601 79.6731 37.601C91.0037 37.601 101.292 42.0885 108.846 49.3737V5.52824C99.8239 1.96958 89.9838 0 79.6843 0C35.673 0 0 35.6202 0 79.5664C0 108.081 15.0291 133.081 37.6007 147.125V76.5673Z"
      fill="#00E6FF"
    />
    <path
      d="M121.712 11.9741V82.5767L121.6 82.4313C120.132 104.276 101.931 121.543 79.6842 121.543C79.673 121.543 79.6618 121.543 79.6618 121.543C79.6506 121.543 79.6394 121.543 79.6394 121.543C68.3088 121.543 58.0204 117.056 50.4667 109.77V153.605C59.5222 157.174 69.3735 159.155 79.6954 159.155C123.707 159.155 159.38 123.535 159.38 79.5888C159.38 51.0299 144.317 26.0185 121.712 11.9741Z"
      fill="#007AFF"
    />
    <path
      d="M104.004 63.4852C103.746 64.8393 103.276 66.171 102.547 67.4244C99.0618 73.4562 91.3511 75.5153 85.3104 72.035C79.2696 68.5546 77.2074 60.8554 80.6929 54.8236C81.6456 53.1785 82.9232 51.8356 84.3802 50.8173C82.856 50.5711 81.2869 50.4368 79.6843 50.4368C63.5681 50.4368 50.5115 63.474 50.5115 79.5664C50.5115 95.6587 63.5793 108.696 79.6843 108.696C95.7892 108.696 108.857 95.6587 108.857 79.5664C108.857 73.6241 107.075 68.0958 104.004 63.4852Z"
      fill="#9D60FB"
    />
    <path
      d="M1092.37 138.934C1099.34 138.934 1104.99 133.292 1104.99 126.333C1104.99 119.374 1099.34 113.732 1092.37 113.732C1085.4 113.732 1079.75 119.374 1079.75 126.333C1079.75 133.292 1085.4 138.934 1092.37 138.934Z"
      fill="#9D60FB"
    />
  </g>
  <defs>
    <clipPath id="clip0_10169_10921">
      <rect width="1105" height="167" fill="white" />
    </clipPath>
  </defs>
</svg>
