<svg width="40" height="40" viewBox="0 0 40 40" fill="none" xmlns="http://www.w3.org/2000/svg">
<g clip-path="url(#clip0_859_17074)">
<path d="M9.5 19.5C9.5 10.0287 20.5 6 27 12.5V1.39028C24.762 0.495322 22.3211 0 19.7663 0C8.84895 0 0 8.95801 0 20.0099C0 27.1808 3.72807 33.468 9.32712 37H9.5V19.5Z" fill="#42CBE9"/>
<path d="M30.5 20.5C30.5 29.9713 19.5 34 13 27.5V38.6097C15.238 39.5047 17.6789 40 20.2337 40C31.1511 40 40 31.042 40 19.9901C40 12.8192 36.2719 6.53198 30.6729 3H30.5V20.5Z" fill="#007AFF"/>
<path d="M25.8356 16.1356C25.7737 16.461 25.6608 16.781 25.486 17.0822C24.6496 18.5317 22.7995 19.0265 21.35 18.1902C19.9005 17.3538 19.4057 15.5037 20.242 14.0542C20.4706 13.6589 20.7772 13.3362 21.1268 13.0914C20.761 13.0323 20.3846 13 20 13C16.1329 13 13 16.1329 13 20C13 23.8671 16.1356 27 20 27C23.8644 27 27 23.8671 27 20C27 18.572 26.5724 17.2436 25.8356 16.1356Z" fill="#7964FF"/>
</g>
<defs>
<clipPath id="clip0_859_17074">
<rect width="40" height="40" fill="white"/>
</clipPath>
</defs>
</svg>
