<svg width="192" height="39" viewBox="0 0 192 39" fill="none" xmlns="http://www.w3.org/2000/svg">
<g clip-path="url(#clip0_2413_47070)">
<path d="M44.5668 3.33838V12.6446C43.2523 11.3787 41.4666 10.599 39.4978 10.599C35.4649 10.599 32.1953 13.8637 32.1953 17.8907C32.1953 21.9177 35.4649 25.1825 39.4978 25.1825C43.3633 25.1825 46.5258 22.1821 46.7809 18.3866L46.8004 18.4118V3.33838H44.5668ZM39.4978 22.9522C36.6976 22.9522 34.4289 20.6869 34.4289 17.8907C34.4289 15.0946 36.6976 12.8293 39.4978 12.8293C42.2981 12.8293 44.5668 15.0946 44.5668 17.8907C44.5668 20.6869 42.2981 22.9522 39.4978 22.9522Z" fill="#101F39"/>
<path d="M90.1248 10.5986C86.2593 10.5986 83.0968 13.5989 82.8417 17.3945L82.8223 17.3692V29.913H85.0559V23.1365C86.3703 24.4024 88.156 25.1821 90.1248 25.1821C94.1577 25.1821 97.4273 21.9173 97.4273 17.8904C97.4273 13.8634 94.1577 10.5986 90.1248 10.5986ZM90.1248 22.9518C87.3245 22.9518 85.0559 20.6865 85.0559 17.8904C85.0559 15.0942 87.3245 12.8289 90.1248 12.8289C92.9251 12.8289 95.1937 15.0942 95.1937 17.8904C95.1937 20.6865 92.9251 22.9518 90.1248 22.9518Z" fill="#101F39"/>
<path d="M56.6952 10.6201C52.6739 10.6201 49.4141 13.8751 49.4141 17.8905C49.4141 21.9058 52.6739 25.1608 56.6952 25.1608C58.9229 25.1608 60.917 24.1613 62.2509 22.5863L60.9228 21.058C59.9589 22.3394 58.4244 23.1677 56.6952 23.1677C54.0039 23.1677 51.784 21.1591 51.4529 18.5613H61.3513H62.3113H63.359C63.3784 18.3396 63.3921 18.116 63.3921 17.8905C63.3921 13.8751 60.7164 10.6201 56.6952 10.6201ZM51.5659 16.6188C52.1364 14.3185 54.2162 12.6132 56.6971 12.6132C59.178 12.6132 60.6736 14.3185 61.2422 16.6188H51.5659Z" fill="#101F39"/>
<path d="M73.1385 10.6201C69.1173 10.6201 65.8574 13.8751 65.8574 17.8905C65.8574 21.9058 69.1173 25.1608 73.1385 25.1608C75.3663 25.1608 77.3604 24.1613 78.6943 22.5863L77.3662 21.058C76.4023 22.3394 74.8678 23.1677 73.1385 23.1677C70.4473 23.1677 68.2273 21.1591 67.8963 18.5613H77.7946H78.7547H79.8023C79.8218 18.3396 79.8354 18.116 79.8354 17.8905C79.8354 13.8751 77.1598 10.6201 73.1385 10.6201ZM68.0092 16.6188C68.5798 14.3185 70.6596 12.6132 73.1405 12.6132C75.6214 12.6132 77.1169 14.3185 77.6856 16.6188H68.0092Z" fill="#101F39"/>
<path d="M128.075 16.2939V25.0109H127.216V16.2939C127.216 14.96 126.838 13.8828 126.085 13.0642C125.331 12.2455 124.324 11.8353 123.064 11.8353C121.765 11.8353 120.698 12.2553 119.859 13.0933C119.02 13.9314 118.599 14.9989 118.599 16.2939V25.0109H117.74V3.57324H118.599V13.4919C119.534 11.8333 121.033 11.005 123.093 11.005C124.62 11.005 125.831 11.4911 126.729 12.4633C127.627 13.4355 128.075 14.7111 128.075 16.2939Z" fill="#101F39"/>
<path d="M163.143 25.0109V3.57324H164.001V25.0109H163.143ZM165.719 17.3225L172.99 25.0109H171.845L164.545 17.2934L171.099 11.2908H172.33L165.719 17.3225Z" fill="#101F39"/>
<path d="M174.563 22.0342L175.251 21.5189C176.511 23.3097 178.018 24.2061 179.775 24.2061C180.785 24.2061 181.611 23.9631 182.25 23.477C182.888 22.9908 183.208 22.3103 183.208 21.4333C183.151 20.6147 182.902 20.0041 182.464 19.6036C182.026 19.203 181.233 18.7461 180.088 18.2308L178.887 17.6883C177.722 17.173 176.873 16.6597 176.339 16.1444C175.806 15.6291 175.537 14.9622 175.537 14.1435C175.537 13.0955 175.948 12.2769 176.768 11.6857C177.588 11.0577 178.571 10.7427 179.716 10.7427C181.414 10.7427 182.855 11.4757 184.039 12.9438L183.41 13.5155C182.322 12.2205 181.071 11.571 179.66 11.571C178.744 11.571 177.981 11.7946 177.37 12.2419C176.758 12.6891 176.454 13.3133 176.454 14.1144C176.474 14.4391 176.536 14.7191 176.641 14.9583C176.746 15.1974 176.836 15.3822 176.914 15.5163C176.99 15.6505 177.194 15.8158 177.529 16.0161C177.862 16.2163 178.102 16.3505 178.244 16.4166C178.388 16.4827 178.754 16.6597 179.346 16.9455L180.633 17.5172C181.817 18.0325 182.694 18.575 183.266 19.1466C183.839 19.7183 184.125 20.4611 184.125 21.3769C184.125 22.5203 183.695 23.4167 182.836 24.0642C181.996 24.7117 180.957 25.0364 179.716 25.0364C177.578 25.0364 175.86 24.035 174.563 22.0342Z" fill="#101F39"/>
<path d="M113.828 21.9254C112.67 23.3118 110.929 24.1926 108.979 24.1926C105.494 24.1926 102.668 21.3712 102.668 17.8906C102.668 14.4101 105.494 11.5886 108.979 11.5886C110.917 11.5886 112.65 12.4617 113.809 13.8345L114.436 13.3076C113.127 11.7578 111.17 10.772 108.981 10.772C105.042 10.772 101.85 13.9609 101.85 17.8926C101.85 21.8262 105.044 25.0132 108.981 25.0132C111.188 25.0132 113.16 24.0118 114.467 22.4407L113.828 21.9254Z" fill="#101F39"/>
<path d="M159.182 21.9254C158.023 23.3118 156.282 24.1926 154.333 24.1926C150.847 24.1926 148.021 21.3712 148.021 17.8906C148.021 14.4101 150.847 11.5886 154.333 11.5886C156.27 11.5886 158.004 12.4617 159.162 13.8345L159.789 13.3076C158.481 11.7578 156.524 10.772 154.335 10.772C150.395 10.772 147.204 13.9609 147.204 17.8926C147.204 21.8262 150.397 25.0132 154.335 25.0132C156.541 25.0132 158.514 24.0118 159.82 22.4407L159.182 21.9254Z" fill="#101F39"/>
<path d="M138.191 10.7676C134.252 10.7676 131.06 13.9565 131.06 17.8882C131.06 21.8199 134.254 25.0088 138.191 25.0088C140.407 25.0088 142.388 23.9996 143.696 22.4149L143.069 21.8588C141.915 23.2705 140.158 24.1727 138.191 24.1727C134.715 24.1727 131.897 21.3591 131.897 17.8882H143.706H144.245H144.543C144.543 13.9565 142.129 10.7676 138.191 10.7676ZM131.948 17.1026C132.336 14.0032 134.982 11.6037 138.191 11.6037C141.4 11.6037 143.268 14.0032 143.655 17.1026H131.948Z" fill="#101F39"/>
<path d="M6.53333 14.2L6.5528 14.2253C6.80985 10.4297 9.97039 7.42939 13.8359 7.42939C13.8378 7.42939 13.8398 7.42939 13.8398 7.42939C13.8417 7.42939 13.8436 7.42939 13.8436 7.42939C15.8124 7.42939 17.6001 8.20912 18.9126 9.47496V1.85656C17.345 1.23822 15.6352 0.895996 13.8456 0.895996C6.19839 0.895996 0 7.08522 0 14.7211C0 19.6756 2.61138 24.0195 6.53333 26.4598V14.2Z" fill="#00E6FF"/>
<path d="M21.1483 2.97656V15.2442L21.1288 15.2189C20.8737 19.0145 17.7112 22.0148 13.8458 22.0148C13.8438 22.0148 13.8419 22.0148 13.8419 22.0148C13.8399 22.0148 13.838 22.0148 13.838 22.0148C11.8692 22.0148 10.0816 21.2351 8.76904 19.9692V27.5857C10.3425 28.2059 12.0542 28.5501 13.8477 28.5501C21.4949 28.5501 27.6933 22.3609 27.6933 14.725C27.6933 9.76273 25.0761 5.41686 21.1483 2.97656Z" fill="#007AFF"/>
<path d="M18.0715 11.9269C18.0267 12.1622 17.9449 12.3936 17.8184 12.6114C17.2127 13.6594 15.873 14.0172 14.8233 13.4125C13.7737 12.8078 13.4154 11.47 14.021 10.4219C14.1866 10.1361 14.4086 9.90273 14.6617 9.72578C14.3969 9.683 14.1243 9.65967 13.8458 9.65967C11.0455 9.65967 8.77686 11.925 8.77686 14.7211C8.77686 17.5172 11.0475 19.7825 13.8458 19.7825C16.6441 19.7825 18.9147 17.5172 18.9147 14.7211C18.9147 13.6886 18.6051 12.728 18.0715 11.9269Z" fill="#9D60FB"/>
<path d="M189.806 25.0366C191.017 25.0366 191.998 24.0564 191.998 22.8472C191.998 21.638 191.017 20.6577 189.806 20.6577C188.595 20.6577 187.613 21.638 187.613 22.8472C187.613 24.0564 188.595 25.0366 189.806 25.0366Z" fill="#9D60FB"/>
<path d="M127.142 37.3701V30.9775H127.981L130.298 35.7853L132.602 30.9775H133.45V37.3657H132.571V32.993L130.507 37.3701H130.085L128.016 32.993V37.3701H127.142ZM137.539 37.5033C136.9 37.5033 136.355 37.3642 135.905 37.086C135.456 36.8048 135.111 36.4142 134.871 35.914C134.634 35.4139 134.516 34.8338 134.516 34.1738C134.516 33.5138 134.634 32.9338 134.871 32.4336C135.111 31.9334 135.456 31.5443 135.905 31.2661C136.355 30.9849 136.9 30.8443 137.539 30.8443C138.175 30.8443 138.719 30.9849 139.168 31.2661C139.621 31.5443 139.966 31.9334 140.203 32.4336C140.439 32.9338 140.558 33.5138 140.558 34.1738C140.558 34.8338 140.439 35.4139 140.203 35.914C139.966 36.4142 139.621 36.8048 139.168 37.086C138.719 37.3642 138.175 37.5033 137.539 37.5033ZM137.539 36.6199C137.992 36.6258 138.368 36.5266 138.667 36.3224C138.969 36.1153 139.195 35.8282 139.346 35.4612C139.497 35.0913 139.572 34.6621 139.572 34.1738C139.572 33.6855 139.497 33.2593 139.346 32.8953C139.195 32.5283 138.969 32.2427 138.667 32.0385C138.368 31.8343 137.992 31.7307 137.539 31.7278C137.086 31.7218 136.709 31.821 136.407 32.0252C136.108 32.2294 135.883 32.5165 135.732 32.8864C135.581 33.2564 135.504 33.6855 135.501 34.1738C135.499 34.6621 135.573 35.0898 135.723 35.4568C135.874 35.8208 136.101 36.1049 136.403 36.3091C136.708 36.5133 137.086 36.6169 137.539 36.6199ZM141.621 37.3701V30.9775H142.562L145.71 35.7276V30.9775H146.651V37.3701H145.71L142.562 32.6156V37.3701H141.621ZM148.156 37.3701V30.9775H149.084V37.3701H148.156ZM152.188 37.3701V31.8521H150.062V30.9775H155.243V31.8521H153.116V37.3701H152.188ZM158.799 37.5033C158.159 37.5033 157.615 37.3642 157.165 37.086C156.715 36.8048 156.37 36.4142 156.131 35.914C155.894 35.4139 155.775 34.8338 155.775 34.1738C155.775 33.5138 155.894 32.9338 156.131 32.4336C156.37 31.9334 156.715 31.5443 157.165 31.2661C157.615 30.9849 158.159 30.8443 158.799 30.8443C159.435 30.8443 159.978 30.9849 160.428 31.2661C160.881 31.5443 161.225 31.9334 161.462 32.4336C161.699 32.9338 161.817 33.5138 161.817 34.1738C161.817 34.8338 161.699 35.4139 161.462 35.914C161.225 36.4142 160.881 36.8048 160.428 37.086C159.978 37.3642 159.435 37.5033 158.799 37.5033ZM158.799 36.6199C159.251 36.6258 159.627 36.5266 159.926 36.3224C160.228 36.1153 160.454 35.8282 160.605 35.4612C160.756 35.0913 160.832 34.6621 160.832 34.1738C160.832 33.6855 160.756 33.2593 160.605 32.8953C160.454 32.5283 160.228 32.2427 159.926 32.0385C159.627 31.8343 159.251 31.7307 158.799 31.7278C158.346 31.7218 157.968 31.821 157.667 32.0252C157.368 32.2294 157.143 32.5165 156.992 32.8864C156.841 33.2564 156.764 33.6855 156.761 34.1738C156.758 34.6621 156.832 35.0898 156.983 35.4568C157.134 35.8208 157.36 36.1049 157.662 36.3091C157.967 36.5133 158.346 36.6169 158.799 36.6199ZM162.88 37.3701V30.9775H165.464C165.526 30.9775 165.603 30.9805 165.695 30.9864C165.787 30.9894 165.874 30.9982 165.957 31.013C166.312 31.0693 166.608 31.1906 166.845 31.3771C167.084 31.5635 167.263 31.7988 167.382 32.0829C167.5 32.367 167.559 32.6807 167.559 33.024C167.559 33.5331 167.429 33.9726 167.169 34.3425C166.908 34.7095 166.518 34.9389 165.997 35.0306L165.619 35.075H163.808V37.3701H162.88ZM166.618 37.3701L165.357 34.7687L166.294 34.529L167.679 37.3701H166.618ZM163.808 34.196H165.429C165.488 34.196 165.553 34.1931 165.624 34.1871C165.698 34.1812 165.767 34.1709 165.833 34.1561C166.022 34.1117 166.174 34.0303 166.29 33.9119C166.405 33.7906 166.488 33.6515 166.538 33.4946C166.589 33.3377 166.614 33.1809 166.614 33.024C166.614 32.8672 166.589 32.7118 166.538 32.5579C166.488 32.4011 166.405 32.2634 166.29 32.1451C166.174 32.0237 166.022 31.9408 165.833 31.8965C165.767 31.8787 165.698 31.8669 165.624 31.8609C165.553 31.855 165.488 31.8521 165.429 31.8521H163.808V34.196ZM168.921 37.3701V30.9775H169.849V37.3701H168.921ZM171.36 37.3701V30.9775H172.301L175.448 35.7276V30.9775H176.39V37.3701H175.448L172.301 32.6156V37.3701H171.36ZM180.421 37.5033C179.992 37.5033 179.597 37.4293 179.236 37.2813C178.875 37.1304 178.561 36.9114 178.294 36.6243C178.028 36.3372 177.821 35.988 177.673 35.5766C177.525 35.1653 177.451 34.6977 177.451 34.1738C177.451 33.4842 177.577 32.8923 177.828 32.3981C178.08 31.9009 178.429 31.5191 178.876 31.2528C179.323 30.9834 179.838 30.8488 180.421 30.8488C181.173 30.8488 181.772 31.0234 182.219 31.3726C182.669 31.7218 182.975 32.2042 183.138 32.8198L182.197 32.9885C182.066 32.6067 181.856 32.3019 181.566 32.074C181.276 31.8461 180.912 31.7307 180.474 31.7278C180.021 31.7248 179.644 31.8254 179.342 32.0296C179.043 32.2338 178.818 32.5209 178.667 32.8909C178.516 33.2578 178.439 33.6855 178.437 34.1738C178.434 34.6621 178.508 35.0898 178.658 35.4568C178.809 35.8208 179.036 36.1049 179.338 36.3091C179.643 36.5133 180.021 36.6169 180.474 36.6199C180.838 36.6258 181.15 36.5592 181.411 36.4201C181.674 36.278 181.883 36.0709 182.037 35.7986C182.191 35.5263 182.29 35.1919 182.334 34.7953H181.091V34.0495H183.32C183.326 34.1028 183.33 34.1738 183.333 34.2626C183.336 34.3484 183.338 34.4032 183.338 34.4269C183.338 35.0188 183.224 35.547 182.996 36.0117C182.768 36.4763 182.436 36.8418 182.001 37.1082C181.566 37.3716 181.039 37.5033 180.421 37.5033Z" fill="#9D60FB"/>
</g>
<defs>
<clipPath id="clip0_2413_47070">
<rect width="192" height="37.7341" fill="white" transform="translate(0 0.733887)"/>
</clipPath>
</defs>
</svg>
