<svg width="32" height="33" viewBox="0 0 32 33" fill="none" xmlns="http://www.w3.org/2000/svg">
<path d="M14.1473 29.2331L15.5614 27.8188L14.1473 29.2331C14.6389 29.7247 15.3037 30 15.9995 30C16.6982 30 17.3621 29.7226 17.8529 29.2319L16.4387 27.8176L17.8529 29.2319L29.2334 17.8523L27.8192 16.438L29.2334 17.8523C30.2583 16.8275 30.2532 15.1675 29.2322 14.1465L17.8517 2.76693C17.36 2.27535 16.6953 2 15.9995 2C15.3048 2 14.6383 2.27464 14.1449 2.77048L2.76675 14.1477L2.76325 14.1512C1.74752 15.172 1.74248 16.8293 2.76676 17.8535L14.1473 29.2331Z" fill="white" stroke="white" stroke-width="4"/>
<path opacity="0.13" d="M27.4904 16.426L16.4269 27.4895C16.3126 27.6038 16.1609 27.6668 15.9999 27.6668C15.8389 27.6668 15.6873 27.6038 15.5741 27.4907L4.51059 16.4272C4.27609 16.1927 4.27609 15.81 4.51059 15.5743L15.5741 4.51083C15.6873 4.3965 15.8389 4.3335 15.9999 4.3335C16.1609 4.3335 16.3126 4.3965 16.4258 4.50966L27.4893 15.5732C27.7249 15.8088 27.7249 16.1915 27.4904 16.426Z" fill="#EF4C36"/>
<path d="M15.9999 28.8334C15.5274 28.8334 15.0829 28.6491 14.7492 28.3154L3.68572 17.2519C2.99506 16.5624 2.99506 15.4401 3.68572 14.7494L14.7492 3.68595C15.4166 3.01745 16.5832 3.01745 17.2517 3.68595L28.3152 14.7494C29.0059 15.4389 29.0059 16.5613 28.3152 17.2519L17.2517 28.3154C16.9169 28.6491 16.4724 28.8334 15.9999 28.8334ZM5.73322 16.0001L15.9999 26.2668L26.2666 16.0001L15.9999 5.73345L5.73322 16.0001Z" fill="#EF4C36"/>
<path d="M14.8333 19.4998H17.1666V21.8332H14.8333V19.4998ZM14.8333 10.1665H17.1666V17.1665H14.8333V10.1665Z" fill="#EF4C36"/>
</svg>
