<svg width="61" height="60" viewBox="0 0 61 60" fill="none" xmlns="http://www.w3.org/2000/svg">
<path d="M49.1281 31.1133L31.0299 49.2099C30.8429 49.3969 30.5948 49.5 30.3314 49.5C30.0681 49.5 29.82 49.397 29.6348 49.2118L11.5367 31.1152C11.1531 30.7316 11.1531 30.1057 11.5367 29.7202L29.6348 11.6236C29.82 11.4365 30.0681 11.3335 30.3314 11.3335C30.5948 11.3335 30.8429 11.4365 31.028 11.6217L49.1262 29.7183C49.5117 30.1038 49.5117 30.7297 49.1281 31.1133Z" fill="#EF4C36"/>
<path d="M8.00133 26.1845L8.00134 26.1845L26.0942 8.09318C27.2218 6.9609 28.7458 6.3335 30.3314 6.3335C31.9203 6.3335 33.4403 6.96291 34.5634 8.08598C34.5634 8.08598 34.5634 8.08598 34.5634 8.08599L52.6615 26.1826C54.9936 28.5145 55.0062 32.3064 52.6635 34.649L49.1281 31.1133L52.6635 34.649L34.5653 52.7456C33.4454 53.8654 31.9276 54.5 30.3314 54.5C28.7426 54.5 27.2226 53.8706 26.0994 52.7475M8.00133 26.1845L26.0994 52.7475M8.00133 26.1845L7.99257 26.1933C5.67268 28.5246 5.66009 32.3098 8.00134 34.6509L26.0994 52.7475M8.00133 26.1845L26.0994 52.7475" stroke="#EF4C36" stroke-opacity="0.1" stroke-width="10"/>
<path d="M28.415 36.25H32.2484V40.0833H28.415V36.25ZM28.415 20.9167H32.2484V32.4167H28.415V20.9167Z" fill="white"/>
</svg>
