<svg width="653" height="143" viewBox="0 0 653 143" fill="none" xmlns="http://www.w3.org/2000/svg">
<path d="M150.886 8.1167V39.0561C146.437 34.8476 140.391 32.2554 133.725 32.2554C120.071 32.2554 109.001 43.1094 109.001 56.4975C109.001 69.8856 120.071 80.7397 133.725 80.7397C146.812 80.7397 157.519 70.765 158.383 58.1459L158.449 58.23V8.1167H150.886ZM133.725 73.3244C124.244 73.3244 116.563 65.7933 116.563 56.4975C116.563 47.2015 124.244 39.6702 133.725 39.6702C143.206 39.6702 150.886 47.2015 150.886 56.4975C150.886 65.7933 143.206 73.3244 133.725 73.3244Z" fill="#101F39"/>
<path d="M305.13 32.2554C292.043 32.2554 281.336 42.2302 280.472 54.849L280.406 54.765V96.4678H287.969V73.9389C292.419 78.1472 298.465 80.7395 305.13 80.7395C318.784 80.7395 329.854 69.8854 329.854 56.4974C329.854 43.1094 318.784 32.2554 305.13 32.2554ZM305.13 73.3248C295.649 73.3248 287.969 65.7936 287.969 56.4974C287.969 47.2014 295.649 39.6702 305.13 39.6702C314.611 39.6702 322.292 47.2014 322.292 56.4974C322.292 65.7936 314.611 73.3248 305.13 73.3248Z" fill="#101F39"/>
<path d="M191.948 32.3301C178.334 32.3301 167.297 43.1518 167.297 56.5011C167.297 69.8501 178.334 80.6719 191.948 80.6719C199.49 80.6719 206.242 77.3495 210.758 72.1131L206.261 67.0319C202.998 71.2919 197.803 74.046 191.948 74.046C182.837 74.046 175.32 67.3678 174.2 58.7314H207.712H210.962H214.509C214.576 57.9944 214.622 57.2509 214.622 56.5011C214.622 43.1518 205.563 32.3301 191.948 32.3301ZM174.582 52.2732C176.514 44.6257 183.555 38.9563 191.955 38.9563C200.354 38.9563 205.418 44.6257 207.343 52.2732H174.582Z" fill="#101F39"/>
<path d="M247.62 32.3301C234.005 32.3301 222.969 43.1518 222.969 56.5011C222.969 69.8501 234.005 80.6719 247.62 80.6719C255.162 80.6719 261.914 77.3495 266.43 72.1131L261.934 67.0319C258.67 71.2919 253.475 74.046 247.62 74.046C238.508 74.046 230.993 67.3678 229.872 58.7314H263.384H266.635H270.181C270.247 57.9944 270.294 57.2509 270.294 56.5011C270.294 43.1518 261.235 32.3301 247.62 32.3301ZM230.254 52.2732C232.186 44.6257 239.227 38.9563 247.627 38.9563C256.026 38.9563 261.09 44.6257 263.015 52.2732H230.254Z" fill="#101F39"/>
<path d="M433.618 51.1949V80.1758H430.71V51.1949C430.71 46.7603 429.432 43.1789 426.88 40.4574C424.329 37.7358 420.92 36.3718 416.654 36.3718C412.257 36.3718 408.644 37.7681 405.802 40.5543C402.961 43.3405 401.536 46.8896 401.536 51.1949V80.1758H398.629V8.90381H401.536V41.8795C404.702 36.3653 409.778 33.6114 416.753 33.6114C421.922 33.6114 426.023 35.2275 429.062 38.4598C432.102 41.6921 433.618 45.9328 433.618 51.1949Z" fill="#101F39"/>
<path d="M552.343 80.1758V8.90381H555.25V80.1758H552.343ZM561.066 54.6147L585.683 80.1758H581.807L557.09 54.5178L579.282 34.5616H583.449L561.066 54.6147Z" fill="#101F39"/>
<path d="M591.009 70.2776L593.337 68.5641C597.604 74.5182 602.704 77.4982 608.655 77.4982C612.076 77.4982 614.871 76.6906 617.034 75.0741C619.197 73.4582 620.278 71.1953 620.278 68.28C620.083 65.5582 619.244 63.5282 617.761 62.197C616.272 60.8653 613.589 59.3459 609.712 57.6328L605.647 55.8292C601.705 54.1161 598.827 52.4094 597.025 50.6963C595.216 48.9832 594.306 46.7659 594.306 44.0443C594.306 40.5599 595.695 37.8383 598.472 35.8731C601.25 33.785 604.577 32.7378 608.454 32.7378C614.204 32.7378 619.085 35.1749 623.091 40.0557L620.964 41.9563C617.276 37.6509 613.045 35.4917 608.264 35.4917C605.168 35.4917 602.58 36.2351 600.511 37.722C598.443 39.2088 597.415 41.2839 597.415 43.9473C597.48 45.0269 597.686 45.9578 598.047 46.753C598.402 47.5481 598.703 48.1622 598.969 48.6083C599.223 49.0543 599.92 49.6039 601.049 50.2697C602.178 50.9355 602.987 51.3816 603.472 51.6014C603.956 51.8211 605.197 52.4094 607.201 53.3597L611.562 55.2603C615.569 56.9734 618.535 58.777 620.474 60.6776C622.412 62.5782 623.381 65.0476 623.381 68.0923C623.381 71.8935 621.927 74.8735 619.02 77.0264C616.177 79.1794 612.655 80.2588 608.454 80.2588C601.214 80.2588 595.4 76.9294 591.009 70.2776Z" fill="#101F39"/>
<path d="M385.383 69.9159C381.46 74.5253 375.566 77.4541 368.967 77.4541C357.165 77.4541 347.598 68.0735 347.598 56.5022C347.598 44.9306 357.165 35.5506 368.967 35.5506C375.527 35.5506 381.394 38.4532 385.318 43.0172L387.44 41.2652C383.01 36.113 376.384 32.8354 368.973 32.8354C355.635 32.8354 344.83 43.4373 344.83 56.5087C344.83 69.5864 355.642 80.1817 368.973 80.1817C376.443 80.1817 383.122 76.8523 387.546 71.6294L385.383 69.9159Z" fill="#101F39"/>
<path d="M538.932 69.9159C535.01 74.5253 529.116 77.4541 522.516 77.4541C510.714 77.4541 501.148 68.0735 501.148 56.5022C501.148 44.9306 510.714 35.5506 522.516 35.5506C529.076 35.5506 534.944 38.4532 538.867 43.0172L540.99 41.2652C536.559 36.113 529.933 32.8354 522.523 32.8354C509.185 32.8354 498.379 43.4373 498.379 56.5087C498.379 69.5864 509.192 80.1817 522.523 80.1817C529.992 80.1817 536.671 76.8523 541.095 71.6294L538.932 69.9159Z" fill="#101F39"/>
<path d="M467.866 32.8184C454.528 32.8184 443.722 43.4202 443.722 56.4916C443.722 69.5631 454.534 80.1648 467.866 80.1648C475.368 80.1648 482.073 76.8095 486.504 71.5413L484.381 69.6925C480.471 74.3854 474.524 77.3848 467.866 77.3848C456.097 77.3848 446.557 68.0307 446.557 56.4916H486.537H488.363H489.372C489.372 43.4202 481.197 32.8184 467.866 32.8184ZM446.728 53.8799C448.04 43.5754 457 35.5981 467.866 35.5981C478.731 35.5981 485.053 43.5754 486.365 53.8799H446.728Z" fill="#101F39"/>
<path d="M22.1196 44.2305L22.1855 44.3145C23.0558 31.6957 33.7563 21.7209 46.8434 21.7209C46.85 21.7209 46.8566 21.7209 46.8566 21.7209C46.8632 21.7209 46.8697 21.7209 46.8697 21.7209C53.5353 21.7209 59.5879 24.3132 64.0312 28.5216V3.19349C58.724 1.13776 52.9354 0 46.8764 0C20.9856 0 0 20.5767 0 45.963C0 62.4347 8.84127 76.8765 22.1196 84.9894V44.2305Z" fill="#00E6FF"/>
<path d="M71.6012 6.91626V47.7011L71.535 47.6171C70.6717 60.2358 59.9648 70.2105 46.8774 70.2105C46.8709 70.2105 46.8642 70.2105 46.8642 70.2105C46.8577 70.2105 46.8511 70.2105 46.8511 70.2105C40.1855 70.2105 34.1331 67.6187 29.6895 63.4099V88.7317C35.0166 90.794 40.8118 91.9382 46.884 91.9382C72.7749 91.9382 93.7601 71.3617 93.7601 45.9751C93.7601 29.4776 84.8994 15.0293 71.6012 6.91626Z" fill="#007AFF"/>
<path d="M61.1824 36.6734C61.0306 37.4557 60.754 38.2249 60.325 38.949C58.2748 42.4334 53.7388 43.6229 50.1852 41.6124C46.6315 39.6019 45.4184 35.1543 47.4688 31.6699C48.0293 30.7196 48.7809 29.9439 49.638 29.3556C48.7413 29.2133 47.8183 29.1357 46.8755 29.1357C37.3947 29.1357 29.7139 36.667 29.7139 45.963C29.7139 55.259 37.4013 62.7903 46.8755 62.7903C56.3497 62.7903 64.0373 55.259 64.0373 45.963C64.0373 42.5303 62.989 39.3369 61.1824 36.6734Z" fill="#9D60FB"/>
<path d="M642.618 80.2577C646.713 80.2577 650.04 76.9989 650.04 72.9789C650.04 68.9589 646.713 65.6995 642.618 65.6995C638.516 65.6995 635.189 68.9589 635.189 72.9789C635.189 76.9989 638.516 80.2577 642.618 80.2577Z" fill="#9D60FB"/>
<path d="M387.45 132V106.8H391.72L400.05 123.53L408.38 106.8H412.65V132H408.205V116.95L400.89 132H399.21L391.895 116.95V132H387.45ZM430.127 132.525C427.607 132.525 425.431 131.977 423.6 130.88C421.78 129.783 420.374 128.249 419.382 126.277C418.402 124.306 417.912 122.013 417.912 119.4C417.912 116.787 418.402 114.494 419.382 112.522C420.374 110.551 421.78 109.017 423.6 107.92C425.431 106.823 427.607 106.275 430.127 106.275C432.647 106.275 434.817 106.823 436.637 107.92C438.469 109.017 439.875 110.551 440.855 112.522C441.846 114.494 442.342 116.787 442.342 119.4C442.342 122.013 441.846 124.306 440.855 126.277C439.875 128.249 438.469 129.783 436.637 130.88C434.817 131.977 432.647 132.525 430.127 132.525ZM430.127 128.045C431.726 128.068 433.056 127.724 434.117 127.012C435.179 126.301 435.972 125.292 436.497 123.985C437.034 122.678 437.302 121.15 437.302 119.4C437.302 117.65 437.034 116.133 436.497 114.85C435.972 113.567 435.179 112.569 434.117 111.857C433.056 111.146 431.726 110.778 430.127 110.755C428.529 110.732 427.199 111.076 426.137 111.787C425.076 112.499 424.276 113.508 423.74 114.815C423.215 116.122 422.952 117.65 422.952 119.4C422.952 121.15 423.215 122.667 423.74 123.95C424.276 125.233 425.076 126.231 426.137 126.942C427.199 127.654 428.529 128.022 430.127 128.045ZM447.586 132V106.8H452.416L463.371 123.6V106.8H468.201V132H463.371L452.416 115.2V132H447.586ZM475.184 132V106.8H479.944V132H475.184ZM492.785 132V111.245H484.84V106.8H505.49V111.245H497.545V132H492.785ZM520.868 132.525C518.348 132.525 516.172 131.977 514.34 130.88C512.52 129.783 511.114 128.249 510.123 126.277C509.143 124.306 508.653 122.013 508.653 119.4C508.653 116.787 509.143 114.494 510.123 112.522C511.114 110.551 512.52 109.017 514.34 107.92C516.172 106.823 518.348 106.275 520.868 106.275C523.388 106.275 525.558 106.823 527.378 107.92C529.209 109.017 530.615 110.551 531.595 112.522C532.587 114.494 533.083 116.787 533.083 119.4C533.083 122.013 532.587 124.306 531.595 126.277C530.615 128.249 529.209 129.783 527.378 130.88C525.558 131.977 523.388 132.525 520.868 132.525ZM520.868 128.045C522.466 128.068 523.796 127.724 524.858 127.012C525.919 126.301 526.713 125.292 527.238 123.985C527.774 122.678 528.043 121.15 528.043 119.4C528.043 117.65 527.774 116.133 527.238 114.85C526.713 113.567 525.919 112.569 524.858 111.857C523.796 111.146 522.466 110.778 520.868 110.755C519.269 110.732 517.939 111.076 516.878 111.787C515.816 112.499 515.017 113.508 514.48 114.815C513.955 116.122 513.693 117.65 513.693 119.4C513.693 121.15 513.955 122.667 514.48 123.95C515.017 125.233 515.816 126.231 516.878 126.942C517.939 127.654 519.269 128.022 520.868 128.045ZM538.326 132V106.8H548.966C549.211 106.8 549.538 106.812 549.946 106.835C550.366 106.847 550.739 106.882 551.066 106.94C552.571 107.173 553.802 107.669 554.758 108.427C555.727 109.186 556.438 110.142 556.893 111.297C557.348 112.441 557.576 113.718 557.576 115.13C557.576 117.242 557.051 119.05 556.001 120.555C554.951 122.048 553.306 122.97 551.066 123.32L548.966 123.46H543.086V132H538.326ZM552.536 132L547.566 121.745L552.466 120.8L557.926 132H552.536ZM543.086 119.015H548.756C549.001 119.015 549.269 119.003 549.561 118.98C549.853 118.957 550.121 118.91 550.366 118.84C551.008 118.665 551.503 118.373 551.853 117.965C552.203 117.545 552.443 117.084 552.571 116.582C552.711 116.069 552.781 115.585 552.781 115.13C552.781 114.675 552.711 114.197 552.571 113.695C552.443 113.182 552.203 112.721 551.853 112.312C551.503 111.892 551.008 111.595 550.366 111.42C550.121 111.35 549.853 111.303 549.561 111.28C549.269 111.257 549.001 111.245 548.756 111.245H543.086V119.015ZM563.873 132V106.8H568.633V132H563.873ZM575.63 132V106.8H580.46L591.415 123.6V106.8H596.245V132H591.415L580.46 115.2V132H575.63ZM613.378 132.525C611.791 132.525 610.28 132.245 608.845 131.685C607.41 131.113 606.139 130.273 605.03 129.165C603.934 128.057 603.064 126.686 602.423 125.052C601.793 123.419 601.478 121.535 601.478 119.4C601.478 116.612 602.009 114.243 603.07 112.295C604.144 110.335 605.579 108.842 607.375 107.815C609.184 106.788 611.184 106.275 613.378 106.275C616.621 106.275 619.17 107.027 621.025 108.532C622.88 110.037 624.123 112.167 624.753 114.92L619.888 115.62C619.433 114.15 618.686 112.977 617.648 112.102C616.621 111.216 615.303 110.767 613.693 110.755C612.094 110.732 610.764 111.076 609.703 111.787C608.641 112.499 607.842 113.508 607.305 114.815C606.78 116.122 606.518 117.65 606.518 119.4C606.518 121.15 606.78 122.667 607.305 123.95C607.842 125.233 608.641 126.231 609.703 126.942C610.764 127.654 612.094 128.022 613.693 128.045C614.778 128.068 615.758 127.882 616.633 127.485C617.519 127.088 618.266 126.464 618.873 125.612C619.479 124.761 619.911 123.67 620.168 122.34H616.178V118.665H625.243C625.266 118.817 625.284 119.085 625.295 119.47C625.307 119.855 625.313 120.077 625.313 120.135C625.313 122.55 624.823 124.691 623.843 126.557C622.863 128.424 621.48 129.888 619.695 130.95C617.91 132 615.804 132.525 613.378 132.525Z" fill="#9D60FB"/>
</svg>
