<svg width="24" height="24" viewBox="0 0 24 24" fill="none" xmlns="http://www.w3.org/2000/svg">
<path d="M18.091 2.082L16.873 3.666C18.771 5.128 20 7.418 20 10H22C22 6.772 20.464 3.91 18.091 2.082ZM5.909 2.082L7.127 3.666C5.229 5.128 4 7.418 4 10H2C2 6.772 3.536 3.91 5.909 2.082ZM13.5 5H10.5V3.5C10.5 2.672 11.172 2 12 2C12.828 2 13.5 2.672 13.5 3.5V5Z" fill="#B17DFF"/>
<path d="M12 6C14.206 6 16 7.794 16 10V16V16.828L16.172 17H7.828L8 16.828V16V10C8 7.794 9.794 6 12 6ZM12 4C8.686 4 6 6.686 6 10V16L4 18V19H20V18L18 16V10C18 6.686 15.314 4 12 4Z" fill="#B17DFF"/>
<path d="M12 18C11.4696 18 10.9609 18.2107 10.5858 18.5858C10.2107 18.9609 10 19.4696 10 20C10 20.5304 10.2107 21.0391 10.5858 21.4142C10.9609 21.7893 11.4696 22 12 22C12.5304 22 13.0391 21.7893 13.4142 21.4142C13.7893 21.0391 14 20.5304 14 20C14 19.4696 13.7893 18.9609 13.4142 18.5858C13.0391 18.2107 12.5304 18 12 18Z" fill="#B17DFF"/>
<path opacity="0.3" d="M12 5C9.239 5 7 7.239 7 10V18H17V10C17 7.239 14.761 5 12 5Z" fill="#B17DFF"/>
</svg>
