<svg width="24" height="24" viewBox="0 0 24 24" fill="none" xmlns="http://www.w3.org/2000/svg">
<path opacity="0.3" d="M4 11V20H20V9L16 13L12 9L7 14L4 11Z" fill="white"/>
<path d="M7.19995 13L3.19995 8.90001L4.59995 7.50001L7.19995 10.1L12.4 5.00001L16 8.70001L21 3.70001V11H19V8.50001L16 11.5L12.4 7.90001L7.19995 13Z" fill="white"/>
<path d="M7.1 15.1L3.5 11.5V7.89999L7 11.4L12.1 6.29999L15.9 10.1L18.7 7.29999L20.7 9.29999L16 14L12.1 9.99999L7.1 15.1Z" fill="white"/>
<path d="M21 21H5C3.9 21 3 20.1 3 19V3H5V19H19V8.6H21V21Z" fill="white"/>
</svg>
