<svg width="24" height="24" viewBox="0 0 24 24" fill="none" xmlns="http://www.w3.org/2000/svg">
<path d="M13.5 5L13.1 2.4C13 2.2 12.8 2 12.6 2H11.4C11.2 2 10.9 2.2 10.9 2.4L10.5 5H13.5ZM10.5 19L10.9 21.6C10.9 21.8 11.1 22 11.4 22H12.6C12.8 22 13.1 21.8 13.1 21.6L13.5 19H10.5ZM19 13.5L21.6 13.1C21.8 13.1 22 12.9 22 12.6V11.4C22 11.2 21.8 10.9 21.6 10.9L19 10.5V13.5ZM5 10.5L2.4 10.9C2.2 11 2 11.2 2 11.4V12.6C2 12.8 2.2 13.1 2.4 13.1L5 13.5V10.5ZM9.8 5.2L8.1 3.2C8 3 7.7 2.9 7.5 3.1L6.5 3.7C6.3 3.7 6.2 4 6.3 4.2L7.2 6.7L9.8 5.2ZM14.2 18.8L15.9 20.8C16.1 21 16.3 21 16.5 20.9L17.5 20.3C17.7 20.2 17.8 19.9 17.7 19.7L16.8 17.2L14.2 18.8ZM18.8 9.8L20.8 8.1C21 8 21.1 7.7 20.9 7.5L20.3 6.5C20.2 6.3 19.9 6.2 19.7 6.3L17.2 7.2L18.8 9.8ZM5.2 14.2L3.2 15.9C3 16 2.9 16.3 3.1 16.5L3.7 17.5C3.8 17.7 4.1 17.8 4.3 17.7L6.8 16.8L5.2 14.2ZM6.7 7.2L4.2 6.3C4 6.2 3.8 6.3 3.6 6.5L3 7.5C2.9 7.7 3 8 3.2 8.1L5.2 9.8L6.7 7.2ZM17.3 16.8L19.8 17.7C20 17.8 20.3 17.7 20.4 17.5L21 16.5C21.1 16.3 21.1 16 20.9 15.9L18.9 14.2L17.3 16.8ZM16.8 6.7L17.7 4.2C17.8 4 17.7 3.7 17.5 3.6L16.5 3C16.3 2.9 16 3 15.9 3.2L14.2 5.2L16.8 6.7ZM7.2 17.3L6.3 19.8C6.2 20 6.3 20.3 6.5 20.4L7.5 21C7.7 21.1 8 21 8.1 20.8L9.8 18.8L7.2 17.3ZM12 15C10.3 15 9 13.7 9 12C9 10.3 10.3 9 12 9C13.7 9 15 10.3 15 12C15 13.7 13.7 15 12 15ZM12 11C11.4 11 11 11.4 11 12C11 12.6 11.4 13 12 13C12.6 13 13 12.6 13 12C13 11.4 12.6 11 12 11Z" fill="#17003E"/>
<path opacity="0.3" d="M12 5C8.1 5 5 8.1 5 12C5 15.9 8.1 19 12 19C15.9 19 19 15.9 19 12C19 8.1 15.9 5 12 5ZM12 14C10.9 14 10 13.1 10 12C10 10.9 10.9 10 12 10C13.1 10 14 10.9 14 12C14 13.1 13.1 14 12 14Z" fill="#17003E"/>
<path d="M11 5H13V11H11V5Z" fill="#17003E"/>
<path d="M5.39355 14.6384L10.5902 11.6392L11.5899 13.3714L6.39328 16.3706L5.39355 14.6384Z" fill="#17003E"/>
<path d="M12.4199 13.3346L13.4201 11.6027L18.6159 14.6032L17.6158 16.3352L12.4199 13.3346Z" fill="#17003E"/>
<path d="M12 20C7.6 20 4 16.4 4 12C4 7.6 7.6 4 12 4C16.4 4 20 7.6 20 12C20 16.4 16.4 20 12 20ZM12 6C8.7 6 6 8.7 6 12C6 15.3 8.7 18 12 18C15.3 18 18 15.3 18 12C18 8.7 15.3 6 12 6Z" fill="#17003E"/>
</svg>
