<svg width="21" height="20" viewBox="0 0 21 20" fill="none" xmlns="http://www.w3.org/2000/svg">
<path d="M3.83335 8.16666C3.58335 8.16666 3.33335 7.99999 3.25002 7.83332C3.08335 7.49999 3.16669 7.08332 3.50002 6.91666L8.50002 4.41666C8.66669 4.33332 8.91669 4.33332 9.08335 4.41666L13.6667 6.66666L16.6667 2.91666C16.9167 2.66666 17.3334 2.58332 17.5834 2.83332C17.8334 3.08332 17.9167 3.49999 17.6667 3.74999L14.3334 7.91666C14.1667 8.16666 13.8334 8.24999 13.5 8.08332L8.83335 5.74999L4.16669 8.08332C4.00002 8.16666 3.91669 8.16666 3.83335 8.16666Z" fill="currentColor"/>
<path d="M3.83335 5.83335C3.39133 5.83335 2.9674 6.00895 2.65484 6.32151C2.34228 6.63407 2.16669 7.05799 2.16669 7.50002C2.16669 7.94205 2.34228 8.36597 2.65484 8.67853C2.9674 8.99109 3.39133 9.16669 3.83335 9.16669C4.27538 9.16669 4.6993 8.99109 5.01187 8.67853C5.32443 8.36597 5.50002 7.94205 5.50002 7.50002C5.50002 7.05799 5.32443 6.63407 5.01187 6.32151C4.6993 6.00895 4.27538 5.83335 3.83335 5.83335ZM8.83335 3.33335C8.39133 3.33335 7.9674 3.50895 7.65484 3.82151C7.34228 4.13407 7.16669 4.55799 7.16669 5.00002C7.16669 5.44205 7.34228 5.86597 7.65484 6.17853C7.9674 6.49109 8.39133 6.66669 8.83335 6.66669C9.27538 6.66669 9.6993 6.49109 10.0119 6.17853C10.3244 5.86597 10.5 5.44205 10.5 5.00002C10.5 4.55799 10.3244 4.13407 10.0119 3.82151C9.6993 3.50895 9.27538 3.33335 8.83335 3.33335ZM13.8334 5.83335C13.3913 5.83335 12.9674 6.00895 12.6548 6.32151C12.3423 6.63407 12.1667 7.05799 12.1667 7.50002C12.1667 7.94205 12.3423 8.36597 12.6548 8.67853C12.9674 8.99109 13.3913 9.16669 13.8334 9.16669C14.2754 9.16669 14.6993 8.99109 15.0119 8.67853C15.3244 8.36597 15.5 7.94205 15.5 7.50002C15.5 7.05799 15.3244 6.63407 15.0119 6.32151C14.6993 6.00895 14.2754 5.83335 13.8334 5.83335ZM17.1667 1.66669C16.7247 1.66669 16.3007 1.84228 15.9882 2.15484C15.6756 2.4674 15.5 2.89133 15.5 3.33335C15.5 3.77538 15.6756 4.1993 15.9882 4.51187C16.3007 4.82443 16.7247 5.00002 17.1667 5.00002C17.6087 5.00002 18.0326 4.82443 18.3452 4.51187C18.6578 4.1993 18.8334 3.77538 18.8334 3.33335C18.8334 2.89133 18.6578 2.4674 18.3452 2.15484C18.0326 1.84228 17.6087 1.66669 17.1667 1.66669ZM17.1667 10.8334C16.7247 10.8334 16.3007 11.0089 15.9882 11.3215C15.6756 11.6341 15.5 12.058 15.5 12.5C15.5 12.942 15.6756 13.366 15.9882 13.6785C16.3007 13.9911 16.7247 14.1667 17.1667 14.1667C17.6087 14.1667 18.0326 13.9911 18.3452 13.6785C18.6578 13.366 18.8334 12.942 18.8334 12.5C18.8334 12.058 18.6578 11.6341 18.3452 11.3215C18.0326 11.0089 17.6087 10.8334 17.1667 10.8334ZM13.8334 15C13.3913 15 12.9674 15.1756 12.6548 15.4882C12.3423 15.8007 12.1667 16.2247 12.1667 16.6667C12.1667 17.1087 12.3423 17.5326 12.6548 17.8452C12.9674 18.1578 13.3913 18.3334 13.8334 18.3334C14.2754 18.3334 14.6993 18.1578 15.0119 17.8452C15.3244 17.5326 15.5 17.1087 15.5 16.6667C15.5 16.2247 15.3244 15.8007 15.0119 15.4882C14.6993 15.1756 14.2754 15 13.8334 15ZM9.66669 11.6667C9.22466 11.6667 8.80074 11.8423 8.48818 12.1548C8.17562 12.4674 8.00002 12.8913 8.00002 13.3334C8.00002 13.7754 8.17562 14.1993 8.48818 14.5119C8.80074 14.8244 9.22466 15 9.66669 15C10.1087 15 10.5326 14.8244 10.8452 14.5119C11.1578 14.1993 11.3334 13.7754 11.3334 13.3334C11.3334 12.8913 11.1578 12.4674 10.8452 12.1548C10.5326 11.8423 10.1087 11.6667 9.66669 11.6667ZM3.83335 13.3334C3.39133 13.3334 2.9674 13.5089 2.65484 13.8215C2.34228 14.1341 2.16669 14.558 2.16669 15C2.16669 15.442 2.34228 15.866 2.65484 16.1785C2.9674 16.4911 3.39133 16.6667 3.83335 16.6667C4.27538 16.6667 4.6993 16.4911 5.01187 16.1785C5.32443 15.866 5.50002 15.442 5.50002 15C5.50002 14.558 5.32443 14.1341 5.01187 13.8215C4.6993 13.5089 4.27538 13.3334 3.83335 13.3334Z" fill="currentColor"/>
<path d="M13.8334 17.3333C13.6667 17.3333 13.5 17.25 13.4167 17.1667L9.50002 14.0833L4.00002 15.6667C3.66668 15.75 3.25002 15.5833 3.16668 15.25C3.08335 14.9167 3.25002 14.5 3.58335 14.4167L9.41668 12.75C9.66668 12.6667 9.83335 12.75 10 12.8333L13.6667 15.75L16.5 12.0833C16.75 11.8333 17.1667 11.75 17.4167 12C17.6667 12.25 17.75 12.6667 17.5 12.9167L14.25 17.0833C14.25 17.25 14.0834 17.3333 13.8334 17.3333C13.9167 17.3333 13.8334 17.3333 13.8334 17.3333Z" fill="currentColor"/>
</svg>
