<svg width="31" height="30" viewBox="0 0 31 30" fill="none" xmlns="http://www.w3.org/2000/svg">
<path d="M25.25 13C25.375 13.625 25.5 14.375 25.5 15C25.5 20.5 21 25 15.5 25C10 25 5.5 20.5 5.5 15C5.5 9.5 10 5 15.5 5C17.5 5 19.5 5.625 21 6.625L22.75 4.875C20.75 3.375 18.25 2.5 15.5 2.5C8.625 2.5 3 8.125 3 15C3 21.875 8.625 27.5 15.5 27.5C22.375 27.5 28 21.875 28 15C28 13.625 27.75 12.25 27.375 11L25.25 13Z" fill="#9D60FB"/>
<path d="M14.25 20.5L8.375 14.625L10.125 12.875L14.25 17L27.125 4.125L28.875 5.875L14.25 20.5Z" fill="#9D60FB"/>
<path opacity="0.3" d="M15.5 2.5C12.1848 2.5 9.00537 3.81696 6.66117 6.16117C4.31696 8.50537 3 11.6848 3 15C3 18.3152 4.31696 21.4946 6.66117 23.8388C9.00537 26.183 12.1848 27.5 15.5 27.5C18.8152 27.5 21.9946 26.183 24.3388 23.8388C26.683 21.4946 28 18.3152 28 15C28 11.6848 26.683 8.50537 24.3388 6.16117C21.9946 3.81696 18.8152 2.5 15.5 2.5Z" fill="#9D60FB"/>
</svg>
