<svg width="20" height="21" viewBox="0 0 20 21" fill="none" xmlns="http://www.w3.org/2000/svg">
<path d="M16.5001 8.86914C16.5834 9.28581 16.6667 9.78581 16.6667 10.2025C16.6667 13.8691 13.6667 16.8691 10.0001 16.8691C6.33342 16.8691 3.33341 13.8691 3.33341 10.2025C3.33341 6.53581 6.33342 3.53581 10.0001 3.53581C11.3334 3.53581 12.6667 3.95247 13.6667 4.61914L14.8334 3.45247C13.5001 2.45247 11.8334 1.86914 10.0001 1.86914C5.41675 1.86914 1.66675 5.61914 1.66675 10.2025C1.66675 14.7858 5.41675 18.5358 10.0001 18.5358C14.5834 18.5358 18.3334 14.7858 18.3334 10.2025C18.3334 9.28581 18.1667 8.36914 17.9167 7.53581L16.5001 8.86914Z" fill="#9D60FB"/>
<path d="M9.16667 13.8693L5.25 9.95264L6.41667 8.78597L9.16667 11.536L17.75 2.95264L18.9167 4.1193L9.16667 13.8693Z" fill="#9D60FB"/>
<path opacity="0.3" d="M10.0001 1.86914C7.78994 1.86914 5.67033 2.74711 4.10752 4.30992C2.54472 5.87272 1.66675 7.99234 1.66675 10.2025C1.66675 12.4126 2.54472 14.5322 4.10752 16.095C5.67033 17.6578 7.78994 18.5358 10.0001 18.5358C12.2102 18.5358 14.3298 17.6578 15.8926 16.095C17.4554 14.5322 18.3334 12.4126 18.3334 10.2025C18.3334 7.99234 17.4554 5.87272 15.8926 4.30992C14.3298 2.74711 12.2102 1.86914 10.0001 1.86914Z" fill="#9D60FB"/>
</svg>
