<svg width="30" height="30" viewBox="0 0 30 30" fill="none" xmlns="http://www.w3.org/2000/svg">
<path d="M3.75 3.75H26.25V6.25H3.75V3.75Z" fill="#9D60FB"/>
<path d="M20.125 27.5H9.875C8.625 27.5 7.5 26.625 7.375 25.375L5 5.125L7.5 4.875L9.875 25H20.125L22.5 4.875L25 5.125L22.625 25.25C22.5 26.625 21.375 27.5 20.125 27.5Z" fill="#9D60FB"/>
<path opacity="0.3" d="M6.25 5L8.625 25.125C8.75 25.75 9.25 26.25 9.875 26.25H20.125C20.75 26.25 21.25 25.75 21.375 25.125L23.75 5H6.25Z" fill="#9D60FB"/>
<path d="M18.75 3.75V5H11.25V3.75L12.5 2.5H17.5L18.75 3.75Z" fill="#9D60FB"/>
</svg>
