<svg width="16" height="16" viewBox="0 0 16 16" fill="none" xmlns="http://www.w3.org/2000/svg">
<g clip-path="url(#clip0_1_820)">
<path d="M7.33331 2.66669H2.66665C2.31302 2.66669 1.97389 2.80716 1.72384 3.05721C1.47379 3.30726 1.33331 3.6464 1.33331 4.00002V13.3334C1.33331 13.687 1.47379 14.0261 1.72384 14.2762C1.97389 14.5262 2.31302 14.6667 2.66665 14.6667H12C12.3536 14.6667 12.6927 14.5262 12.9428 14.2762C13.1928 14.0261 13.3333 13.687 13.3333 13.3334V8.66669" stroke="inherit" stroke-width="1.5" stroke-linecap="round" stroke-linejoin="round"/>
<path d="M12.3333 1.66665C12.5985 1.40144 12.9582 1.25244 13.3333 1.25244C13.7084 1.25244 14.0681 1.40144 14.3333 1.66665C14.5985 1.93187 14.7475 2.29158 14.7475 2.66665C14.7475 3.04173 14.5985 3.40144 14.3333 3.66665L7.99998 9.99999L5.33331 10.6667L5.99998 7.99999L12.3333 1.66665Z" stroke="inherit" stroke-width="1.5" stroke-linecap="round" stroke-linejoin="round"/>
</g>
<defs>
<clipPath id="clip0_1_820">
<rect width="16" height="16" fill="white"/>
</clipPath>
</defs>
</svg>
