<svg width="32" height="32" viewBox="0 0 32 32" fill="none" xmlns="http://www.w3.org/2000/svg">
<path d="M31.3654 16.5693L16.5707 31.3628C16.4178 31.5157 16.215 31.5999 15.9997 31.5999C15.7844 31.5999 15.5816 31.5157 15.4303 31.3643L0.63558 16.5709C0.321994 16.2573 0.321994 15.7456 0.63558 15.4305L15.4303 0.637022C15.5816 0.484142 15.7844 0.399902 15.9997 0.399902C16.215 0.399902 16.4178 0.484142 16.5692 0.635462L31.3638 15.4289C31.679 15.7441 31.679 16.2557 31.3654 16.5693Z" fill="white"/>
<path opacity="0.13" d="M25.8487 16.365L16.3657 25.848C16.2677 25.946 16.1377 26 15.9997 26C15.8617 26 15.7317 25.946 15.6347 25.849L6.15173 16.366C5.95073 16.165 5.95073 15.837 6.15173 15.635L15.6347 6.152C15.7317 6.054 15.8617 6 15.9997 6C16.1377 6 16.2677 6.054 16.3647 6.151L25.8477 15.634C26.0497 15.836 26.0497 16.164 25.8487 16.365Z" fill="inherit"/>
<path d="M16 26.9999C15.595 26.9999 15.214 26.8419 14.928 26.5559L5.44498 17.0729C4.85298 16.4819 4.85298 15.5199 5.44498 14.9279L14.928 5.44489C15.5 4.87189 16.5 4.87189 17.073 5.44489L26.556 14.9279C27.148 15.5189 27.148 16.4809 26.556 17.0729L17.073 26.5559C16.786 26.8419 16.405 26.9999 16 26.9999Z" fill="inherit"/>
<path d="M15 19H17V21H15V19ZM15 11H17V17H15V11Z" fill="white"/>
</svg>
