<svg width="14" height="15" viewBox="0 0 14 15" fill="none" xmlns="http://www.w3.org/2000/svg">
<path opacity="0.13" d="M12.7448 7.71288L7.2131 13.2446C7.15593 13.3018 7.0801 13.3333 6.9996 13.3333C6.9191 13.3333 6.84326 13.3018 6.78668 13.2452L1.25493 7.71346C1.13768 7.59621 1.13768 7.40488 1.25493 7.28704L6.78668 1.75529C6.84326 1.69813 6.9191 1.66663 6.9996 1.66663C7.0801 1.66663 7.15593 1.69813 7.21251 1.75471L12.7443 7.28646C12.8621 7.40429 12.8621 7.59563 12.7448 7.71288Z" fill="white"/>
<path d="M7.00007 13.9167C6.76382 13.9167 6.54157 13.8246 6.37473 13.6577L0.842984 8.12597C0.497651 7.78122 0.497651 7.22006 0.842984 6.87472L6.37473 1.34297C6.7084 1.00872 7.29173 1.00872 7.62598 1.34297L13.1577 6.87472C13.5031 7.21947 13.5031 7.78064 13.1577 8.12597L7.62598 13.6577C7.45857 13.8246 7.23632 13.9167 7.00007 13.9167ZM1.86673 7.50006L7.00007 12.6334L12.1334 7.50006L7.00007 2.36672L1.86673 7.50006Z" fill="white"/>
<path d="M6.41699 9.25004H7.58366V10.4167H6.41699V9.25004ZM6.41699 4.58337H7.58366V8.08337H6.41699V4.58337Z" fill="white"/>
</svg>
