<svg width="24" height="24" viewBox="0 0 24 24" fill="none" xmlns="http://www.w3.org/2000/svg">
<path opacity="0.3" d="M19 20H9C8.4 20 8 19.6 8 19V5C8 4.4 8.4 4 9 4H19C19.6 4 20 4.4 20 5V19C20 19.6 19.6 20 19 20Z" fill="current"/>
<path d="M3 4H5V20H3V4ZM19 21H9C7.9 21 7 20.1 7 19V5C7 3.9 7.9 3 9 3H19C20.1 3 21 3.9 21 5V19C21 20.1 20.1 21 19 21ZM9 5V19H19V5H9Z" fill="current"/>
<path d="M13 15H15V17H13V15ZM15 14H13C13 12.9 13.7 12.1 14.2 11.5C14.7 10.9 15 10.5 15 10C15 9.8 14.9 9 14 9C13 9 13 9.9 13 10H11C11 8.5 12.1 7 14 7C16 7 17 8.5 17 10C17 11.3 16.2 12.2 15.7 12.9C15.3 13.3 15 13.7 15 14Z" fill="current"/>
</svg>
