<svg width="27" height="27" viewBox="0 0 27 27" fill="none" xmlns="http://www.w3.org/2000/svg">
<path d="M8.0835 12.417H18.9168V14.5837H8.0835V12.417Z" fill="#9D60FB"/>
<path d="M20.0002 8.08301C19.2288 8.08301 16.4382 8.08301 15.6668 8.08301V10.2497C16.5032 10.2497 19.1638 10.2497 20.0002 10.2497C21.7952 10.2497 23.2502 11.7046 23.2502 13.4997C23.2502 15.2948 21.7952 16.7497 20.0002 16.7497C19.1638 16.7497 16.5032 16.7497 15.6668 16.7497V18.9163C16.4382 18.9163 19.2288 18.9163 20.0002 18.9163C22.9912 18.9163 25.4168 16.4908 25.4168 13.4997C25.4168 10.5086 22.9912 8.08301 20.0002 8.08301ZM7.00016 18.9163C7.7715 18.9163 10.5622 18.9163 11.3335 18.9163V16.7497C10.4972 16.7497 7.8365 16.7497 7.00016 16.7497C5.20508 16.7497 3.75016 15.2948 3.75016 13.4997C3.75016 11.7046 5.20508 10.2497 7.00016 10.2497C7.8365 10.2497 10.4972 10.2497 11.3335 10.2497V8.08301C10.5622 8.08301 7.7715 8.08301 7.00016 8.08301C4.00908 8.08301 1.5835 10.5086 1.5835 13.4997C1.5835 16.4908 4.00908 18.9163 7.00016 18.9163Z" fill="#9D60FB"/>
</svg>
