<svg width="38" height="39" viewBox="0 0 38 39" fill="none" xmlns="http://www.w3.org/2000/svg">
<path opacity="0.3" d="M28.5001 33.875H9.50008C8.55008 33.875 7.91675 33.2417 7.91675 32.2917V16.4583C7.91675 15.5083 8.55008 14.875 9.50008 14.875H28.5001C29.4501 14.875 30.0834 15.5083 30.0834 16.4583V32.2917C30.0834 33.2417 29.4501 33.875 28.5001 33.875Z" fill="currentColor"/>
<path d="M22.1667 24.375C22.1667 26.1166 20.7417 27.5416 19 27.5416C17.2583 27.5416 15.8333 26.1166 15.8333 24.375C15.8333 22.6333 17.2583 21.2083 19 21.2083C20.7417 21.2083 22.1667 22.6333 22.1667 24.375ZM28.5 14.875H25.3333V11.7083C25.3333 8.22498 22.4833 5.37498 19 5.37498C15.5167 5.37498 12.6667 8.22498 12.6667 11.7083V14.875H9.5V11.7083C9.5 6.32498 13.6167 2.20831 19 2.20831C24.3833 2.20831 28.5 6.32498 28.5 11.7083V14.875Z" fill="currentColor"/>
<path d="M28.4999 35.4584H9.49992C7.75825 35.4584 6.33325 34.0334 6.33325 32.2917V16.4584C6.33325 14.7167 7.75825 13.2917 9.49992 13.2917H28.4999C30.2416 13.2917 31.6666 14.7167 31.6666 16.4584V32.2917C31.6666 34.0334 30.2416 35.4584 28.4999 35.4584ZM9.49992 16.4584V32.2917H28.4999V16.4584H9.49992Z" fill="currentColor"/>
</svg>
