<svg width="27" height="27" viewBox="0 0 27 27" fill="none" xmlns="http://www.w3.org/2000/svg">
<path opacity="0.3" d="M3.75 8.08301L13.5 14.583L23.25 8.08301V21.083H3.75V8.08301Z" fill="#9D60FB"/>
<path d="M2.6665 6.99967V19.9997C2.6665 21.1968 3.63609 22.1663 4.83317 22.1663H22.1665C23.3636 22.1663 24.3332 21.1968 24.3332 19.9997V6.99967C24.3332 5.80259 23.3636 4.83301 22.1665 4.83301H4.83317C3.63609 4.83301 2.6665 5.80259 2.6665 6.99967ZM22.1665 19.9997H4.83317V6.99967H22.1665V19.9997Z" fill="#9D60FB"/>
<path d="M3.75 9.57389L13.5 15.6666L23.25 9.57389V7.40723L13.5 13.4999L3.75 7.40723V9.57389Z" fill="#9D60FB"/>
<path d="M19.9998 10.25V18.9167L17.8332 16.75L15.6665 18.9167V13.5L19.9998 10.25Z" fill="#9D60FB"/>
</svg>
