<svg width="20" height="20" viewBox="0 0 20 20" fill="none" xmlns="http://www.w3.org/2000/svg">
<path d="M10.8333 5.83333H9.16665C8.70665 5.83333 8.33331 5.46 8.33331 5V3.33333C8.33331 2.87333 8.70665 2.5 9.16665 2.5H10.8333C11.2933 2.5 11.6666 2.87333 11.6666 3.33333V5C11.6666 5.46 11.2933 5.83333 10.8333 5.83333ZM10.8333 11.6667H9.16665C8.70665 11.6667 8.33331 11.2933 8.33331 10.8333V9.16667C8.33331 8.70667 8.70665 8.33333 9.16665 8.33333H10.8333C11.2933 8.33333 11.6666 8.70667 11.6666 9.16667V10.8333C11.6666 11.2933 11.2933 11.6667 10.8333 11.6667ZM10.8333 17.5H9.16665C8.70665 17.5 8.33331 17.1267 8.33331 16.6667V15C8.33331 14.54 8.70665 14.1667 9.16665 14.1667H10.8333C11.2933 14.1667 11.6666 14.54 11.6666 15V16.6667C11.6666 17.1267 11.2933 17.5 10.8333 17.5Z" fill="#9D60FB"/>
</svg>
