<svg width="33" height="32" viewBox="0 0 33 32" fill="none" xmlns="http://www.w3.org/2000/svg">
<path opacity="0.3" d="M28.5 24H19.1667H17.8333H15.1667H13.8333H4.5V8H13.8333C14.568 8 15.1667 8.59867 15.1667 9.33333H17.8333C17.8333 8.59867 18.432 8 19.1667 8H28.5V24Z" fill="#B3BEC4"/>
<path d="M13.834 25.333C13.834 26.8063 15.0273 27.9997 16.5007 27.9997C17.974 27.9997 19.1673 26.8063 19.1673 25.333H13.834Z" fill="#B3BEC4"/>
<path d="M19.1673 5.33301C18.138 5.33301 17.21 5.73301 16.5007 6.37167C15.7913 5.73301 14.8633 5.33301 13.834 5.33301H1.83398V23.9997C1.83398 25.473 3.02732 26.6663 4.50065 26.6663H15.1673H17.834H28.5006C29.974 26.6663 31.1673 25.473 31.1673 23.9997V5.33301H19.1673ZM28.5006 23.9997H19.1673H17.834H15.1673H13.834H4.50065V7.99967H13.834C14.5687 7.99967 15.1673 8.59834 15.1673 9.33301H17.834C17.834 8.59834 18.4326 7.99967 19.1673 7.99967H28.5006V23.9997Z" fill="#B3BEC4"/>
<path d="M12.686 19.2081H9.88468L9.33935 21.3335H7.16602L10.346 10.9521H12.226L15.426 21.3335H13.2313L12.686 19.2081ZM10.3313 17.4628H12.2327L11.282 13.7628L10.3313 17.4628Z" fill="#B3BEC4"/>
<path d="M21.2969 19.5945H25.4889V21.3331H18.8929V20.0718L23.0436 12.6998H18.8516V10.9531H25.4129V12.1865L21.2969 19.5945Z" fill="#B3BEC4"/>
</svg>
