<svg width="100%" height="100%" viewBox="0 0 254 127" fill="none" xmlns="http://www.w3.org/2000/svg">
  <path
    d="M145.75 42.9167H152V47.0833H145.75V42.9167ZM102 42.9167H108.25V47.0833H102V42.9167ZM124.917 20H129.083V26.25H124.917V20Z"
    fill="#B3BEC4"
  />
  <path d="M106.818 27.7646L109.764 24.8183L147.33 62.3827L144.383 65.329L106.818 27.7646Z" fill="#B3BEC4" />
  <path
    opacity="0.3"
    d="M139.083 48.125C139.292 47.0833 139.5 46.0417 139.5 45C139.5 38.125 133.875 32.5 127 32.5C125.958 32.5 124.708 32.7083 123.875 32.9167L139.083 48.125ZM119.708 34.7917C116.583 37.0833 114.5 40.8333 114.5 45C114.5 50.4167 118.042 55 122.833 56.875V65.8333H131.167V56.875C133.667 56.0417 135.75 54.375 137.208 52.2917L119.708 34.7917Z"
    fill="#B3BEC4"
  />
  <path d="M138.784 30.3421L143.204 25.9227L146.15 28.8689L141.731 33.2884L138.784 30.3421Z" fill="#B3BEC4" />
  <path d="M107.848 61.1317L112.268 56.7122L115.214 59.6585L110.795 64.078L107.848 61.1317Z" fill="#B3BEC4" />
  <path d="M102 42.9167H108.25V47.0833H102V42.9167Z" fill="#B3BEC4" />
  <path
    d="M135.542 50.8333C134.292 52.7083 132.625 54.1667 130.333 54.7917L129.083 55.2083V63.75H124.917V55.2083L123.458 54.7917C119.292 53.3333 116.583 49.375 116.583 45C116.583 41.4583 118.458 38.125 121.167 36.25L118.25 33.3333C114.708 36.0417 112.417 40.2083 112.417 45C112.417 50.625 115.75 55.8333 120.75 58.125V63.75C120.75 66.0417 122.625 67.9167 124.917 67.9167H129.083C131.375 67.9167 133.25 66.0417 133.25 63.75V58.125C135.333 57.0833 137.208 55.625 138.667 53.75L135.542 50.8333ZM125.542 34.7917C125.958 34.5833 126.583 34.5833 127 34.5833C132.833 34.5833 137.417 39.1667 137.417 45C137.417 45.625 137.417 46.0417 137.208 46.4583L140.542 49.7917C141.167 48.3333 141.375 46.6667 141.375 44.7917C141.375 36.6667 134.917 30.2083 126.792 30.2083C125.125 30.2083 123.458 30.625 121.792 31.0417L125.542 34.7917Z"
    fill="#B3BEC4"
  />
  <path
    d="M31.6691 94.4688V103H30.5324L26.2375 96.4199V103H25.1066V94.4688H26.2375L30.55 101.066V94.4688H31.6691ZM33.3219 99.9004V99.7656C33.3219 99.3086 33.3883 98.8848 33.5211 98.4941C33.6539 98.0996 33.8453 97.7578 34.0953 97.4688C34.3453 97.1758 34.6481 96.9492 35.0035 96.7891C35.359 96.625 35.7574 96.543 36.1988 96.543C36.6441 96.543 37.0445 96.625 37.4 96.7891C37.7594 96.9492 38.0641 97.1758 38.3141 97.4688C38.568 97.7578 38.7613 98.0996 38.8941 98.4941C39.027 98.8848 39.0934 99.3086 39.0934 99.7656V99.9004C39.0934 100.357 39.027 100.781 38.8941 101.172C38.7613 101.562 38.568 101.904 38.3141 102.197C38.0641 102.486 37.7613 102.713 37.4059 102.877C37.0543 103.037 36.6559 103.117 36.2106 103.117C35.7652 103.117 35.3648 103.037 35.0094 102.877C34.6539 102.713 34.3492 102.486 34.0953 102.197C33.8453 101.904 33.6539 101.562 33.5211 101.172C33.3883 100.781 33.3219 100.357 33.3219 99.9004ZM34.4059 99.7656V99.9004C34.4059 100.217 34.443 100.516 34.5172 100.797C34.5914 101.074 34.7027 101.32 34.8512 101.535C35.0035 101.75 35.193 101.92 35.4195 102.045C35.6461 102.166 35.9098 102.227 36.2106 102.227C36.5074 102.227 36.7672 102.166 36.9898 102.045C37.2164 101.92 37.4039 101.75 37.5523 101.535C37.7008 101.32 37.8121 101.074 37.8863 100.797C37.9645 100.516 38.0035 100.217 38.0035 99.9004V99.7656C38.0035 99.4531 37.9645 99.1582 37.8863 98.8809C37.8121 98.5996 37.6988 98.3516 37.5465 98.1367C37.3981 97.918 37.2106 97.7461 36.984 97.6211C36.7613 97.4961 36.4996 97.4336 36.1988 97.4336C35.902 97.4336 35.6402 97.4961 35.4137 97.6211C35.191 97.7461 35.0035 97.918 34.8512 98.1367C34.7027 98.3516 34.5914 98.5996 34.5172 98.8809C34.443 99.1582 34.4059 99.4531 34.4059 99.7656ZM47.6254 101.77V94H48.7152V103H47.7191L47.6254 101.77ZM43.3598 99.9004V99.7773C43.3598 99.293 43.4184 98.8535 43.5355 98.459C43.6566 98.0605 43.8266 97.7188 44.0453 97.4336C44.268 97.1484 44.5316 96.9297 44.8363 96.7773C45.1449 96.6211 45.4887 96.543 45.8676 96.543C46.266 96.543 46.6137 96.6133 46.9105 96.7539C47.2113 96.8906 47.4652 97.0918 47.6723 97.3574C47.8832 97.6191 48.0492 97.9355 48.1703 98.3066C48.2914 98.6777 48.3754 99.0977 48.4223 99.5664V100.105C48.3793 100.57 48.2953 100.988 48.1703 101.359C48.0492 101.73 47.8832 102.047 47.6723 102.309C47.4652 102.57 47.2113 102.771 46.9105 102.912C46.6098 103.049 46.2582 103.117 45.8559 103.117C45.4848 103.117 45.1449 103.037 44.8363 102.877C44.5316 102.717 44.268 102.492 44.0453 102.203C43.8266 101.914 43.6566 101.574 43.5355 101.184C43.4184 100.789 43.3598 100.361 43.3598 99.9004ZM44.4496 99.7773V99.9004C44.4496 100.217 44.4809 100.514 44.5434 100.791C44.6098 101.068 44.7113 101.312 44.848 101.523C44.9848 101.734 45.1586 101.9 45.3695 102.021C45.5805 102.139 45.8324 102.197 46.1254 102.197C46.4848 102.197 46.7797 102.121 47.0102 101.969C47.2445 101.816 47.432 101.615 47.5727 101.365C47.7133 101.115 47.8227 100.844 47.9008 100.551V99.1387C47.8539 98.9238 47.7855 98.7168 47.6957 98.5176C47.6098 98.3145 47.4965 98.1348 47.3559 97.9785C47.2191 97.8184 47.0492 97.6914 46.8461 97.5977C46.6469 97.5039 46.4105 97.457 46.1371 97.457C45.8402 97.457 45.5844 97.5195 45.3695 97.6445C45.1586 97.7656 44.9848 97.9336 44.848 98.1484C44.7113 98.3594 44.6098 98.6055 44.5434 98.8867C44.4809 99.1641 44.4496 99.4609 44.4496 99.7773ZM54.241 101.916V98.6523C54.241 98.4023 54.1902 98.1855 54.0887 98.002C53.991 97.8145 53.8426 97.6699 53.6434 97.5684C53.4441 97.4668 53.198 97.416 52.9051 97.416C52.6316 97.416 52.3914 97.4629 52.1844 97.5566C51.9813 97.6504 51.8211 97.7734 51.7039 97.9258C51.5906 98.0781 51.534 98.2422 51.534 98.418H50.45C50.45 98.1914 50.5086 97.9668 50.6258 97.7441C50.743 97.5215 50.9109 97.3203 51.1297 97.1406C51.3523 96.957 51.618 96.8125 51.9266 96.707C52.2391 96.5977 52.5867 96.543 52.9695 96.543C53.4305 96.543 53.8367 96.6211 54.1883 96.7773C54.5438 96.9336 54.8211 97.1699 55.0203 97.4863C55.2234 97.7988 55.325 98.1914 55.325 98.6641V101.617C55.325 101.828 55.3426 102.053 55.3777 102.291C55.4168 102.529 55.4734 102.734 55.5477 102.906V103H54.4168C54.3621 102.875 54.3191 102.709 54.2879 102.502C54.2566 102.291 54.241 102.096 54.241 101.916ZM54.4285 99.1562L54.4402 99.918H53.3445C53.0359 99.918 52.7605 99.9434 52.5184 99.9941C52.2762 100.041 52.073 100.113 51.909 100.211C51.7449 100.309 51.6199 100.432 51.534 100.58C51.448 100.725 51.4051 100.895 51.4051 101.09C51.4051 101.289 51.45 101.471 51.5398 101.635C51.6297 101.799 51.7645 101.93 51.9441 102.027C52.1277 102.121 52.3523 102.168 52.618 102.168C52.95 102.168 53.243 102.098 53.4969 101.957C53.7508 101.816 53.952 101.645 54.1004 101.441C54.2527 101.238 54.3348 101.041 54.3465 100.85L54.8094 101.371C54.782 101.535 54.7078 101.717 54.5867 101.916C54.4656 102.115 54.3035 102.307 54.1004 102.49C53.9012 102.67 53.6629 102.82 53.3855 102.941C53.1121 103.059 52.8035 103.117 52.4598 103.117C52.0301 103.117 51.6531 103.033 51.3289 102.865C51.0086 102.697 50.7586 102.473 50.5789 102.191C50.4031 101.906 50.3152 101.588 50.3152 101.236C50.3152 100.896 50.3816 100.598 50.5145 100.34C50.6473 100.078 50.8387 99.8613 51.0887 99.6895C51.3387 99.5137 51.6395 99.3809 51.991 99.291C52.3426 99.2012 52.7352 99.1562 53.1688 99.1562H54.4285ZM59.7844 96.6602V97.4922H56.3566V96.6602H59.7844ZM57.5168 95.1191H58.6008V101.43C58.6008 101.645 58.634 101.807 58.7004 101.916C58.7668 102.025 58.8527 102.098 58.9582 102.133C59.0637 102.168 59.177 102.186 59.298 102.186C59.3879 102.186 59.4816 102.178 59.5793 102.162C59.6809 102.143 59.757 102.127 59.8078 102.115L59.8137 103C59.7277 103.027 59.6145 103.053 59.4738 103.076C59.3371 103.104 59.1711 103.117 58.9758 103.117C58.7102 103.117 58.466 103.064 58.2434 102.959C58.0207 102.854 57.843 102.678 57.7102 102.432C57.5813 102.182 57.5168 101.846 57.5168 101.424V95.1191ZM64.8941 101.916V98.6523C64.8941 98.4023 64.8434 98.1855 64.7418 98.002C64.6441 97.8145 64.4957 97.6699 64.2965 97.5684C64.0973 97.4668 63.8512 97.416 63.5582 97.416C63.2848 97.416 63.0445 97.4629 62.8375 97.5566C62.6344 97.6504 62.4742 97.7734 62.357 97.9258C62.2438 98.0781 62.1871 98.2422 62.1871 98.418H61.1031C61.1031 98.1914 61.1617 97.9668 61.2789 97.7441C61.3961 97.5215 61.5641 97.3203 61.7828 97.1406C62.0055 96.957 62.2711 96.8125 62.5797 96.707C62.8922 96.5977 63.2398 96.543 63.6227 96.543C64.0836 96.543 64.4898 96.6211 64.8414 96.7773C65.1969 96.9336 65.4742 97.1699 65.6734 97.4863C65.8766 97.7988 65.9781 98.1914 65.9781 98.6641V101.617C65.9781 101.828 65.9957 102.053 66.0309 102.291C66.0699 102.529 66.1266 102.734 66.2008 102.906V103H65.0699C65.0152 102.875 64.9723 102.709 64.941 102.502C64.9098 102.291 64.8941 102.096 64.8941 101.916ZM65.0816 99.1562L65.0934 99.918H63.9977C63.6891 99.918 63.4137 99.9434 63.1715 99.9941C62.9293 100.041 62.7262 100.113 62.5621 100.211C62.398 100.309 62.273 100.432 62.1871 100.58C62.1012 100.725 62.0582 100.895 62.0582 101.09C62.0582 101.289 62.1031 101.471 62.193 101.635C62.2828 101.799 62.4176 101.93 62.5973 102.027C62.7809 102.121 63.0055 102.168 63.2711 102.168C63.6031 102.168 63.8961 102.098 64.15 101.957C64.4039 101.816 64.6051 101.645 64.7535 101.441C64.9059 101.238 64.9879 101.041 64.9996 100.85L65.4625 101.371C65.4352 101.535 65.3609 101.717 65.2398 101.916C65.1188 102.115 64.9566 102.307 64.7535 102.49C64.5543 102.67 64.316 102.82 64.0387 102.941C63.7652 103.059 63.4566 103.117 63.1129 103.117C62.6832 103.117 62.3063 103.033 61.982 102.865C61.6617 102.697 61.4117 102.473 61.232 102.191C61.0563 101.906 60.9684 101.588 60.9684 101.236C60.9684 100.896 61.0348 100.598 61.1676 100.34C61.3004 100.078 61.4918 99.8613 61.7418 99.6895C61.9918 99.5137 62.2926 99.3809 62.6441 99.291C62.9957 99.2012 63.3883 99.1562 63.8219 99.1562H65.0816ZM73.5141 96.6602V97.4922H70.0863V96.6602H73.5141ZM71.2465 95.1191H72.3305V101.43C72.3305 101.645 72.3637 101.807 72.4301 101.916C72.4965 102.025 72.5824 102.098 72.6879 102.133C72.7934 102.168 72.9066 102.186 73.0277 102.186C73.1176 102.186 73.2113 102.178 73.309 102.162C73.4105 102.143 73.4867 102.127 73.5375 102.115L73.5434 103C73.4574 103.027 73.3441 103.053 73.2035 103.076C73.0668 103.104 72.9008 103.117 72.7055 103.117C72.4398 103.117 72.1957 103.064 71.973 102.959C71.7504 102.854 71.5727 102.678 71.4398 102.432C71.3109 102.182 71.2465 101.846 71.2465 101.424V95.1191ZM74.4813 99.9004V99.7656C74.4813 99.3086 74.5477 98.8848 74.6805 98.4941C74.8133 98.0996 75.0047 97.7578 75.2547 97.4688C75.5047 97.1758 75.8074 96.9492 76.1629 96.7891C76.5184 96.625 76.9168 96.543 77.3582 96.543C77.8035 96.543 78.2039 96.625 78.5594 96.7891C78.9188 96.9492 79.2234 97.1758 79.4734 97.4688C79.7273 97.7578 79.9207 98.0996 80.0535 98.4941C80.1863 98.8848 80.2527 99.3086 80.2527 99.7656V99.9004C80.2527 100.357 80.1863 100.781 80.0535 101.172C79.9207 101.562 79.7273 101.904 79.4734 102.197C79.2234 102.486 78.9207 102.713 78.5652 102.877C78.2137 103.037 77.8152 103.117 77.3699 103.117C76.9246 103.117 76.5242 103.037 76.1688 102.877C75.8133 102.713 75.5086 102.486 75.2547 102.197C75.0047 101.904 74.8133 101.562 74.6805 101.172C74.5477 100.781 74.4813 100.357 74.4813 99.9004ZM75.5652 99.7656V99.9004C75.5652 100.217 75.6023 100.516 75.6766 100.797C75.7508 101.074 75.8621 101.32 76.0106 101.535C76.1629 101.75 76.3523 101.92 76.5789 102.045C76.8055 102.166 77.0691 102.227 77.3699 102.227C77.6668 102.227 77.9266 102.166 78.1492 102.045C78.3758 101.92 78.5633 101.75 78.7117 101.535C78.8602 101.32 78.9715 101.074 79.0457 100.797C79.1238 100.516 79.1629 100.217 79.1629 99.9004V99.7656C79.1629 99.4531 79.1238 99.1582 79.0457 98.8809C78.9715 98.5996 78.8582 98.3516 78.7059 98.1367C78.5574 97.918 78.3699 97.7461 78.1434 97.6211C77.9207 97.4961 77.659 97.4336 77.3582 97.4336C77.0613 97.4336 76.7996 97.4961 76.5731 97.6211C76.3504 97.7461 76.1629 97.918 76.0106 98.1367C75.8621 98.3516 75.7508 98.5996 75.6766 98.8809C75.6023 99.1582 75.5652 99.4531 75.5652 99.7656ZM88.4801 101.318C88.4801 101.162 88.4449 101.018 88.3746 100.885C88.3082 100.748 88.1695 100.625 87.9586 100.516C87.7516 100.402 87.4391 100.305 87.0211 100.223C86.6695 100.148 86.3512 100.061 86.066 99.959C85.7848 99.8574 85.5445 99.7344 85.3453 99.5898C85.15 99.4453 84.9996 99.2754 84.8941 99.0801C84.7887 98.8848 84.7359 98.6562 84.7359 98.3945C84.7359 98.1445 84.7906 97.9082 84.9 97.6855C85.0133 97.4629 85.1715 97.2656 85.3746 97.0938C85.5816 96.9219 85.8297 96.7871 86.1188 96.6895C86.4078 96.5918 86.7301 96.543 87.0855 96.543C87.5934 96.543 88.027 96.6328 88.3863 96.8125C88.7457 96.9922 89.0211 97.2324 89.2125 97.5332C89.4039 97.8301 89.4996 98.1602 89.4996 98.5234H88.4156C88.4156 98.3477 88.3629 98.1777 88.2574 98.0137C88.1559 97.8457 88.0055 97.707 87.8063 97.5977C87.6109 97.4883 87.3707 97.4336 87.0855 97.4336C86.7848 97.4336 86.5406 97.4805 86.3531 97.5742C86.1695 97.6641 86.0348 97.7793 85.9488 97.9199C85.8668 98.0605 85.8258 98.209 85.8258 98.3652C85.8258 98.4824 85.8453 98.5879 85.8844 98.6816C85.9273 98.7715 86.0016 98.8555 86.107 98.9336C86.2125 99.0078 86.3609 99.0781 86.5523 99.1445C86.7438 99.2109 86.9879 99.2773 87.2848 99.3438C87.8043 99.4609 88.232 99.6016 88.568 99.7656C88.9039 99.9297 89.1539 100.131 89.318 100.369C89.482 100.607 89.5641 100.896 89.5641 101.236C89.5641 101.514 89.5055 101.768 89.3883 101.998C89.275 102.229 89.109 102.428 88.8902 102.596C88.6754 102.76 88.4176 102.889 88.1168 102.982C87.8199 103.072 87.4859 103.117 87.1148 103.117C86.5563 103.117 86.0836 103.018 85.6969 102.818C85.3102 102.619 85.0172 102.361 84.818 102.045C84.6188 101.729 84.5191 101.395 84.5191 101.043H85.609C85.6246 101.34 85.7105 101.576 85.8668 101.752C86.023 101.924 86.2145 102.047 86.441 102.121C86.6676 102.191 86.8922 102.227 87.1148 102.227C87.4117 102.227 87.6598 102.188 87.859 102.109C88.0621 102.031 88.2164 101.924 88.3219 101.787C88.4273 101.65 88.4801 101.494 88.4801 101.318ZM92.1719 94V103H91.0879V94H92.1719ZM91.9141 99.5898L91.4629 99.5723C91.4668 99.1387 91.5312 98.7383 91.6562 98.3711C91.7812 98 91.957 97.6777 92.1836 97.4043C92.4102 97.1309 92.6797 96.9199 92.9922 96.7715C93.3086 96.6191 93.6582 96.543 94.041 96.543C94.3535 96.543 94.6348 96.5859 94.8848 96.6719C95.1348 96.7539 95.3477 96.8867 95.5234 97.0703C95.7031 97.2539 95.8398 97.4922 95.9336 97.7852C96.0273 98.0742 96.0742 98.4277 96.0742 98.8457V103H94.9844V98.834C94.9844 98.502 94.9355 98.2363 94.8379 98.0371C94.7402 97.834 94.5977 97.6875 94.4102 97.5977C94.2227 97.5039 93.9922 97.457 93.7188 97.457C93.4492 97.457 93.2031 97.5137 92.9805 97.627C92.7617 97.7402 92.5723 97.8965 92.4121 98.0957C92.2559 98.2949 92.1328 98.5234 92.043 98.7812C91.957 99.0352 91.9141 99.3047 91.9141 99.5898ZM97.5102 99.9004V99.7656C97.5102 99.3086 97.5766 98.8848 97.7094 98.4941C97.8422 98.0996 98.0336 97.7578 98.2836 97.4688C98.5336 97.1758 98.8363 96.9492 99.1918 96.7891C99.5473 96.625 99.9457 96.543 100.387 96.543C100.832 96.543 101.233 96.625 101.588 96.7891C101.948 96.9492 102.252 97.1758 102.502 97.4688C102.756 97.7578 102.95 98.0996 103.082 98.4941C103.215 98.8848 103.282 99.3086 103.282 99.7656V99.9004C103.282 100.357 103.215 100.781 103.082 101.172C102.95 101.562 102.756 101.904 102.502 102.197C102.252 102.486 101.95 102.713 101.594 102.877C101.243 103.037 100.844 103.117 100.399 103.117C99.9535 103.117 99.5531 103.037 99.1977 102.877C98.8422 102.713 98.5375 102.486 98.2836 102.197C98.0336 101.904 97.8422 101.562 97.7094 101.172C97.5766 100.781 97.5102 100.357 97.5102 99.9004ZM98.5941 99.7656V99.9004C98.5941 100.217 98.6313 100.516 98.7055 100.797C98.7797 101.074 98.891 101.32 99.0395 101.535C99.1918 101.75 99.3813 101.92 99.6078 102.045C99.8344 102.166 100.098 102.227 100.399 102.227C100.696 102.227 100.955 102.166 101.178 102.045C101.405 101.92 101.592 101.75 101.741 101.535C101.889 101.32 102 101.074 102.075 100.797C102.153 100.516 102.192 100.217 102.192 99.9004V99.7656C102.192 99.4531 102.153 99.1582 102.075 98.8809C102 98.5996 101.887 98.3516 101.735 98.1367C101.586 97.918 101.399 97.7461 101.172 97.6211C100.95 97.4961 100.688 97.4336 100.387 97.4336C100.09 97.4336 99.8285 97.4961 99.602 97.6211C99.3793 97.7461 99.1918 97.918 99.0395 98.1367C98.891 98.3516 98.7797 98.5996 98.7055 98.8809C98.6313 99.1582 98.5941 99.4531 98.5941 99.7656ZM106.346 101.875L107.975 96.6602H108.69L108.55 97.6973L106.891 103H106.194L106.346 101.875ZM105.251 96.6602L106.639 101.934L106.739 103H106.007L104.167 96.6602H105.251ZM110.249 101.893L111.573 96.6602H112.651L110.811 103H110.085L110.249 101.893ZM108.848 96.6602L110.442 101.787L110.624 103H109.932L108.227 97.6855L108.087 96.6602H108.848ZM114.122 101.711V102.584C114.122 102.939 114.032 103.314 113.853 103.709C113.673 104.107 113.421 104.439 113.097 104.705L112.482 104.277C112.607 104.105 112.712 103.93 112.798 103.75C112.884 103.574 112.948 103.391 112.991 103.199C113.038 103.012 113.062 102.812 113.062 102.602V101.711H114.122ZM121.336 96.6602V97.4922H117.908V96.6602H121.336ZM119.068 95.1191H120.152V101.43C120.152 101.645 120.186 101.807 120.252 101.916C120.318 102.025 120.404 102.098 120.51 102.133C120.615 102.168 120.729 102.186 120.85 102.186C120.939 102.186 121.033 102.178 121.131 102.162C121.232 102.143 121.309 102.127 121.359 102.115L121.365 103C121.279 103.027 121.166 103.053 121.025 103.076C120.889 103.104 120.723 103.117 120.527 103.117C120.262 103.117 120.018 103.064 119.795 102.959C119.572 102.854 119.395 102.678 119.262 102.432C119.133 102.182 119.068 101.846 119.068 101.424V95.1191ZM123.791 97.6562V103H122.707V96.6602H123.762L123.791 97.6562ZM125.772 96.625L125.766 97.6328C125.676 97.6133 125.59 97.6016 125.508 97.5977C125.43 97.5898 125.34 97.5859 125.239 97.5859C124.989 97.5859 124.768 97.625 124.577 97.7031C124.385 97.7812 124.223 97.8906 124.09 98.0312C123.957 98.1719 123.852 98.3398 123.774 98.5352C123.7 98.7266 123.651 98.9375 123.627 99.168L123.323 99.3438C123.323 98.9609 123.36 98.6016 123.434 98.2656C123.512 97.9297 123.631 97.6328 123.791 97.375C123.952 97.1133 124.155 96.9102 124.401 96.7656C124.651 96.6172 124.948 96.543 125.291 96.543C125.37 96.543 125.459 96.5527 125.561 96.5723C125.663 96.5879 125.733 96.6055 125.772 96.625ZM128.761 102.344L130.524 96.6602H131.684L129.141 103.979C129.083 104.135 129.005 104.303 128.907 104.482C128.813 104.666 128.692 104.84 128.544 105.004C128.395 105.168 128.216 105.301 128.005 105.402C127.798 105.508 127.55 105.561 127.261 105.561C127.175 105.561 127.065 105.549 126.932 105.525C126.8 105.502 126.706 105.482 126.651 105.467L126.645 104.588C126.677 104.592 126.725 104.596 126.792 104.6C126.862 104.607 126.911 104.611 126.938 104.611C127.184 104.611 127.393 104.578 127.565 104.512C127.737 104.449 127.882 104.342 127.999 104.189C128.12 104.041 128.223 103.836 128.309 103.574L128.761 102.344ZM127.466 96.6602L129.112 101.582L129.393 102.725L128.614 103.123L126.282 96.6602H127.466ZM139.578 101.916V98.6523C139.578 98.4023 139.527 98.1855 139.425 98.002C139.328 97.8145 139.179 97.6699 138.98 97.5684C138.781 97.4668 138.535 97.416 138.242 97.416C137.968 97.416 137.728 97.4629 137.521 97.5566C137.318 97.6504 137.158 97.7734 137.041 97.9258C136.927 98.0781 136.871 98.2422 136.871 98.418H135.787C135.787 98.1914 135.845 97.9668 135.963 97.7441C136.08 97.5215 136.248 97.3203 136.466 97.1406C136.689 96.957 136.955 96.8125 137.263 96.707C137.576 96.5977 137.923 96.543 138.306 96.543C138.767 96.543 139.173 96.6211 139.525 96.7773C139.88 96.9336 140.158 97.1699 140.357 97.4863C140.56 97.7988 140.662 98.1914 140.662 98.6641V101.617C140.662 101.828 140.679 102.053 140.714 102.291C140.754 102.529 140.81 102.734 140.884 102.906V103H139.754C139.699 102.875 139.656 102.709 139.625 102.502C139.593 102.291 139.578 102.096 139.578 101.916ZM139.765 99.1562L139.777 99.918H138.681C138.373 99.918 138.097 99.9434 137.855 99.9941C137.613 100.041 137.41 100.113 137.246 100.211C137.082 100.309 136.957 100.432 136.871 100.58C136.785 100.725 136.742 100.895 136.742 101.09C136.742 101.289 136.787 101.471 136.877 101.635C136.966 101.799 137.101 101.93 137.281 102.027C137.464 102.121 137.689 102.168 137.955 102.168C138.287 102.168 138.58 102.098 138.834 101.957C139.088 101.816 139.289 101.645 139.437 101.441C139.589 101.238 139.671 101.041 139.683 100.85L140.146 101.371C140.119 101.535 140.045 101.717 139.923 101.916C139.802 102.115 139.64 102.307 139.437 102.49C139.238 102.67 139 102.82 138.722 102.941C138.449 103.059 138.14 103.117 137.796 103.117C137.367 103.117 136.99 103.033 136.666 102.865C136.345 102.697 136.095 102.473 135.916 102.191C135.74 101.906 135.652 101.588 135.652 101.236C135.652 100.896 135.718 100.598 135.851 100.34C135.984 100.078 136.175 99.8613 136.425 99.6895C136.675 99.5137 136.976 99.3809 137.328 99.291C137.679 99.2012 138.072 99.1562 138.505 99.1562H139.765ZM143.645 94V103H142.555V94H143.645ZM148.139 96.6602V97.4922H144.711V96.6602H148.139ZM145.871 95.1191H146.955V101.43C146.955 101.645 146.989 101.807 147.055 101.916C147.121 102.025 147.207 102.098 147.313 102.133C147.418 102.168 147.532 102.186 147.653 102.186C147.743 102.186 147.836 102.178 147.934 102.162C148.036 102.143 148.112 102.127 148.163 102.115L148.168 103C148.082 103.027 147.969 103.053 147.829 103.076C147.692 103.104 147.526 103.117 147.33 103.117C147.065 103.117 146.821 103.064 146.598 102.959C146.375 102.854 146.198 102.678 146.065 102.432C145.936 102.182 145.871 101.846 145.871 101.424V95.1191ZM152.141 103.117C151.7 103.117 151.3 103.043 150.94 102.895C150.585 102.742 150.278 102.529 150.02 102.256C149.766 101.982 149.571 101.658 149.434 101.283C149.298 100.908 149.229 100.498 149.229 100.053V99.8066C149.229 99.291 149.305 98.832 149.458 98.4297C149.61 98.0234 149.817 97.6797 150.079 97.3984C150.341 97.1172 150.638 96.9043 150.97 96.7598C151.302 96.6152 151.645 96.543 152.001 96.543C152.454 96.543 152.845 96.6211 153.173 96.7773C153.505 96.9336 153.776 97.1523 153.987 97.4336C154.198 97.7109 154.354 98.0391 154.456 98.418C154.557 98.793 154.608 99.2031 154.608 99.6484V100.135H149.874V99.25H153.524V99.168C153.509 98.8867 153.45 98.6133 153.348 98.3477C153.251 98.082 153.095 97.8633 152.88 97.6914C152.665 97.5195 152.372 97.4336 152.001 97.4336C151.755 97.4336 151.528 97.4863 151.321 97.5918C151.114 97.6934 150.936 97.8457 150.788 98.0488C150.639 98.252 150.524 98.5 150.442 98.793C150.36 99.0859 150.319 99.4238 150.319 99.8066V100.053C150.319 100.354 150.36 100.637 150.442 100.902C150.528 101.164 150.651 101.395 150.811 101.594C150.975 101.793 151.173 101.949 151.403 102.062C151.638 102.176 151.903 102.232 152.2 102.232C152.583 102.232 152.907 102.154 153.173 101.998C153.438 101.842 153.671 101.633 153.87 101.371L154.526 101.893C154.389 102.1 154.216 102.297 154.005 102.484C153.794 102.672 153.534 102.824 153.225 102.941C152.921 103.059 152.559 103.117 152.141 103.117ZM157.058 97.6562V103H155.974V96.6602H157.029L157.058 97.6562ZM159.038 96.625L159.032 97.6328C158.943 97.6133 158.857 97.6016 158.775 97.5977C158.696 97.5898 158.607 97.5859 158.505 97.5859C158.255 97.5859 158.034 97.625 157.843 97.7031C157.652 97.7812 157.489 97.8906 157.357 98.0312C157.224 98.1719 157.118 98.3398 157.04 98.5352C156.966 98.7266 156.917 98.9375 156.894 99.168L156.589 99.3438C156.589 98.9609 156.626 98.6016 156.7 98.2656C156.779 97.9297 156.898 97.6328 157.058 97.375C157.218 97.1133 157.421 96.9102 157.667 96.7656C157.917 96.6172 158.214 96.543 158.558 96.543C158.636 96.543 158.726 96.5527 158.827 96.5723C158.929 96.5879 158.999 96.6055 159.038 96.625ZM161.318 96.6602V103H160.228V96.6602H161.318ZM160.146 94.9785C160.146 94.8027 160.199 94.6543 160.304 94.5332C160.414 94.4121 160.574 94.3516 160.785 94.3516C160.992 94.3516 161.15 94.4121 161.259 94.5332C161.373 94.6543 161.429 94.8027 161.429 94.9785C161.429 95.1465 161.373 95.291 161.259 95.4121C161.15 95.5293 160.992 95.5879 160.785 95.5879C160.574 95.5879 160.414 95.5293 160.304 95.4121C160.199 95.291 160.146 95.1465 160.146 94.9785ZM164.242 98.0137V103H163.158V96.6602H164.184L164.242 98.0137ZM163.984 99.5898L163.533 99.5723C163.537 99.1387 163.602 98.7383 163.727 98.3711C163.852 98 164.027 97.6777 164.254 97.4043C164.48 97.1309 164.75 96.9199 165.062 96.7715C165.379 96.6191 165.729 96.543 166.111 96.543C166.424 96.543 166.705 96.5859 166.955 96.6719C167.205 96.7539 167.418 96.8867 167.594 97.0703C167.773 97.2539 167.91 97.4922 168.004 97.7852C168.098 98.0742 168.145 98.4277 168.145 98.8457V103H167.055V98.834C167.055 98.502 167.006 98.2363 166.908 98.0371C166.811 97.834 166.668 97.6875 166.48 97.5977C166.293 97.5039 166.062 97.457 165.789 97.457C165.52 97.457 165.273 97.5137 165.051 97.627C164.832 97.7402 164.643 97.8965 164.482 98.0957C164.326 98.2949 164.203 98.5234 164.113 98.7812C164.027 99.0352 163.984 99.3047 163.984 99.5898ZM173.998 96.6602H174.983V102.865C174.983 103.424 174.87 103.9 174.643 104.295C174.416 104.689 174.1 104.988 173.694 105.191C173.291 105.398 172.827 105.502 172.299 105.502C172.08 105.502 171.823 105.467 171.526 105.396C171.233 105.33 170.944 105.215 170.659 105.051C170.377 104.891 170.141 104.674 169.95 104.4L170.518 103.756C170.784 104.076 171.061 104.299 171.35 104.424C171.643 104.549 171.932 104.611 172.217 104.611C172.561 104.611 172.858 104.547 173.108 104.418C173.358 104.289 173.551 104.098 173.688 103.844C173.829 103.594 173.899 103.285 173.899 102.918V98.0547L173.998 96.6602ZM169.633 99.9004V99.7773C169.633 99.293 169.69 98.8535 169.803 98.459C169.92 98.0605 170.086 97.7188 170.301 97.4336C170.52 97.1484 170.784 96.9297 171.092 96.7773C171.401 96.6211 171.748 96.543 172.135 96.543C172.534 96.543 172.881 96.6133 173.178 96.7539C173.479 96.8906 173.733 97.0918 173.94 97.3574C174.151 97.6191 174.317 97.9355 174.438 98.3066C174.559 98.6777 174.643 99.0977 174.69 99.5664V100.105C174.647 100.57 174.563 100.988 174.438 101.359C174.317 101.73 174.151 102.047 173.94 102.309C173.733 102.57 173.479 102.771 173.178 102.912C172.877 103.049 172.526 103.117 172.123 103.117C171.745 103.117 171.401 103.037 171.092 102.877C170.788 102.717 170.526 102.492 170.307 102.203C170.088 101.914 169.92 101.574 169.803 101.184C169.69 100.789 169.633 100.361 169.633 99.9004ZM170.717 99.7773V99.9004C170.717 100.217 170.748 100.514 170.811 100.791C170.877 101.068 170.977 101.312 171.11 101.523C171.246 101.734 171.42 101.9 171.631 102.021C171.842 102.139 172.094 102.197 172.387 102.197C172.746 102.197 173.043 102.121 173.278 101.969C173.512 101.816 173.698 101.615 173.834 101.365C173.975 101.115 174.084 100.844 174.163 100.551V99.1387C174.12 98.9238 174.053 98.7168 173.963 98.5176C173.877 98.3145 173.764 98.1348 173.623 97.9785C173.487 97.8184 173.317 97.6914 173.114 97.5977C172.911 97.5039 172.672 97.457 172.399 97.457C172.102 97.457 171.846 97.5195 171.631 97.6445C171.42 97.7656 171.246 97.9336 171.11 98.1484C170.977 98.3594 170.877 98.6055 170.811 98.8867C170.748 99.1641 170.717 99.4609 170.717 99.7773ZM182.46 96.6602V97.4922H179.032V96.6602H182.46ZM180.193 95.1191H181.277V101.43C181.277 101.645 181.31 101.807 181.376 101.916C181.443 102.025 181.529 102.098 181.634 102.133C181.739 102.168 181.853 102.186 181.974 102.186C182.064 102.186 182.157 102.178 182.255 102.162C182.357 102.143 182.433 102.127 182.484 102.115L182.489 103C182.404 103.027 182.29 103.053 182.15 103.076C182.013 103.104 181.847 103.117 181.652 103.117C181.386 103.117 181.142 103.064 180.919 102.959C180.696 102.854 180.519 102.678 180.386 102.432C180.257 102.182 180.193 101.846 180.193 101.424V95.1191ZM184.916 94V103H183.832V94H184.916ZM184.658 99.5898L184.207 99.5723C184.211 99.1387 184.275 98.7383 184.4 98.3711C184.525 98 184.701 97.6777 184.927 97.4043C185.154 97.1309 185.423 96.9199 185.736 96.7715C186.052 96.6191 186.402 96.543 186.785 96.543C187.097 96.543 187.379 96.5859 187.629 96.6719C187.879 96.7539 188.091 96.8867 188.267 97.0703C188.447 97.2539 188.584 97.4922 188.677 97.7852C188.771 98.0742 188.818 98.4277 188.818 98.8457V103H187.728V98.834C187.728 98.502 187.679 98.2363 187.582 98.0371C187.484 97.834 187.341 97.6875 187.154 97.5977C186.966 97.5039 186.736 97.457 186.463 97.457C186.193 97.457 185.947 97.5137 185.724 97.627C185.505 97.7402 185.316 97.8965 185.156 98.0957C185 98.2949 184.877 98.5234 184.787 98.7812C184.701 99.0352 184.658 99.3047 184.658 99.5898ZM193.172 103.117C192.73 103.117 192.33 103.043 191.971 102.895C191.615 102.742 191.309 102.529 191.051 102.256C190.797 101.982 190.602 101.658 190.465 101.283C190.328 100.908 190.26 100.498 190.26 100.053V99.8066C190.26 99.291 190.336 98.832 190.488 98.4297C190.641 98.0234 190.848 97.6797 191.109 97.3984C191.371 97.1172 191.668 96.9043 192 96.7598C192.332 96.6152 192.676 96.543 193.031 96.543C193.484 96.543 193.875 96.6211 194.203 96.7773C194.535 96.9336 194.807 97.1523 195.018 97.4336C195.229 97.7109 195.385 98.0391 195.486 98.418C195.588 98.793 195.639 99.2031 195.639 99.6484V100.135H190.904V99.25H194.555V99.168C194.539 98.8867 194.48 98.6133 194.379 98.3477C194.281 98.082 194.125 97.8633 193.91 97.6914C193.695 97.5195 193.402 97.4336 193.031 97.4336C192.785 97.4336 192.559 97.4863 192.352 97.5918C192.145 97.6934 191.967 97.8457 191.818 98.0488C191.67 98.252 191.555 98.5 191.473 98.793C191.391 99.0859 191.35 99.4238 191.35 99.8066V100.053C191.35 100.354 191.391 100.637 191.473 100.902C191.559 101.164 191.682 101.395 191.842 101.594C192.006 101.793 192.203 101.949 192.434 102.062C192.668 102.176 192.934 102.232 193.23 102.232C193.613 102.232 193.938 102.154 194.203 101.998C194.469 101.842 194.701 101.633 194.9 101.371L195.557 101.893C195.42 102.1 195.246 102.297 195.035 102.484C194.824 102.672 194.564 102.824 194.256 102.941C193.951 103.059 193.59 103.117 193.172 103.117ZM201.528 103H200.444V96.1094C200.444 95.6289 200.538 95.2227 200.725 94.8906C200.913 94.5586 201.18 94.3066 201.528 94.1348C201.876 93.9629 202.288 93.877 202.764 93.877C203.046 93.877 203.321 93.9121 203.591 93.9824C203.86 94.0488 204.137 94.1328 204.423 94.2344L204.241 95.1484C204.061 95.0781 203.852 95.0117 203.614 94.9492C203.38 94.8828 203.122 94.8496 202.841 94.8496C202.376 94.8496 202.04 94.9551 201.833 95.166C201.63 95.373 201.528 95.6875 201.528 96.1094V103ZM202.823 96.6602V97.4922H199.442V96.6602H202.823ZM204.956 96.6602V103H203.872V96.6602H204.956ZM208.015 94V103H206.925V94H208.015ZM212.509 96.6602V97.4922H209.082V96.6602H212.509ZM210.242 95.1191H211.326V101.43C211.326 101.645 211.359 101.807 211.425 101.916C211.492 102.025 211.578 102.098 211.683 102.133C211.789 102.168 211.902 102.186 212.023 102.186C212.113 102.186 212.207 102.178 212.304 102.162C212.406 102.143 212.482 102.127 212.533 102.115L212.539 103C212.453 103.027 212.339 103.053 212.199 103.076C212.062 103.104 211.896 103.117 211.701 103.117C211.435 103.117 211.191 103.064 210.968 102.959C210.746 102.854 210.568 102.678 210.435 102.432C210.306 102.182 210.242 101.846 210.242 101.424V95.1191ZM216.512 103.117C216.07 103.117 215.67 103.043 215.311 102.895C214.955 102.742 214.648 102.529 214.391 102.256C214.137 101.982 213.941 101.658 213.805 101.283C213.668 100.908 213.6 100.498 213.6 100.053V99.8066C213.6 99.291 213.676 98.832 213.828 98.4297C213.98 98.0234 214.188 97.6797 214.449 97.3984C214.711 97.1172 215.008 96.9043 215.34 96.7598C215.672 96.6152 216.016 96.543 216.371 96.543C216.824 96.543 217.215 96.6211 217.543 96.7773C217.875 96.9336 218.146 97.1523 218.357 97.4336C218.568 97.7109 218.725 98.0391 218.826 98.418C218.928 98.793 218.979 99.2031 218.979 99.6484V100.135H214.244V99.25H217.895V99.168C217.879 98.8867 217.82 98.6133 217.719 98.3477C217.621 98.082 217.465 97.8633 217.25 97.6914C217.035 97.5195 216.742 97.4336 216.371 97.4336C216.125 97.4336 215.898 97.4863 215.691 97.5918C215.484 97.6934 215.307 97.8457 215.158 98.0488C215.01 98.252 214.895 98.5 214.812 98.793C214.73 99.0859 214.689 99.4238 214.689 99.8066V100.053C214.689 100.354 214.73 100.637 214.812 100.902C214.898 101.164 215.021 101.395 215.182 101.594C215.346 101.793 215.543 101.949 215.773 102.062C216.008 102.176 216.273 102.232 216.57 102.232C216.953 102.232 217.277 102.154 217.543 101.998C217.809 101.842 218.041 101.633 218.24 101.371L218.896 101.893C218.76 102.1 218.586 102.297 218.375 102.484C218.164 102.672 217.904 102.824 217.596 102.941C217.291 103.059 216.93 103.117 216.512 103.117ZM221.428 97.6562V103H220.344V96.6602H221.399L221.428 97.6562ZM223.409 96.625L223.403 97.6328C223.313 97.6133 223.227 97.6016 223.145 97.5977C223.067 97.5898 222.977 97.5859 222.875 97.5859C222.625 97.5859 222.405 97.625 222.213 97.7031C222.022 97.7812 221.86 97.8906 221.727 98.0312C221.594 98.1719 221.489 98.3398 221.411 98.5352C221.336 98.7266 221.288 98.9375 221.264 99.168L220.959 99.3438C220.959 98.9609 220.996 98.6016 221.071 98.2656C221.149 97.9297 221.268 97.6328 221.428 97.375C221.588 97.1133 221.791 96.9102 222.038 96.7656C222.288 96.6172 222.584 96.543 222.928 96.543C223.006 96.543 223.096 96.5527 223.198 96.5723C223.299 96.5879 223.37 96.6055 223.409 96.625ZM228.202 101.318C228.202 101.162 228.167 101.018 228.096 100.885C228.03 100.748 227.891 100.625 227.68 100.516C227.473 100.402 227.161 100.305 226.743 100.223C226.391 100.148 226.073 100.061 225.788 99.959C225.507 99.8574 225.266 99.7344 225.067 99.5898C224.872 99.4453 224.721 99.2754 224.616 99.0801C224.511 98.8848 224.458 98.6562 224.458 98.3945C224.458 98.1445 224.512 97.9082 224.622 97.6855C224.735 97.4629 224.893 97.2656 225.096 97.0938C225.304 96.9219 225.552 96.7871 225.841 96.6895C226.13 96.5918 226.452 96.543 226.807 96.543C227.315 96.543 227.749 96.6328 228.108 96.8125C228.468 96.9922 228.743 97.2324 228.934 97.5332C229.126 97.8301 229.221 98.1602 229.221 98.5234H228.137C228.137 98.3477 228.085 98.1777 227.979 98.0137C227.878 97.8457 227.727 97.707 227.528 97.5977C227.333 97.4883 227.093 97.4336 226.807 97.4336C226.507 97.4336 226.262 97.4805 226.075 97.5742C225.891 97.6641 225.757 97.7793 225.671 97.9199C225.589 98.0605 225.548 98.209 225.548 98.3652C225.548 98.4824 225.567 98.5879 225.606 98.6816C225.649 98.7715 225.723 98.8555 225.829 98.9336C225.934 99.0078 226.083 99.0781 226.274 99.1445C226.466 99.2109 226.71 99.2773 227.007 99.3438C227.526 99.4609 227.954 99.6016 228.29 99.7656C228.626 99.9297 228.876 100.131 229.04 100.369C229.204 100.607 229.286 100.896 229.286 101.236C229.286 101.514 229.227 101.768 229.11 101.998C228.997 102.229 228.831 102.428 228.612 102.596C228.397 102.76 228.139 102.889 227.839 102.982C227.542 103.072 227.208 103.117 226.837 103.117C226.278 103.117 225.805 103.018 225.419 102.818C225.032 102.619 224.739 102.361 224.54 102.045C224.341 101.729 224.241 101.395 224.241 101.043H225.331C225.346 101.34 225.432 101.576 225.589 101.752C225.745 101.924 225.936 102.047 226.163 102.121C226.389 102.191 226.614 102.227 226.837 102.227C227.134 102.227 227.382 102.188 227.581 102.109C227.784 102.031 227.938 101.924 228.044 101.787C228.149 101.65 228.202 101.494 228.202 101.318Z"
    fill="#B3BEC4"
  />
</svg>
