<svg width="100%" height="100%" viewBox="0 0 254 100" fill="none" xmlns="http://www.w3.org/2000/svg">
  <path
    d="M145.75 42.9167H152V47.0833H145.75V42.9167ZM102 42.9167H108.25V47.0833H102V42.9167ZM124.917 20H129.083V26.25H124.917V20Z"
    fill="#B3BEC4"
  />
  <path d="M106.818 27.7646L109.764 24.8183L147.33 62.3827L144.383 65.329L106.818 27.7646Z" fill="#B3BEC4" />
  <path
    opacity="0.3"
    d="M139.083 48.125C139.292 47.0833 139.5 46.0417 139.5 45C139.5 38.125 133.875 32.5 127 32.5C125.958 32.5 124.708 32.7083 123.875 32.9167L139.083 48.125ZM119.708 34.7917C116.583 37.0833 114.5 40.8333 114.5 45C114.5 50.4167 118.042 55 122.833 56.875V65.8333H131.167V56.875C133.667 56.0417 135.75 54.375 137.208 52.2917L119.708 34.7917Z"
    fill="#B3BEC4"
  />
  <path d="M138.784 30.3421L143.204 25.9227L146.15 28.8689L141.731 33.2884L138.784 30.3421Z" fill="#B3BEC4" />
  <path d="M107.848 61.1317L112.268 56.7122L115.214 59.6585L110.795 64.078L107.848 61.1317Z" fill="#B3BEC4" />
  <path d="M102 42.9167H108.25V47.0833H102V42.9167Z" fill="#B3BEC4" />
  <path
    d="M135.542 50.8333C134.292 52.7083 132.625 54.1667 130.333 54.7917L129.083 55.2083V63.75H124.917V55.2083L123.458 54.7917C119.292 53.3333 116.583 49.375 116.583 45C116.583 41.4583 118.458 38.125 121.167 36.25L118.25 33.3333C114.708 36.0417 112.417 40.2083 112.417 45C112.417 50.625 115.75 55.8333 120.75 58.125V63.75C120.75 66.0417 122.625 67.9167 124.917 67.9167H129.083C131.375 67.9167 133.25 66.0417 133.25 63.75V58.125C135.333 57.0833 137.208 55.625 138.667 53.75L135.542 50.8333ZM125.542 34.7917C125.958 34.5833 126.583 34.5833 127 34.5833C132.833 34.5833 137.417 39.1667 137.417 45C137.417 45.625 137.417 46.0417 137.208 46.4583L140.542 49.7917C141.167 48.3333 141.375 46.6667 141.375 44.7917C141.375 36.6667 134.917 30.2083 126.792 30.2083C125.125 30.2083 123.458 30.625 121.792 31.0417L125.542 34.7917Z"
    fill="#B3BEC4"
  />
</svg>
