<svg xmlns="http://www.w3.org/2000/svg" width="20" height="20" viewBox="0 0 443.9 443.9">
	<path
		d="M387.342 43.11c0-23.771-19.339-43.11-43.11-43.11h-241.32C89.096 0 77.856 11.239 77.856 25.055v18.674h-4.198c-4.802 0-9.303 1.866-12.66 5.24a17.8 17.8 0 00-5.25 12.669c0 9.875 8.035 17.91 17.91 17.91h4.198v25.236h-4.198c-4.802 0-9.303 1.866-12.66 5.24a17.8 17.8 0 00-5.25 12.67c0 9.875 8.035 17.91 17.91 17.91h4.198v25.236h-4.198c-4.802 0-9.303 1.866-12.66 5.24a17.8 17.8 0 00-5.25 12.67c0 9.875 8.035 17.91 17.91 17.91h4.198v25.236h-4.198c-4.802 0-9.303 1.866-12.66 5.24a17.8 17.8 0 00-5.25 12.669c0 9.875 8.035 17.91 17.91 17.91h4.198v25.236h-4.198c-4.803 0-9.303 1.866-12.66 5.241a17.8 17.8 0 00-5.25 12.669c0 9.875 8.035 17.91 17.91 17.91h4.198v25.236h-4.198c-4.802 0-9.303 1.866-12.66 5.24a17.8 17.8 0 00-5.25 12.67c0 9.875 8.035 17.91 17.91 17.91h4.198v33.207h.002c0 13.815 11.24 25.055 25.055 25.055h241.315c23.771 0 43.11-19.339 43.11-43.11l.004-356.869zM73.658 65.548a3.914 3.914 0 01-3.91-3.91c0-1.339.625-2.246 1.163-2.783a3.842 3.842 0 012.748-1.127h4.198v7.82h-4.199zm0 61.056a3.914 3.914 0 01-3.91-3.91c0-1.339.625-2.246 1.163-2.783a3.842 3.842 0 012.748-1.127h4.198v7.82h-4.199zm0 61.056a3.914 3.914 0 01-3.91-3.91c0-1.339.625-2.246 1.163-2.783a3.842 3.842 0 012.748-1.127h4.198v7.82h-4.199zm0 61.056a3.914 3.914 0 01-3.91-3.91c0-1.339.625-2.246 1.163-2.783a3.842 3.842 0 012.748-1.127h4.198v7.82h-4.199zm0 61.056a3.914 3.914 0 01-3.91-3.91c0-1.339.625-2.246 1.164-2.784a3.839 3.839 0 012.747-1.126h4.198v7.82h-4.199zm18.198-7.82h7.024c2.842 7.533 10.105 12.916 18.621 12.916 10.981 0 19.915-8.934 19.915-19.915s-8.934-19.916-19.915-19.916c-8.515 0-15.779 5.382-18.621 12.915h-7.025v-47.056h7.024c2.842 7.533 10.106 12.916 18.621 12.916 10.981 0 19.915-8.934 19.915-19.916s-8.934-19.916-19.915-19.916c-8.516 0-15.779 5.382-18.621 12.916h-7.024V179.84h7.024c2.842 7.533 10.106 12.916 18.621 12.916 10.981 0 19.915-8.934 19.915-19.916 0-10.981-8.934-19.915-19.915-19.915-8.515 0-15.779 5.382-18.621 12.915h-7.025v-47.056h7.024c2.842 7.533 10.105 12.916 18.621 12.916 10.981 0 19.915-8.934 19.915-19.915s-8.934-19.916-19.915-19.916c-8.515 0-15.779 5.382-18.621 12.915h-7.025V57.729h7.024c2.842 7.533 10.106 12.916 18.621 12.916 10.981 0 19.915-8.934 19.915-19.916s-8.934-19.916-19.915-19.916c-8.516 0-15.779 5.382-18.621 12.916h-7.024V25.055c0-6.096 4.959-11.055 11.055-11.055h241.32c16.051 0 29.11 13.059 29.11 29.11l-.003 320.876c-.063 15.998-13.094 28.995-29.107 28.995H102.914c-3.967 0-7.72.931-11.058 2.58V363.01h7.024c2.842 7.533 10.106 12.916 18.621 12.916 10.981 0 19.915-8.934 19.915-19.916 0-10.981-8.934-19.915-19.915-19.915-8.515 0-15.779 5.382-18.621 12.915h-7.025v-47.058zm25.646-1.084c-3.262 0-5.916-2.653-5.916-5.915s2.654-5.916 5.916-5.916 5.915 2.654 5.915 5.916-2.653 5.915-5.915 5.915zm0-61.056c-3.262 0-5.916-2.654-5.916-5.916s2.654-5.916 5.916-5.916 5.915 2.654 5.915 5.916-2.653 5.916-5.915 5.916zm0-61.056c-3.262 0-5.916-2.654-5.916-5.916s2.654-5.915 5.916-5.915 5.915 2.653 5.915 5.915-2.653 5.916-5.915 5.916zm0-61.056c-3.262 0-5.916-2.653-5.916-5.915s2.654-5.916 5.916-5.916 5.915 2.654 5.915 5.916-2.653 5.915-5.915 5.915zm0-61.056c-3.262 0-5.916-2.654-5.916-5.916s2.654-5.916 5.916-5.916 5.915 2.654 5.915 5.916-2.653 5.916-5.915 5.916zm0 305.28c-3.262 0-5.916-2.654-5.916-5.916s2.654-5.915 5.916-5.915 5.915 2.653 5.915 5.915-2.653 5.916-5.915 5.916zm-43.844 8.904a3.914 3.914 0 01-3.91-3.91c0-1.339.625-2.246 1.163-2.783a3.842 3.842 0 012.748-1.127h4.198v7.82h-4.199zm270.571 58.262H102.914c-6.096 0-11.055-4.959-11.055-11.055s4.959-11.055 11.055-11.055H344.232c11.21 0 21.432-4.304 29.107-11.342v4.342c0 16.051-13.059 29.11-29.11 29.11z"
		fill="white" />
</svg>