<svg width="38" height="39" viewBox="0 0 38 39" fill="none" xmlns="http://www.w3.org/2000/svg">
<path opacity="0.3" d="M28.5001 33.875H9.50008C8.55008 33.875 7.91675 33.2417 7.91675 32.2917V16.4583C7.91675 15.5083 8.55008 14.875 9.50008 14.875H28.5001C29.4501 14.875 30.0834 15.5083 30.0834 16.4583V32.2917C30.0834 33.2417 29.4501 33.875 28.5001 33.875Z" fill="currentColor" fill-opacity="0.4"/>
<path d="M28.5001 14.875H25.3334V11.7083C25.3334 8.225 22.4834 5.375 19.0001 5.375C15.9918 5.375 13.4584 7.43334 12.8251 10.4417L9.65845 9.80834C10.6084 5.375 14.5668 2.20834 19.0001 2.20834C24.3834 2.20834 28.5001 6.325 28.5001 11.7083V14.875ZM22.1668 24.375C22.1668 26.1167 20.7418 27.5417 19.0001 27.5417C17.2584 27.5417 15.8334 26.1167 15.8334 24.375C15.8334 22.6333 17.2584 21.2083 19.0001 21.2083C20.7418 21.2083 22.1668 22.6333 22.1668 24.375Z" fill="currentColor" fill-opacity="0.4"/>
<path d="M28.4999 35.4583H9.49992C7.75825 35.4583 6.33325 34.0333 6.33325 32.2917V16.4583C6.33325 14.7167 7.75825 13.2917 9.49992 13.2917H28.4999C30.2416 13.2917 31.6666 14.7167 31.6666 16.4583V32.2917C31.6666 34.0333 30.2416 35.4583 28.4999 35.4583ZM9.49992 16.4583V32.2917H28.4999V16.4583H9.49992Z" fill="currentColor" fill-opacity="0.4"/>
</svg>
