<svg width="31" height="30" viewBox="0 0 31 30" fill="none" xmlns="http://www.w3.org/2000/svg">
<path d="M16.5 20.75C16.25 20.25 16 19.875 15.75 19.5C15.25 19 14.25 18.5 13.125 18.375L12.25 18.25L12.125 17.375C12 16.75 11.75 15.5 11 14.875C10.625 14.5 10.25 14.25 9.625 14.125L10.5 11.75C11.5 12.125 12.25 12.5 12.875 13.125C13.75 14 14.25 15.25 14.5 16.25C15.5 16.5 16.75 17 17.625 17.875C18.125 18.375 18.625 19.125 19 20L16.5 20.75Z" fill="#9D60FB"/>
<path d="M4.25 26.25L8.625 12.5L18.5 2.5L20.25 4.25L10.75 13.75L8 22.5L16.75 19.75L26.25 10.25L28 12L18 21.875L4.25 26.25Z" fill="#9D60FB"/>
<path opacity="0.3" d="M27.125 11.125L17.375 20.875L13.5 17L9.625 13.125L19.375 3.375L27.125 11.125Z" fill="#9D60FB"/>
<path d="M7.75 19.75L10.875 22.875L6.25 24.125L7.75 19.75Z" fill="#9D60FB"/>
</svg>
