<svg width="13" height="12" viewBox="0 0 13 12" xmlns="http://www.w3.org/2000/svg">
    <path fill-rule="evenodd" fill="red" clip-rule="evenodd" d="M4.67251 0.816C5.28451 -0.272 6.85051 -0.272 7.46185 0.816L11.9258 8.752C12.5258 9.81867 11.7552 11.136 10.5325 11.136H1.60251C0.378513 11.136 -0.392153 9.81933 0.207847 8.752L4.67251 0.816ZM6.86718 8.73667C6.86718 8.94884 6.78289 9.15232 6.63286 9.30235C6.48284 9.45238 6.27935 9.53667 6.06718 9.53667C5.85501 9.53667 5.65152 9.45238 5.50149 9.30235C5.35147 9.15232 5.26718 8.94884 5.26718 8.73667C5.26718 8.52449 5.35147 8.32101 5.50149 8.17098C5.65152 8.02095 5.85501 7.93667 6.06718 7.93667C6.27935 7.93667 6.48284 8.02095 6.63286 8.17098C6.78289 8.32101 6.86718 8.52449 6.86718 8.73667ZM6.06718 2.33667C5.85501 2.33667 5.65152 2.42095 5.50149 2.57098C5.35147 2.72101 5.26718 2.92449 5.26718 3.13667V5.53667C5.26718 5.74884 5.35147 5.95232 5.50149 6.10235C5.65152 6.25238 5.85501 6.33667 6.06718 6.33667C6.27935 6.33667 6.48284 6.25238 6.63286 6.10235C6.78289 5.95232 6.86718 5.74884 6.86718 5.53667V3.13667C6.86718 2.92449 6.78289 2.72101 6.63286 2.57098C6.48284 2.42095 6.27935 2.33667 6.06718 2.33667Z"/>
</svg>
