<svg width="21" height="20" viewBox="0 0 21 20" fill="none" xmlns="http://www.w3.org/2000/svg">
<path d="M20.5 18L18.5 20L13.5 15V13H15.5L20.5 18Z" fill="currentColor"/>
<path d="M12.1943 12.3308L12.9014 11.6237L15.3763 14.0985L14.6693 14.8056L12.1943 12.3308Z" fill="currentColor"/>
<path d="M8 9.99999L6.1 7.99999H2.5V5.99999H6.9L8 7.09999L9.1 5.99999H12L15.5 0.799988L19 5.99999H21.5V7.99999H18L15.5 4.29999L13 7.99999H9.9L8 9.99999Z" fill="currentColor"/>
<path d="M14.2 4C13.9 4.6 13.4 5.1 12.8 5.6C13.3 6.3 13.5 7.1 13.5 8C13.5 10.8 11.3 13 8.5 13C5.7 13 3.5 10.8 3.5 8C3.5 5.2 5.7 3 8.5 3C9.4 3 10.3 3.3 11.1 3.7L12.2 2C11.1 1.4 9.9 1 8.5 1C4.6 1 1.5 4.1 1.5 8C1.5 11.9 4.6 15 8.5 15C12.4 15 15.5 11.9 15.5 8C15.5 6.5 15 5.1 14.2 4Z" fill="currentColor"/>
</svg>
