<svg width="16" height="17" viewBox="0 0 16 17" fill="none" xmlns="http://www.w3.org/2000/svg">
<g clip-path="url(#clip0_1_932)">
<path d="M0.666504 3.16699V7.16699H4.6665" stroke="#9D60FB" stroke-width="1.5" stroke-linecap="round" stroke-linejoin="round"/>
<path d="M2.33984 10.4996C2.7721 11.7266 3.59139 12.7798 4.67427 13.5006C5.75716 14.2214 7.04496 14.5707 8.34365 14.496C9.64234 14.4212 10.8816 13.9264 11.8746 13.0861C12.8676 12.2459 13.5607 11.1056 13.8493 9.83722C14.138 8.56881 14.0066 7.24094 13.4749 6.05371C12.9433 4.86647 12.0402 3.88417 10.9017 3.25482C9.76327 2.62546 8.45111 2.38315 7.16296 2.56438C5.87481 2.74562 4.68045 3.34059 3.75984 4.25964L0.666504 7.16631" stroke="#9D60FB" stroke-width="1.5" stroke-linecap="round" stroke-linejoin="round"/>
</g>
<defs>
<clipPath id="clip0_1_932">
<rect width="16" height="16" fill="white" transform="translate(0 0.5)"/>
</clipPath>
</defs>
</svg>
