<svg width="24" height="24" viewBox="0 0 24 24" fill="none" xmlns="http://www.w3.org/2000/svg">
<path opacity="0.3" d="M19.2807 8.6L18.5807 7.39L17.3107 7.9L16.2507 8.33L15.3407 7.63C14.9507 7.33 14.5407 7.09 14.1107 6.92L13.0507 6.49L12.8907 5.36L12.7007 4H11.3007L11.1107 5.35L10.9507 6.48L9.8907 6.92C9.4807 7.09 9.0707 7.33 8.6407 7.65L7.7407 8.33L6.6907 7.91L5.4207 7.39L4.7207 8.6L5.8007 9.44L6.6907 10.14L6.5507 11.27C6.5207 11.57 6.5007 11.8 6.5007 12C6.5007 12.2 6.5207 12.43 6.5507 12.73L6.6907 13.86L5.8007 14.56L4.7207 15.4L5.4207 16.61L6.6907 16.1L7.7507 15.67L8.6607 16.37C9.0507 16.67 9.4607 16.91 9.8907 17.08L10.9507 17.51L11.1107 18.64L11.3007 20H12.6907L12.8807 18.65L13.0407 17.52L14.1007 17.09C14.5107 16.92 14.9207 16.68 15.3507 16.36L16.2507 15.68L17.2907 16.1L18.5607 16.61L19.2607 15.4L18.1807 14.56L17.2907 13.86L17.4307 12.73C17.4707 12.42 17.4807 12.21 17.4807 12C17.4807 11.79 17.4607 11.57 17.4307 11.27L17.2907 10.14L18.1807 9.44L19.2807 8.6ZM12.0007 16C9.7907 16 8.0007 14.21 8.0007 12C8.0007 9.79 9.7907 8 12.0007 8C14.2107 8 16.0007 9.79 16.0007 12C16.0007 14.21 14.2107 16 12.0007 16Z" fill="current"/>
<path d="M19.4308 12.98C19.4708 12.66 19.5008 12.34 19.5008 12C19.5008 11.66 19.4708 11.34 19.4308 11.02L21.5408 9.37C21.7308 9.22 21.7808 8.95 21.6608 8.73L19.6608 5.27C19.5708 5.11 19.4008 5.02 19.2208 5.02C19.1608 5.02 19.1008 5.03 19.0508 5.05L16.5608 6.05C16.0408 5.65 15.4808 5.32 14.8708 5.07L14.4908 2.42C14.4608 2.18 14.2508 2 14.0008 2H10.0008C9.75082 2 9.54082 2.18 9.51082 2.42L9.13082 5.07C8.52082 5.32 7.96082 5.66 7.44082 6.05L4.95082 5.05C4.89082 5.03 4.83082 5.02 4.77082 5.02C4.60082 5.02 4.43082 5.11 4.34082 5.27L2.34082 8.73C2.21082 8.95 2.27082 9.22 2.46082 9.37L4.57082 11.02C4.53082 11.34 4.50082 11.67 4.50082 12C4.50082 12.33 4.53082 12.66 4.57082 12.98L2.46082 14.63C2.27082 14.78 2.22082 15.05 2.34082 15.27L4.34082 18.73C4.43082 18.89 4.60082 18.98 4.78082 18.98C4.84082 18.98 4.90082 18.97 4.95082 18.95L7.44082 17.95C7.96082 18.35 8.52082 18.68 9.13082 18.93L9.51082 21.58C9.54082 21.82 9.75082 22 10.0008 22H14.0008C14.2508 22 14.4608 21.82 14.4908 21.58L14.8708 18.93C15.4808 18.68 16.0408 18.34 16.5608 17.95L19.0508 18.95C19.1108 18.97 19.1708 18.98 19.2308 18.98C19.4008 18.98 19.5708 18.89 19.6608 18.73L21.6608 15.27C21.7808 15.05 21.7308 14.78 21.5408 14.63L19.4308 12.98ZM17.4508 11.27C17.4908 11.58 17.5008 11.79 17.5008 12C17.5008 12.21 17.4808 12.43 17.4508 12.73L17.3108 13.86L18.2008 14.56L19.2808 15.4L18.5808 16.61L17.3108 16.1L16.2708 15.68L15.3708 16.36C14.9408 16.68 14.5308 16.92 14.1208 17.09L13.0608 17.52L12.9008 18.65L12.7008 20H11.3008L11.1108 18.65L10.9508 17.52L9.89082 17.09C9.46082 16.91 9.06082 16.68 8.66082 16.38L7.75082 15.68L6.69082 16.11L5.42082 16.62L4.72082 15.41L5.80082 14.57L6.69082 13.87L6.55082 12.74C6.52082 12.43 6.50082 12.2 6.50082 12C6.50082 11.8 6.52082 11.57 6.55082 11.27L6.69082 10.14L5.80082 9.44L4.72082 8.6L5.42082 7.39L6.69082 7.9L7.73082 8.32L8.63082 7.64C9.06082 7.32 9.47082 7.08 9.88082 6.91L10.9408 6.48L11.1008 5.35L11.3008 4H12.6908L12.8808 5.35L13.0408 6.48L14.1008 6.91C14.5308 7.09 14.9308 7.32 15.3308 7.62L16.2408 8.32L17.3008 7.89L18.5708 7.38L19.2708 8.59L18.2008 9.44L17.3108 10.14L17.4508 11.27ZM12.0008 8C9.79082 8 8.00082 9.79 8.00082 12C8.00082 14.21 9.79082 16 12.0008 16C14.2108 16 16.0008 14.21 16.0008 12C16.0008 9.79 14.2108 8 12.0008 8ZM12.0008 14C10.9008 14 10.0008 13.1 10.0008 12C10.0008 10.9 10.9008 10 12.0008 10C13.1008 10 14.0008 10.9 14.0008 12C14.0008 13.1 13.1008 14 12.0008 14Z" fill="current"/>
</svg>
