<svg width="20" height="20" viewBox="0 0 20 20" fill="none" xmlns="http://www.w3.org/2000/svg">
<path opacity="0.3" d="M15.0002 2.5C14.5581 2.5 14.1342 2.67559 13.8217 2.98816C13.5091 3.30072 13.3335 3.72464 13.3335 4.16667C13.3335 4.60869 13.5091 5.03262 13.8217 5.34518C14.1342 5.65774 14.5581 5.83333 15.0002 5.83333C15.4422 5.83333 15.8661 5.65774 16.1787 5.34518C16.4912 5.03262 16.6668 4.60869 16.6668 4.16667C16.6668 3.72464 16.4912 3.30072 16.1787 2.98816C15.8661 2.67559 15.4422 2.5 15.0002 2.5ZM15.0002 14.1667C14.5581 14.1667 14.1342 14.3423 13.8217 14.6548C13.5091 14.9674 13.3335 15.3913 13.3335 15.8333C13.3335 16.2754 13.5091 16.6993 13.8217 17.0118C14.1342 17.3244 14.5581 17.5 15.0002 17.5C15.4422 17.5 15.8661 17.3244 16.1787 17.0118C16.4912 16.6993 16.6668 16.2754 16.6668 15.8333C16.6668 15.3913 16.4912 14.9674 16.1787 14.6548C15.8661 14.3423 15.4422 14.1667 15.0002 14.1667ZM5.00016 8.33333C4.55814 8.33333 4.13421 8.50893 3.82165 8.82149C3.50909 9.13405 3.3335 9.55797 3.3335 10C3.3335 10.442 3.50909 10.866 3.82165 11.1785C4.13421 11.4911 4.55814 11.6667 5.00016 11.6667C5.44219 11.6667 5.86611 11.4911 6.17867 11.1785C6.49123 10.866 6.66683 10.442 6.66683 10C6.66683 9.55797 6.49123 9.13405 6.17867 8.82149C5.86611 8.50893 5.44219 8.33333 5.00016 8.33333Z" fill="#9D60FB"/>
<path d="M15 6.66663C13.5833 6.66663 12.5 5.58329 12.5 4.16663C12.5 2.74996 13.5833 1.66663 15 1.66663C16.4167 1.66663 17.5 2.74996 17.5 4.16663C17.5 5.58329 16.4167 6.66663 15 6.66663ZM15 3.33329C14.5 3.33329 14.1667 3.66663 14.1667 4.16663C14.1667 4.66663 14.5 4.99996 15 4.99996C15.5 4.99996 15.8333 4.66663 15.8333 4.16663C15.8333 3.66663 15.5 3.33329 15 3.33329ZM15 18.3333C13.5833 18.3333 12.5 17.25 12.5 15.8333C12.5 14.4166 13.5833 13.3333 15 13.3333C16.4167 13.3333 17.5 14.4166 17.5 15.8333C17.5 17.25 16.4167 18.3333 15 18.3333ZM15 15C14.5 15 14.1667 15.3333 14.1667 15.8333C14.1667 16.3333 14.5 16.6666 15 16.6666C15.5 16.6666 15.8333 16.3333 15.8333 15.8333C15.8333 15.3333 15.5 15 15 15ZM5 12.5C3.58333 12.5 2.5 11.4166 2.5 9.99996C2.5 8.58329 3.58333 7.49996 5 7.49996C6.41667 7.49996 7.5 8.58329 7.5 9.99996C7.5 11.4166 6.41667 12.5 5 12.5ZM5 9.16663C4.5 9.16663 4.16667 9.49996 4.16667 9.99996C4.16667 10.5 4.5 10.8333 5 10.8333C5.5 10.8333 5.83333 10.5 5.83333 9.99996C5.83333 9.49996 5.5 9.16663 5 9.16663Z" fill="#9D60FB"/>
<path d="M6.05176 8.41895L13.1789 4.26368L14.0184 5.70351L6.89121 9.85877L6.05176 8.41895Z" fill="#9D60FB"/>
<path d="M6.05225 11.5719L6.89192 10.1322L14.0184 14.2886L13.1787 15.7283L6.05225 11.5719Z" fill="#9D60FB"/>
</svg>
