<svg width="30" height="30" viewBox="0 0 30 30" fill="none" xmlns="http://www.w3.org/2000/svg">
<path d="M15 27.7012C21.9037 27.7012 27.5 22.1049 27.5 15.2012C27.5 8.29742 21.9037 2.70117 15 2.70117C8.09625 2.70117 2.5 8.29742 2.5 15.2012C2.5 22.1049 8.09625 27.7012 15 27.7012ZM5 15.2012C5 9.67867 9.4775 5.20117 15 5.20117C20.5225 5.20117 25 9.67867 25 15.2012C25 20.7237 20.5225 25.2012 15 25.2012C9.4775 25.2012 5 20.7237 5 15.2012Z" fill="#9D60FB"/>
<path d="M22.3877 13.7506L16.7627 12.6094L18.3464 10.2344L22.3877 13.7506Z" fill="#9D60FB"/>
<path d="M14.9998 7.5C11.4623 7.5 8.53105 9.9625 7.74105 13.2575L10.1698 13.75H10.1773C10.7336 11.5975 12.6723 10 14.9998 10C16.8911 10 18.5248 11.055 19.3698 12.605L22.3873 13.75C21.7911 10.2038 18.7148 7.5 14.9998 7.5ZM7.6123 16.6525L13.2373 17.7925L11.6536 20.1688L7.6123 16.6525Z" fill="#9D60FB"/>
<path d="M14.9998 22.9023C18.5373 22.9023 21.4686 20.4398 22.2586 17.1448L19.8298 16.6523H19.8223C19.2648 18.8048 17.3261 20.4023 14.9986 20.4023C13.1073 20.4023 11.4736 19.3473 10.6286 17.7973L7.6123 16.6523C8.20855 20.1973 11.2848 22.9023 14.9998 22.9023Z" fill="#9D60FB"/>
<path opacity="0.3" d="M15 3.75C13.5226 3.75 12.0597 4.04099 10.6948 4.60636C9.3299 5.17172 8.08971 6.00039 7.04505 7.04505C6.00039 8.08971 5.17172 9.3299 4.60636 10.6948C4.04099 12.0597 3.75 13.5226 3.75 15C3.75 16.4774 4.04099 17.9403 4.60636 19.3052C5.17172 20.6701 6.00039 21.9103 7.04505 22.955C8.08971 23.9996 9.3299 24.8283 10.6948 25.3936C12.0597 25.959 13.5226 26.25 15 26.25C16.4774 26.25 17.9403 25.959 19.3052 25.3936C20.6701 24.8283 21.9103 23.9996 22.955 22.955C23.9996 21.9103 24.8283 20.6701 25.3936 19.3052C25.959 17.9403 26.25 16.4774 26.25 15C26.25 13.5226 25.959 12.0597 25.3936 10.6948C24.8283 9.3299 23.9996 8.08971 22.955 7.04505C21.9103 6.00039 20.6701 5.17172 19.3052 4.60636C17.9403 4.04099 16.4774 3.75 15 3.75Z" fill="#9D60FB"/>
</svg>
