<svg width="32" height="32" viewBox="0 0 32 32" fill="none" xmlns="http://www.w3.org/2000/svg">
<g clip-path="url(#clip0_152_45561)">
<path opacity="0.3" d="M6.66675 6.66699H26.6667V10.667H6.66675V6.66699ZM22.6667 13.3337H26.6667V25.3337H22.6667V13.3337ZM13.3334 13.3337H20.0001V25.3337H13.3334V13.3337ZM6.66675 13.3337H10.6667V25.3337H6.66675V13.3337Z" fill="#B3BEC4"/>
<path d="M26.6667 4H6.66667C5.2 4 4 5.2 4 6.66667V25.3333C4 26.8 5.2 28 6.66667 28H26.6667C28.1333 28 29.3333 26.8 29.3333 25.3333V6.66667C29.3333 5.2 28.1333 4 26.6667 4ZM10.6667 25.3333H6.66667V13.3333H10.6667V25.3333ZM20 25.3333H13.3333V13.3333H20V25.3333ZM26.6667 25.3333H22.6667V13.3333H26.6667V25.3333ZM26.6667 10.6667H6.66667V6.66667H26.6667V10.6667Z" fill="#B3BEC4"/>
</g>
<defs>
<clipPath id="clip0_152_45561">
<rect width="32" height="32" fill="white"/>
</clipPath>
</defs>
</svg>
