<svg width="20" height="21" viewBox="0 0 20 21" fill="none" xmlns="http://www.w3.org/2000/svg">
<path opacity="0.3" d="M16.3459 15.2203L11.6667 8.53613H10.0001H8.33339L3.65422 15.2203C3.16839 15.9153 3.66505 16.8695 4.51256 16.8695H10.0001H15.4876C16.3351 16.8695 16.8317 15.9153 16.3459 15.2203Z" fill="white"/>
<path d="M8.75008 12.7026C8.41856 12.7026 8.10062 12.8343 7.8662 13.0688C7.63178 13.3032 7.50008 13.6211 7.50008 13.9526C7.50008 14.2842 7.63178 14.6021 7.8662 14.8365C8.10062 15.0709 8.41856 15.2026 8.75008 15.2026C9.0816 15.2026 9.39954 15.0709 9.63397 14.8365C9.86839 14.6021 10.0001 14.2842 10.0001 13.9526C10.0001 13.6211 9.86839 13.3032 9.63397 13.0688C9.39954 12.8343 9.0816 12.7026 8.75008 12.7026ZM10.8334 11.036C10.6124 11.036 10.4004 11.1238 10.2442 11.28C10.0879 11.4363 10.0001 11.6483 10.0001 11.8693C10.0001 12.0903 10.0879 12.3023 10.2442 12.4586C10.4004 12.6148 10.6124 12.7026 10.8334 12.7026C11.0544 12.7026 11.2664 12.6148 11.4227 12.4586C11.579 12.3023 11.6667 12.0903 11.6667 11.8693C11.6667 11.6483 11.579 11.4363 11.4227 11.28C11.2664 11.1238 11.0544 11.036 10.8334 11.036ZM6.66675 2.70264H13.3334V4.3693H6.66675V2.70264Z" fill="white"/>
<path d="M17.1408 15.0143L12.5 8.53597V2.70264H7.5V8.53597L2.85917 15.0143C2.6375 15.2968 2.5 15.6485 2.5 16.036C2.5 16.9568 3.24583 17.7026 4.16667 17.7026C4.6675 17.7026 15.3325 17.7026 15.8333 17.7026C16.7542 17.7026 17.5 16.9568 17.5 16.036C17.5 15.6485 17.3625 15.2968 17.1408 15.0143ZM4.17167 16.0418L4.19333 16.0135L4.21417 15.9843L9.16667 9.07097V4.3693H10.8333V9.07097L15.7858 15.9843L15.8108 16.0076L15.8333 16.036L4.17167 16.0418Z" fill="white"/>
<path d="M8.33325 7.70264H11.6666V9.3693H8.33325V7.70264Z" fill="white"/>
</svg>
