<svg width="24" height="24" viewBox="0 0 24 24" fill="none" xmlns="http://www.w3.org/2000/svg">
<path opacity="0.3" d="M12 17C12 16.8 12 15.4 12 15.2C12 13.9 9.7 13 7 13C4.3 13 2 13.9 2 15.2C2 15.4 2 16.8 2 17H12ZM7 5C6.46957 5 5.96086 5.21071 5.58579 5.58579C5.21071 5.96086 5 6.46957 5 7C5 7.53043 5.21071 8.03914 5.58579 8.41421C5.96086 8.78929 6.46957 9 7 9C7.53043 9 8.03914 8.78929 8.41421 8.41421C8.78929 8.03914 9 7.53043 9 7C9 6.46957 8.78929 5.96086 8.41421 5.58579C8.03914 5.21071 7.53043 5 7 5ZM17 5C16.4696 5 15.9609 5.21071 15.5858 5.58579C15.2107 5.96086 15 6.46957 15 7C15 7.53043 15.2107 8.03914 15.5858 8.41421C15.9609 8.78929 16.4696 9 17 9C17.5304 9 18.0391 8.78929 18.4142 8.41421C18.7893 8.03914 19 7.53043 19 7C19 6.46957 18.7893 5.96086 18.4142 5.58579C18.0391 5.21071 17.5304 5 17 5Z" fill="white"/>
<path d="M7 10C5.3 10 4 8.7 4 7C4 5.3 5.3 4 7 4C8.7 4 10 5.3 10 7C10 8.7 8.7 10 7 10ZM7 6C6.4 6 6 6.4 6 7C6 7.6 6.4 8 7 8C7.6 8 8 7.6 8 7C8 6.4 7.6 6 7 6ZM13 18H1V15.2C1 13.3 3.5 12 7 12C10.5 12 13 13.3 13 15.2V18ZM3 16H11V15.2C11 14.8 9.6 14 7 14C4.4 14 3 14.9 3 15.2V16ZM17 10C15.3 10 14 8.7 14 7C14 5.3 15.3 4 17 4C18.7 4 20 5.3 20 7C20 8.7 18.7 10 17 10ZM17 6C16.4 6 16 6.4 16 7C16 7.6 16.4 8 17 8C17.6 8 18 7.6 18 7C18 6.4 17.6 6 17 6ZM19 16H21V24H19V16Z" fill="white"/>
<path d="M16 19H24V21H16V19ZM13 16V15.2C13 14.8 14.4 14 17 14H22.6C22.4 13.7 22 13.3 21.5 13C20.4 12.4 18.8 12 17 12C13.5 12 11 13.3 11 15.2V18H17V16.7V16H13Z" fill="white"/>
<path opacity="0.3" d="M17 16C17 14.9 17.9 14 19 14H22.6C21.8 12.8 19.7 12 17 12C13.5 12 11 13.3 11 15.2V18H17V16Z" fill="white"/>
</svg>
