<svg width="42" height="42" viewBox="0 0 42 42" fill="none" xmlns="http://www.w3.org/2000/svg">
<g clip-path="url(#clip0_1154_25096)">
<path d="M14.75 19.75H17.25V22.25H14.75V19.75ZM19.75 19.75H27.25V22.25H19.75V19.75ZM11 14.75H31V17.25H11V14.75ZM14.75 24.75H17.25V27.25H14.75V24.75ZM19.75 24.75H27.25V27.25H19.75V24.75Z" fill="#9D60FB"/>
<path d="M29.75 9.75H12.25C10.8687 9.75 9.75 10.8687 9.75 12.25V29.75C9.75 31.1313 10.8687 32.25 12.25 32.25H29.75C31.1313 32.25 32.25 31.1313 32.25 29.75V12.25C32.25 10.8687 31.1313 9.75 29.75 9.75ZM12.25 12.25H29.75V29.75H12.25V12.25Z" fill="#9D60FB"/>
<path opacity="0.3" d="M11 11H31V16H11V11Z" fill="#9D60FB"/>
</g>
<defs>
<clipPath id="clip0_1154_25096">
<rect width="42" height="42" rx="6" fill="white"/>
</clipPath>
</defs>
</svg>
