<svg width="33" height="32" viewBox="0 0 33 32" fill="none" xmlns="http://www.w3.org/2000/svg">
<path opacity="0.3" d="M27.1667 25.3337H5.83333C5.03333 25.3337 4.5 24.8003 4.5 24.0003V8.00033C4.5 7.20033 5.03333 6.66699 5.83333 6.66699H27.1667C27.9667 6.66699 28.5 7.20033 28.5 8.00033V24.0003C28.5 24.8003 27.9667 25.3337 27.1667 25.3337Z" fill="#B3BEC4"/>
<path d="M27.166 26.6663H5.83268C4.36602 26.6663 3.16602 25.4663 3.16602 23.9997V7.99967C3.16602 6.53301 4.36602 5.33301 5.83268 5.33301H27.166C28.6327 5.33301 29.8327 6.53301 29.8327 7.99967V23.9997C29.8327 25.4663 28.6327 26.6663 27.166 26.6663ZM5.83268 7.99967V23.9997H27.166V7.99967H5.83268Z" fill="#B3BEC4"/>
<path d="M24.8991 21.3337L19.8324 14.667L15.1658 20.0003L11.8324 16.667L8.23242 21.3337H24.8991Z" fill="#B3BEC4"/>
</svg>
