<svg width="20" height="20" viewBox="0 0 20 20" fill="none" xmlns="http://www.w3.org/2000/svg">
    <path opacity="0.3" d="M10 2.5C9.01509 2.5 8.03982 2.69399 7.12987 3.0709C6.21993 3.44781 5.39314 4.00026 4.6967 4.6967C4.00026 5.39314 3.44781 6.21993 3.0709 7.12987C2.69399 8.03982 2.5 9.01509 2.5 10C2.5 10.9849 2.69399 11.9602 3.0709 12.8701C3.44781 13.7801 4.00026 14.6069 4.6967 15.3033C5.39314 15.9997 6.21993 16.5522 7.12987 16.9291C8.03982 17.306 9.01509 17.5 10 17.5C10.9849 17.5 11.9602 17.306 12.8701 16.9291C13.7801 16.5522 14.6069 15.9997 15.3033 15.3033C15.9997 14.6069 16.5522 13.7801 16.9291 12.8701C17.306 11.9602 17.5 10.9849 17.5 10C17.5 9.01509 17.306 8.03982 16.9291 7.12987C16.5522 6.21993 15.9997 5.39314 15.3033 4.6967C14.6069 4.00026 13.7801 3.44781 12.8701 3.0709C11.9602 2.69399 10.9849 2.5 10 2.5Z" fill="white"/>
    <path d="M10 18.3334C5.41669 18.3334 1.66669 14.5834 1.66669 10C1.66669 5.41669 5.41669 1.66669 10 1.66669C14.5834 1.66669 18.3334 5.41669 18.3334 10C18.3334 14.5834 14.5834 18.3334 10 18.3334ZM10 3.33335C6.33335 3.33335 3.33335 6.33335 3.33335 10C3.33335 13.6667 6.33335 16.6667 10 16.6667C13.6667 16.6667 16.6667 13.6667 16.6667 10C16.6667 6.33335 13.6667 3.33335 10 3.33335Z" fill="white"/>
    <path d="M9.16669 5.83331H10.8334V14.1666H9.16669V5.83331Z" fill="white"/>
    <path d="M5.83331 9.16669H14.1666V10.8334H5.83331V9.16669Z" fill="white"/>
</svg>
