<svg width="22" height="22" viewBox="0 0 16 16" fill="none" xmlns="http://www.w3.org/2000/svg">
<path d="M1.56286 10.1807L2.89619 12.4874C2.98471 12.6404 3.13037 12.752 3.30114 12.7976C3.47192 12.8432 3.65382 12.8192 3.80686 12.7307L4.73752 12.1934C5.12419 12.498 5.55086 12.748 6.00086 12.9347V14C6.00086 14.1769 6.0711 14.3464 6.19612 14.4714C6.32114 14.5965 6.49071 14.6667 6.66752 14.6667H9.33419C9.511 14.6667 9.68057 14.5965 9.8056 14.4714C9.93062 14.3464 10.0009 14.1769 10.0009 14V12.9347C10.4537 12.7462 10.8787 12.4968 11.2642 12.1934L12.1949 12.7307C12.5129 12.914 12.9215 12.804 13.1055 12.4874L14.4389 10.1807C14.5266 10.0275 14.5503 9.84584 14.5047 9.67527C14.4591 9.50471 14.348 9.35906 14.1955 9.27004L13.2809 8.74137C13.3523 8.2497 13.3519 7.75025 13.2795 7.25871L14.1942 6.73004C14.5115 6.54671 14.6209 6.13671 14.4375 5.81937L13.1042 3.51271C13.0157 3.3597 12.87 3.24812 12.6992 3.20249C12.5285 3.15686 12.3466 3.18092 12.1935 3.26937L11.2629 3.80671C10.8779 3.50296 10.453 3.25352 10.0002 3.06537V2.00004C10.0002 1.82323 9.92995 1.65366 9.80493 1.52864C9.6799 1.40361 9.51034 1.33337 9.33352 1.33337H6.66686C6.49005 1.33337 6.32048 1.40361 6.19545 1.52864C6.07043 1.65366 6.00019 1.82323 6.00019 2.00004V3.06537C5.54734 3.25391 5.12232 3.50332 4.73686 3.80671L3.80686 3.26937C3.65382 3.18092 3.47192 3.15686 3.30114 3.20249C3.13037 3.24812 2.98471 3.3597 2.89619 3.51271L1.56286 5.81937C1.47512 5.97258 1.45146 6.15424 1.49703 6.32481C1.54261 6.49537 1.65373 6.64102 1.80619 6.73004L2.72086 7.25871C2.64895 7.75031 2.64895 8.24977 2.72086 8.74137L1.80619 9.27004C1.48886 9.45337 1.37886 9.86337 1.56286 10.1807ZM8.00019 5.33337C9.47086 5.33337 10.6669 6.52937 10.6669 8.00004C10.6669 9.47071 9.47086 10.6667 8.00019 10.6667C6.52952 10.6667 5.33352 9.47071 5.33352 8.00004C5.33352 6.52937 6.52952 5.33337 8.00019 5.33337Z" fill="#CBB4EA"/>
</svg>
