<svg width="444" height="225" viewBox="0 0 444 225" fill="none" xmlns="http://www.w3.org/2000/svg">
<path d="M31.7378 86.3469V212.757H204.222C148.914 201.168 158.842 165.928 99.2509 161.7C66.7693 159.388 64.5907 109.948 31.7378 86.3469Z" fill="#F3F5F8"/>
<path d="M31.7378 214H204.222C204.865 214 205.385 213.528 205.46 212.881C205.534 212.259 205.113 211.662 204.469 211.538C178.895 206.191 167.482 195.721 156.415 185.599C143.566 173.836 131.435 162.72 99.3251 160.457C81.9455 159.213 73.5281 143.869 63.7737 126.088C56.0247 111.987 47.2606 95.9961 32.4558 85.3521C32.0844 85.0785 31.5893 85.0536 31.1684 85.2526C30.7475 85.4764 30.4999 85.8992 30.4999 86.3468V212.757C30.4999 213.453 31.0446 214 31.7378 214ZM194.22 211.513H32.9757V88.8338C46.1713 99.1296 54.3659 114.051 61.6198 127.281C66.5465 136.284 71.2256 144.789 76.9693 151.23C83.53 158.592 90.5858 162.322 99.1766 162.919C130.42 165.132 142.254 175.975 154.781 187.415C164.561 196.418 174.637 205.644 194.22 211.513Z" fill="#F3F5F8"/>
<path d="M415.889 84.8797L401.708 182.734L399.822 195.753H196.926L198.812 182.734L213.663 80.2578C214.807 72.3649 221.552 66.5093 229.505 66.5093H400.048C409.805 66.5093 417.293 75.1928 415.889 84.8797Z" fill="#F1E9FE"/>
<path d="M399.822 196.739H196.926C196.641 196.739 196.37 196.614 196.183 196.398C195.997 196.182 195.913 195.895 195.954 195.611L212.691 80.1159C213.278 76.0641 215.301 72.3573 218.388 69.6786C221.475 66.9995 225.423 65.5239 229.505 65.5239H400.048C404.984 65.5239 409.667 67.6719 412.896 71.4168C416.126 75.1621 417.571 80.1208 416.861 85.0214L402.68 182.875L400.794 195.895C400.724 196.38 400.309 196.739 399.822 196.739ZM198.061 194.768H398.972L414.917 84.738L415.889 84.8797L414.917 84.738C415.545 80.404 414.267 76.0186 411.41 72.7063C408.554 69.3942 404.413 67.4947 400.048 67.4947H229.505C222.094 67.4947 215.701 73.0425 214.635 80.3995L198.061 194.768Z" fill="#3A474E"/>
<path d="M130.877 212.742H382.835C392.188 212.742 399.769 205.136 399.769 195.753H113.943C113.943 205.136 121.525 212.742 130.877 212.742Z" fill="#3A474E"/>
<path d="M382.835 213.728H130.877C120.998 213.728 112.961 205.665 112.961 195.753C112.961 195.209 113.401 194.768 113.943 194.768H399.77C400.312 194.768 400.752 195.209 400.752 195.753C400.752 205.665 392.714 213.728 382.835 213.728ZM114.955 196.739C115.464 205.106 122.411 211.757 130.877 211.757H382.835C391.301 211.757 398.248 205.106 398.757 196.739H114.955Z" fill="#3A474E"/>
<path d="M401.708 182.734L399.822 195.753H196.926L198.813 182.734H401.708Z" fill="#E2CFFE"/>
<path d="M399.822 196.739H196.926C196.641 196.739 196.37 196.614 196.183 196.398C195.997 196.182 195.913 195.895 195.954 195.611L197.841 182.592C197.911 182.107 198.325 181.748 198.813 181.748H401.708C401.993 181.748 402.264 181.872 402.451 182.089C402.638 182.305 402.721 182.592 402.68 182.875L400.794 195.895C400.724 196.379 400.309 196.739 399.822 196.739ZM198.061 194.768H398.972L400.573 183.719H199.662L198.061 194.768Z" fill="#3A474E"/>
<path d="M371.757 66.5093H365.974H355.52H271.258H261.202H255.022C259.043 66.5093 260.634 68.8248 261.393 70.6797C262.553 75.6014 266.958 79.3703 272.346 79.3703H354.389C359.527 79.3703 363.943 75.893 365.251 71.0271C365.952 69.1283 367.48 66.5093 371.757 66.5093Z" fill="#3A474E"/>
<path d="M354.389 80.3558H272.347C266.674 80.3558 261.796 76.5066 260.456 70.9856C259.459 68.6045 257.73 67.4947 255.022 67.4947C254.48 67.4947 254.04 67.0535 254.04 66.5093C254.04 65.9652 254.48 65.5239 255.022 65.5239H371.757C372.299 65.5239 372.739 65.9652 372.739 66.5093C372.739 67.0535 372.299 67.4947 371.757 67.4947C368.063 67.4947 366.806 69.6703 366.187 71.3287C364.737 76.6463 359.892 80.3558 354.389 80.3558ZM260.462 67.4947C261.221 68.2286 261.836 69.1664 262.301 70.3057C262.321 70.3534 262.337 70.4026 262.349 70.4527C263.45 75.1231 267.561 78.3848 272.347 78.3848H354.389C359.021 78.3848 363.098 75.2538 364.303 70.7704C364.311 70.7414 364.32 70.7128 364.33 70.6849C364.815 69.3727 365.48 68.3083 366.323 67.4945H260.462V67.4947Z" fill="#3A474E"/>
<path d="M361.702 104.749C361.693 103.34 361.403 101.946 360.848 100.651C360.293 99.3555 359.485 98.1844 358.471 97.2065C356.575 95.3581 354.068 94.2715 351.425 94.1531H350.839L310.901 94.6991C310.481 94.701 310.063 94.7348 309.649 94.8002H309.548C311.143 89.3 315.928 72.6579 317.301 66.814C318.089 63.437 317.624 60.242 315.969 57.593C314.252 54.8834 311.426 52.9826 307.953 52.2344C307.529 52.1535 305.913 52.1333 300.381 52.194C299.129 52.2142 297.857 52.2142 297.675 52.2142C295.959 52.1333 294.889 52.3962 294.162 53.0837C293.152 54.0341 293.152 55.4698 293.132 57.4515C293.112 59.1703 293.112 61.2935 292.486 63.983C289.457 77.3088 281.017 86.6106 272.093 96.4381C268.297 100.624 264.38 104.931 260.947 109.582C255.371 116.301 252.358 124.785 252.447 133.522C252.536 142.259 255.72 150.68 261.432 157.284C261.452 157.324 261.492 157.365 261.513 157.405C263.71 160.032 266.25 162.351 269.064 164.301C275.39 168.697 282.909 171.047 290.608 171.034H290.952L316.292 170.812C316.635 170.812 316.978 170.792 317.301 170.772H317.443L335.978 170.549C341.914 170.488 346.7 166.121 346.659 160.803C346.639 157.587 344.842 154.756 342.137 153.038C344.82 152.979 347.396 151.968 349.405 150.186C351.445 148.326 352.555 145.879 352.535 143.271C352.515 140.662 351.364 138.215 349.284 136.416C348.882 136.07 348.457 135.752 348.012 135.465C350.775 135.387 353.402 134.242 355.342 132.27C356.333 131.271 357.117 130.084 357.647 128.779C358.178 127.474 358.444 126.077 358.431 124.668C358.418 123.259 358.125 121.867 357.571 120.572C357.016 119.277 356.21 118.105 355.2 117.125C354.562 116.5 353.85 115.957 353.08 115.507C355.524 115.002 357.717 113.664 359.286 111.721C360.854 109.777 361.701 107.349 361.682 104.85V104.83C361.696 104.805 361.703 104.777 361.702 104.749V104.749Z" fill="#3A474E"/>
<path d="M322.369 150.126L322.066 115.365C321.965 104.769 313.061 96.2157 302.198 96.3168L280.533 96.4988C259.857 96.6808 243.179 113.262 243.361 133.443C243.542 153.624 260.503 169.902 281.179 169.72L302.844 169.538C313.707 169.437 322.47 160.722 322.369 150.126Z" fill="#D1D8DC"/>
<path d="M280.836 170.731C259.756 170.731 242.533 154.069 242.351 133.443C242.169 112.696 259.292 95.6696 280.533 95.4674L302.198 95.2854H302.38C313.707 95.2854 322.975 104.243 323.076 115.345L323.379 150.105C323.403 152.78 322.887 155.432 321.864 157.902C320.84 160.372 319.33 162.611 317.422 164.483C313.549 168.344 308.309 170.516 302.844 170.529L281.179 170.711C281.065 170.728 280.95 170.735 280.836 170.731V170.731ZM302.38 97.3075H302.218L280.553 97.4895C260.442 97.6715 244.209 113.788 244.37 133.423C244.532 152.957 260.866 168.709 280.836 168.709H281.179L302.844 168.527C307.778 168.509 312.507 166.548 316.009 163.067C317.721 161.384 319.078 159.372 319.997 157.152C320.916 154.932 321.38 152.549 321.36 150.146L321.057 115.385C320.956 105.376 312.597 97.3075 302.38 97.3075Z" fill="#3A474E"/>
<path d="M306.216 169.781L280.876 170.003C273.271 170.071 265.831 167.782 259.574 163.452C256.831 161.552 254.352 159.294 252.204 156.738V156.718L253.032 154.918L263.128 133.018L266.56 125.557L279.301 97.8941L279.947 96.4988L280.19 95.9529L305.53 95.7304C306.353 95.7266 307.176 95.7739 307.993 95.872C312.351 96.3856 316.407 98.3657 319.495 101.488C322.584 104.611 324.522 108.69 324.994 113.06C325.075 113.707 325.095 114.354 325.115 115.022L325.418 150.166C325.418 150.49 325.418 150.813 325.398 151.137C325.398 151.379 325.378 151.622 325.357 151.865C324.978 156.706 322.803 161.229 319.261 164.545C315.718 167.861 311.065 169.729 306.216 169.781Z" fill="#D1D8DC"/>
<path d="M280.533 171.014C272.833 171.026 265.315 168.676 258.989 164.28C256.166 162.342 253.625 160.021 251.437 157.385C251.319 157.248 251.241 157.081 251.212 156.903C251.184 156.724 251.206 156.541 251.276 156.374C251.276 156.354 251.296 156.313 251.296 156.293L279.301 95.5281C279.38 95.353 279.508 95.2045 279.669 95.1004C279.83 94.9964 280.018 94.9412 280.21 94.9416L305.55 94.7192C306.413 94.7154 307.276 94.7627 308.134 94.8608C309.084 94.9607 310.023 95.1434 310.941 95.4067C314.924 96.4738 318.493 98.7202 321.18 101.852C323.868 104.983 325.549 108.855 326.004 112.959C326.085 113.643 326.126 114.332 326.125 115.021L326.428 150.166C326.428 150.53 326.428 150.874 326.407 151.197C326.407 151.42 326.387 151.683 326.367 151.966C325.952 157.057 323.654 161.809 319.923 165.292C316.192 168.774 311.296 170.736 306.196 170.792L280.856 171.014H280.533ZM253.396 156.556C255.382 158.846 257.648 160.877 260.14 162.602C266.221 166.82 273.459 169.046 280.856 168.972L306.196 168.749C310.797 168.699 315.213 166.929 318.579 163.787C321.945 160.645 324.016 156.357 324.388 151.763C324.409 151.521 324.429 151.298 324.429 151.076C324.449 150.773 324.449 150.469 324.449 150.146L324.146 115.001C324.144 114.386 324.11 113.772 324.045 113.161C323.628 109.463 322.108 105.977 319.685 103.157C317.261 100.336 314.045 98.3121 310.456 97.348C309.628 97.126 308.784 96.9638 307.932 96.8627C307.156 96.7613 306.373 96.7207 305.59 96.7413L280.876 96.9638L280.25 98.2984L253.396 156.556Z" fill="#3A474E"/>
<path d="M294.929 105.497C294.889 100.098 295.434 95.7303 300.805 95.6899L340.763 95.1439C343.35 95.1224 345.839 96.1309 347.683 97.9473C349.527 99.7638 350.575 102.24 350.597 104.83C350.618 107.42 349.611 109.913 347.797 111.76C345.984 113.607 343.512 114.656 340.925 114.678L304.762 115.183C303.481 115.195 302.211 114.953 301.023 114.472C299.835 113.992 298.754 113.281 297.841 112.382C296.928 111.482 296.2 110.411 295.701 109.23C295.201 108.048 294.939 106.78 294.929 105.497V105.497Z" fill="#D1D8DC"/>
<path d="M304.682 116.194C301.844 116.197 299.121 115.076 297.105 113.076C295.089 111.076 293.944 108.359 293.92 105.518C293.879 101.493 293.819 94.7396 300.805 94.6789L340.743 94.1329H340.844C343.698 94.1195 346.441 95.2422 348.469 97.254C350.497 99.2657 351.643 102.002 351.657 104.86C351.67 107.719 350.549 110.466 348.54 112.496C346.531 114.527 343.799 115.675 340.945 115.689L304.782 116.194H304.682ZM295.939 105.497C295.954 107.804 296.88 110.011 298.514 111.636C300.148 113.261 302.358 114.173 304.661 114.172H304.742L340.905 113.667C343.223 113.656 345.443 112.723 347.075 111.074C348.707 109.424 349.618 107.193 349.607 104.87C349.596 102.548 348.665 100.325 347.018 98.691C345.371 97.0565 343.143 96.1443 340.824 96.1551H340.743L300.805 96.701C296.625 96.7415 295.878 99.6938 295.939 105.497Z" fill="#3A474E"/>
<path d="M321.945 149.842L321.642 115.871C321.541 105.517 312.799 97.166 302.117 97.2469L280.816 97.4289C260.483 97.6109 244.088 113.808 244.269 133.524C244.451 153.24 261.129 169.154 281.442 168.972L302.743 168.79C313.425 168.709 322.046 160.196 321.945 149.842Z" fill="#D1D8DC"/>
<path d="M286.166 139.57C309.063 128.691 293.98 104.567 297.958 96.2762C297.958 96.2762 304.561 73.6284 306.216 66.551C307.832 59.6757 303.692 54.4991 297.635 53.1847C291.578 51.8703 285.359 55.4899 283.38 64.1648C278.595 85.1748 260.321 96.7211 249.176 113.707" fill="#D1D8DC"/>
<path d="M286.166 140.581C285.974 140.582 285.787 140.526 285.625 140.422C285.464 140.318 285.336 140.17 285.258 139.995C285.143 139.751 285.129 139.471 285.22 139.217C285.311 138.963 285.499 138.756 285.742 138.64C300.724 131.522 298.725 118.56 297.11 108.126C296.343 103.131 295.676 98.804 297.029 95.9123C297.453 94.4564 303.672 73.0825 305.247 66.3084C305.913 63.4572 305.55 60.8082 304.177 58.6445C302.763 56.3999 300.361 54.8025 297.453 54.1756C292.365 53.0634 286.348 55.7933 284.389 64.4076C281.239 78.2592 272.234 88.1676 263.512 97.7727C258.807 102.97 253.921 108.328 250.024 114.273C249.952 114.385 249.859 114.481 249.75 114.557C249.64 114.632 249.517 114.684 249.387 114.71C249.257 114.737 249.123 114.737 248.993 114.71C248.863 114.684 248.74 114.631 248.631 114.556C248.408 114.409 248.254 114.179 248.201 113.917C248.148 113.656 248.201 113.384 248.348 113.161C252.326 107.095 257.252 101.655 262.017 96.4179C270.942 86.5701 279.382 77.2885 282.411 63.9627C283.4 59.6151 285.48 56.218 288.407 54.1149C289.759 53.148 291.3 52.4788 292.929 52.1512C294.558 51.8235 296.237 51.845 297.857 52.2141C301.31 52.9623 304.157 54.8631 305.873 57.5728C307.529 60.2218 307.993 63.3965 307.206 66.7937C305.57 73.8105 299.008 96.3572 298.927 96.5796C298.907 96.6403 298.887 96.6807 298.867 96.7414C297.736 99.0871 298.362 103.152 299.089 107.863C300.704 118.358 302.925 132.756 286.59 140.52C286.452 140.56 286.31 140.581 286.166 140.581V140.581Z" fill="#3A474E"/>
<path d="M312.395 105.093C312.403 102.56 313.4 100.13 315.173 98.3236C316.947 96.5173 319.356 95.4776 321.885 95.427L340.764 95.1642C342.034 95.1535 343.293 95.3936 344.471 95.8705C345.648 96.3475 346.721 97.052 347.626 97.9439C348.532 98.8358 349.253 99.8977 349.749 101.069C350.245 102.24 350.505 103.497 350.516 104.769C350.527 106.041 350.287 107.303 349.811 108.482C349.334 109.661 348.631 110.735 347.74 111.642C346.85 112.549 345.789 113.271 344.62 113.768C343.451 114.264 342.195 114.526 340.925 114.536L322.369 114.779C321.075 114.813 319.788 114.589 318.582 114.118C317.376 113.647 316.276 112.94 315.347 112.038C314.418 111.135 313.678 110.056 313.171 108.864C312.664 107.671 312.4 106.389 312.395 105.093V105.093Z" fill="#D1D8DC"/>
<path d="M322.107 115.77C319.296 115.776 316.597 114.671 314.596 112.696C313.574 111.708 312.763 110.523 312.212 109.213C311.66 107.903 311.379 106.495 311.385 105.073C311.381 102.28 312.477 99.5995 314.434 97.6109C316.391 95.6106 319.049 94.4505 321.844 94.3755L340.723 94.1126C342.135 94.0979 343.535 94.3617 344.845 94.8891C346.154 95.4165 347.347 96.1971 348.355 97.1863C349.869 98.6706 350.908 100.572 351.34 102.65C351.772 104.727 351.577 106.886 350.781 108.852C349.984 110.818 348.622 112.502 346.867 113.691C345.112 114.88 343.044 115.519 340.925 115.527L322.389 115.77H322.107ZM340.844 96.155H340.763L321.885 96.4179C319.62 96.4575 317.461 97.3872 315.875 99.0063C314.288 100.625 313.401 102.804 313.404 105.073V105.073C313.402 106.223 313.631 107.363 314.078 108.422C314.526 109.482 315.183 110.441 316.009 111.24C316.845 112.06 317.837 112.703 318.926 113.13C320.015 113.557 321.18 113.761 322.349 113.727L340.905 113.485C342.052 113.478 343.187 113.244 344.244 112.797C345.301 112.349 346.259 111.696 347.063 110.876C347.866 110.068 348.5 109.109 348.93 108.053C349.36 106.998 349.576 105.868 349.567 104.728C349.557 103.588 349.322 102.462 348.875 101.414C348.428 100.366 347.778 99.4167 346.962 98.622C345.319 97.0365 343.126 96.152 340.844 96.155V96.155Z" fill="#3A474E"/>
<path d="M309.144 124.97C309.152 122.437 310.149 120.007 311.922 118.201C313.696 116.395 316.105 115.355 318.634 115.304L337.513 115.042C338.783 115.031 340.042 115.271 341.22 115.748C342.397 116.225 343.47 116.929 344.375 117.821C345.281 118.713 346.002 119.775 346.498 120.946C346.994 122.117 347.254 123.375 347.265 124.647C347.276 125.919 347.036 127.18 346.56 128.36C346.083 129.539 345.38 130.612 344.489 131.519C343.599 132.426 342.539 133.149 341.369 133.645C340.2 134.142 338.944 134.403 337.674 134.414L319.118 134.656C317.825 134.691 316.537 134.466 315.331 133.995C314.125 133.525 313.025 132.817 312.096 131.915C311.167 131.013 310.427 129.934 309.92 128.741C309.413 127.548 309.149 126.266 309.144 124.97V124.97Z" fill="#D1D8DC"/>
<path d="M318.856 135.667C316.046 135.673 313.346 134.569 311.345 132.594C310.342 131.615 309.543 130.448 308.992 129.16C308.441 127.871 308.15 126.486 308.135 125.085C308.12 123.683 308.381 122.292 308.905 120.992C309.428 119.692 310.202 118.508 311.183 117.509C313.141 115.508 315.798 114.348 318.593 114.273L337.472 114.01C338.884 113.996 340.284 114.259 341.594 114.787C342.903 115.314 344.096 116.095 345.105 117.084C346.618 118.568 347.657 120.47 348.089 122.547C348.521 124.624 348.326 126.783 347.53 128.749C346.733 130.716 345.371 132.4 343.616 133.589C341.861 134.777 339.793 135.416 337.674 135.425L319.139 135.667H318.856ZM310.153 124.97C310.151 126.121 310.38 127.26 310.828 128.32C311.275 129.38 311.932 130.338 312.758 131.138C313.594 131.958 314.586 132.6 315.675 133.028C316.765 133.455 317.929 133.658 319.098 133.625L337.654 133.382C338.802 133.376 339.936 133.142 340.993 132.694C342.05 132.247 343.008 131.594 343.812 130.774C344.615 129.966 345.249 129.006 345.679 127.951C346.109 126.896 346.325 125.765 346.316 124.626C346.307 123.486 346.072 122.359 345.624 121.311C345.177 120.263 344.527 119.314 343.711 118.52C342.055 116.902 339.826 116.008 337.513 116.032L318.634 116.295C316.368 116.343 314.211 117.278 312.626 118.9C311.041 120.521 310.153 122.701 310.153 124.97V124.97Z" fill="#3A474E"/>
<path d="M303.268 143.574C303.268 138.883 307.488 135.04 312.758 134.899L331.637 134.636C337.028 134.596 341.43 138.438 341.47 143.23C341.51 148.023 337.19 151.945 331.798 151.986L313.243 152.208C307.751 152.35 303.248 148.447 303.268 143.574V143.574Z" fill="#D1D8DC"/>
<path d="M312.98 153.24C310.046 153.26 307.217 152.145 305.086 150.125C304.199 149.279 303.493 148.263 303.007 147.138C302.521 146.012 302.267 144.8 302.259 143.574C302.259 141.006 303.369 138.599 305.348 136.779C307.378 134.961 309.994 133.934 312.718 133.888L331.597 133.625H331.698C334.442 133.602 337.102 134.571 339.189 136.355C341.268 138.175 342.419 140.601 342.44 143.21C342.46 145.818 341.349 148.285 339.31 150.125C337.23 151.966 334.554 152.987 331.778 152.997L313.243 153.219C313.156 153.236 313.068 153.243 312.98 153.24V153.24ZM331.718 135.667H331.637L312.758 135.93C308.013 136.051 304.278 139.408 304.258 143.594C304.267 144.549 304.468 145.493 304.85 146.368C305.232 147.244 305.786 148.034 306.479 148.69C308.195 150.368 310.638 151.298 313.202 151.238L331.758 151.015C334.043 151.027 336.251 150.191 337.957 148.67C339.572 147.214 340.441 145.293 340.42 143.27C340.4 141.248 339.492 139.348 337.856 137.912C336.241 136.456 334.06 135.667 331.718 135.667V135.667Z" fill="#3A474E"/>
<path d="M297.393 161.126C297.393 156.455 301.613 152.613 306.882 152.491L325.761 152.229C331.152 152.188 335.554 156.01 335.595 160.782C335.635 165.554 331.314 169.457 325.923 169.518L307.367 169.74C301.895 169.862 297.393 165.959 297.393 161.126V161.126Z" fill="#D1D8DC"/>
<path d="M307.105 170.751C304.096 170.751 301.229 169.619 299.19 167.617C298.309 166.776 297.606 165.767 297.124 164.648C296.641 163.529 296.39 162.324 296.383 161.106V161.106C296.383 158.558 297.494 156.151 299.472 154.332C301.505 152.519 304.121 151.5 306.842 151.46L325.721 151.197H325.822C331.718 151.197 336.523 155.464 336.564 160.762C336.604 166.08 331.819 170.448 325.883 170.509L307.347 170.731C307.267 170.749 307.186 170.755 307.105 170.751V170.751ZM325.862 153.24H325.782L306.903 153.502C302.239 153.624 298.422 157.041 298.402 161.126C298.414 162.073 298.615 163.008 298.993 163.876C299.371 164.744 299.919 165.528 300.603 166.181C302.319 167.86 304.762 168.79 307.347 168.729L325.903 168.507C330.728 168.466 334.625 165.008 334.585 160.802C334.545 156.617 330.628 153.24 325.862 153.24V153.24Z" fill="#3A474E"/>
<path d="M254.453 53.6835C254.678 54.2274 254.427 54.8752 253.864 55.11C253.301 55.3448 252.675 55.086 252.441 54.522C249.496 47.5769 243.701 38.8196 232.793 36.3982C228.71 35.4785 224.725 35.6514 221.185 36.4422C220.747 39.8846 219.612 43.2394 217.87 46.2097C216.441 48.6244 214.333 49.8572 212.086 49.613C210.061 49.3939 208.292 47.9111 207.677 45.9706C206.983 43.7799 207.782 41.4387 209.878 39.5496C212.045 37.6068 215.314 35.8188 219.178 34.7277C219.256 33.4907 219.256 32.2386 219.139 30.988C218.692 26.2613 216.869 22.0845 214.006 19.2148C211.717 16.9328 208.846 15.5788 205.681 15.3392C202.05 15.0574 198.117 16.1536 193.951 18.6226C193.441 18.9296 192.76 18.7648 192.466 18.2259C192.16 17.7155 192.326 17.0324 192.864 16.7373C201.562 11.5996 209.835 11.9302 215.551 17.6494C218.778 20.8868 220.822 25.5387 221.312 30.7674C221.427 31.9004 221.454 33.0468 221.403 34.1781C225.057 33.4343 229.144 33.3369 233.296 34.2517C239.801 35.7213 248.753 40.2568 254.453 53.6835ZM209.835 45.5434C210.261 46.5708 211.232 47.3232 212.346 47.4495C213.731 47.6045 215.039 46.7758 216.025 45.1129C217.478 42.6411 218.442 39.9005 218.924 37.0775C215.779 38.0816 213.145 39.5811 211.334 41.1867C209.886 42.4752 209.334 43.9336 209.764 45.3134C209.769 45.3823 209.802 45.4628 209.835 45.5434Z" fill="#3A474E"/>
<path d="M164.282 33.6483C163.133 16.7711 149.112 3.42822 131.982 3.42822C121.031 3.42822 111.366 8.86863 105.505 17.2278C101.366 13.8325 96.0584 11.7874 90.2757 11.7874C77.7599 11.7874 67.4819 21.3776 66.3333 33.6086H65.8976C54.0749 33.6086 44.5098 43.2186 44.5098 55.0525C44.5098 66.9062 54.0947 76.4964 65.8976 76.4964H162.737C174.56 76.4964 184.125 66.8864 184.125 55.0525C184.144 43.715 175.391 34.4425 164.282 33.6483Z" fill="#F3F5F8"/>
<path d="M162.737 77.4893H65.8975C53.5599 77.4893 43.5195 67.4226 43.5195 55.0526C43.5195 42.8415 53.3223 32.8542 65.442 32.6159C66.1946 26.7784 68.9869 21.3975 73.3634 17.3669C77.9975 13.1178 83.9979 10.7749 90.2757 10.7749C95.7018 10.7749 100.989 12.542 105.307 15.7983C111.584 7.41927 121.486 2.43555 131.982 2.43555C140.497 2.43555 148.597 5.65214 154.796 11.4896C160.756 17.1088 164.44 24.6141 165.192 32.735C170.5 33.3108 175.411 35.7729 179.094 39.7241C182.976 43.8938 185.115 49.3342 185.115 55.0526C185.115 67.4226 175.074 77.4893 162.737 77.4893ZM65.8975 34.6014C54.6491 34.6014 45.4999 43.7747 45.4999 55.0526C45.4999 66.3305 54.6491 75.5037 65.8975 75.5037H162.737C173.985 75.5037 183.134 66.3305 183.134 55.0526C183.134 49.8306 181.194 44.8667 177.649 41.0743C174.124 37.2819 169.351 34.9985 164.202 34.6411C163.707 34.6014 163.311 34.2043 163.291 33.7278C162.757 25.7856 159.251 18.3994 153.449 12.9391C147.607 7.43913 139.983 4.4211 131.982 4.4211C121.783 4.4211 112.198 9.42468 106.317 17.8037C106.158 18.0221 105.92 18.1809 105.643 18.2207C105.366 18.2604 105.089 18.1809 104.891 18.0022C100.791 14.6467 95.6028 12.7803 90.2955 12.7803C84.5128 12.7803 78.9876 14.9246 74.7299 18.8362C70.4919 22.7279 67.8779 27.9896 67.3432 33.6881C67.3036 34.2043 66.8679 34.5816 66.353 34.5816H65.8975V34.6014Z" fill="#3A474E"/>
<path d="M180.699 50.7835C181.322 50.7835 181.827 50.2768 181.827 49.6518C181.827 49.0267 181.322 48.52 180.699 48.52C180.075 48.52 179.57 49.0267 179.57 49.6518C179.57 50.2768 180.075 50.7835 180.699 50.7835Z" fill="#3A474E"/>
<path d="M180.699 56.3233C181.322 56.3233 181.827 55.8166 181.827 55.1916C181.827 54.5665 181.322 54.0598 180.699 54.0598C180.075 54.0598 179.57 54.5665 179.57 55.1916C179.57 55.8166 180.075 56.3233 180.699 56.3233Z" fill="#3A474E"/>
<path d="M180.699 61.8827C181.322 61.8827 181.827 61.376 181.827 60.7509C181.827 60.1259 181.322 59.6191 180.699 59.6191C180.075 59.6191 179.57 60.1259 179.57 60.7509C179.57 61.376 180.075 61.8827 180.699 61.8827Z" fill="#3A474E"/>
<path d="M180.699 67.4225C181.322 67.4225 181.827 66.9158 181.827 66.2907C181.827 65.6656 181.322 65.1589 180.699 65.1589C180.075 65.1589 179.57 65.6656 179.57 66.2907C179.57 66.9158 180.075 67.4225 180.699 67.4225Z" fill="#3A474E"/>
<path d="M175.173 61.8827C175.797 61.8827 176.302 61.376 176.302 60.7509C176.302 60.1259 175.797 59.6191 175.173 59.6191C174.55 59.6191 174.045 60.1259 174.045 60.7509C174.045 61.376 174.55 61.8827 175.173 61.8827Z" fill="#3A474E"/>
<path d="M175.173 67.4225C175.797 67.4225 176.302 66.9158 176.302 66.2907C176.302 65.6656 175.797 65.1589 175.173 65.1589C174.55 65.1589 174.045 65.6656 174.045 66.2907C174.045 66.9158 174.55 67.4225 175.173 67.4225Z" fill="#3A474E"/>
<path d="M175.173 72.962C175.797 72.962 176.302 72.4553 176.302 71.8303C176.302 71.2052 175.797 70.6985 175.173 70.6985C174.55 70.6985 174.045 71.2052 174.045 71.8303C174.045 72.4553 174.55 72.962 175.173 72.962Z" fill="#3A474E"/>
<path d="M169.628 67.4225C170.252 67.4225 170.757 66.9158 170.757 66.2907C170.757 65.6656 170.252 65.1589 169.628 65.1589C169.005 65.1589 168.5 65.6656 168.5 66.2907C168.5 66.9158 169.005 67.4225 169.628 67.4225Z" fill="#3A474E"/>
<path d="M169.628 72.962C170.252 72.962 170.757 72.4553 170.757 71.8303C170.757 71.2052 170.252 70.6985 169.628 70.6985C169.005 70.6985 168.5 71.2052 168.5 71.8303C168.5 72.4553 169.005 72.962 169.628 72.962Z" fill="#3A474E"/>
<path d="M164.103 67.4225C164.727 67.4225 165.232 66.9158 165.232 66.2907C165.232 65.6656 164.727 65.1589 164.103 65.1589C163.48 65.1589 162.974 65.6656 162.974 66.2907C162.974 66.9158 163.48 67.4225 164.103 67.4225Z" fill="#3A474E"/>
<path d="M164.103 72.962C164.727 72.962 165.232 72.4553 165.232 71.8303C165.232 71.2052 164.727 70.6985 164.103 70.6985C163.48 70.6985 162.974 71.2052 162.974 71.8303C162.974 72.4553 163.48 72.962 164.103 72.962Z" fill="#3A474E"/>
<path d="M158.578 67.4225C159.201 67.4225 159.707 66.9158 159.707 66.2907C159.707 65.6656 159.201 65.1589 158.578 65.1589C157.955 65.1589 157.449 65.6656 157.449 66.2907C157.449 66.9158 157.955 67.4225 158.578 67.4225Z" fill="#3A474E"/>
<path d="M158.578 72.962C159.201 72.962 159.707 72.4553 159.707 71.8303C159.707 71.2052 159.201 70.6985 158.578 70.6985C157.955 70.6985 157.449 71.2052 157.449 71.8303C157.449 72.4553 157.955 72.962 158.578 72.962Z" fill="#3A474E"/>
<path d="M153.033 67.4225C153.656 67.4225 154.162 66.9158 154.162 66.2907C154.162 65.6656 153.656 65.1589 153.033 65.1589C152.41 65.1589 151.904 65.6656 151.904 66.2907C151.904 66.9158 152.41 67.4225 153.033 67.4225Z" fill="#3A474E"/>
<path d="M153.033 72.962C153.656 72.962 154.162 72.4553 154.162 71.8303C154.162 71.2052 153.656 70.6985 153.033 70.6985C152.41 70.6985 151.904 71.2052 151.904 71.8303C151.904 72.4553 152.41 72.962 153.033 72.962Z" fill="#3A474E"/>
<path d="M147.508 67.4225C148.131 67.4225 148.637 66.9158 148.637 66.2907C148.637 65.6656 148.131 65.1589 147.508 65.1589C146.884 65.1589 146.379 65.6656 146.379 66.2907C146.379 66.9158 146.884 67.4225 147.508 67.4225Z" fill="#3A474E"/>
<path d="M147.508 72.962C148.131 72.962 148.637 72.4553 148.637 71.8303C148.637 71.2052 148.131 70.6985 147.508 70.6985C146.884 70.6985 146.379 71.2052 146.379 71.8303C146.379 72.4553 146.884 72.962 147.508 72.962Z" fill="#3A474E"/>
<path d="M141.983 67.4225C142.606 67.4225 143.111 66.9158 143.111 66.2907C143.111 65.6656 142.606 65.1589 141.983 65.1589C141.359 65.1589 140.854 65.6656 140.854 66.2907C140.854 66.9158 141.359 67.4225 141.983 67.4225Z" fill="#3A474E"/>
<path d="M141.983 72.962C142.606 72.962 143.111 72.4553 143.111 71.8303C143.111 71.2052 142.606 70.6985 141.983 70.6985C141.359 70.6985 140.854 71.2052 140.854 71.8303C140.854 72.4553 141.359 72.962 141.983 72.962Z" fill="#3A474E"/>
<path d="M136.438 67.4225C137.061 67.4225 137.566 66.9158 137.566 66.2907C137.566 65.6656 137.061 65.1589 136.438 65.1589C135.814 65.1589 135.309 65.6656 135.309 66.2907C135.309 66.9158 135.814 67.4225 136.438 67.4225Z" fill="#3A474E"/>
<path d="M136.438 72.962C137.061 72.962 137.566 72.4553 137.566 71.8303C137.566 71.2052 137.061 70.6985 136.438 70.6985C135.814 70.6985 135.309 71.2052 135.309 71.8303C135.309 72.4553 135.814 72.962 136.438 72.962Z" fill="#3A474E"/>
<path d="M130.912 67.4225C131.536 67.4225 132.041 66.9158 132.041 66.2907C132.041 65.6656 131.536 65.1589 130.912 65.1589C130.289 65.1589 129.784 65.6656 129.784 66.2907C129.784 66.9158 130.289 67.4225 130.912 67.4225Z" fill="#3A474E"/>
<path d="M130.912 72.962C131.536 72.962 132.041 72.4553 132.041 71.8303C132.041 71.2052 131.536 70.6985 130.912 70.6985C130.289 70.6985 129.784 71.2052 129.784 71.8303C129.784 72.4553 130.289 72.962 130.912 72.962Z" fill="#3A474E"/>
<path d="M125.367 67.4225C125.991 67.4225 126.496 66.9158 126.496 66.2907C126.496 65.6656 125.991 65.1589 125.367 65.1589C124.744 65.1589 124.239 65.6656 124.239 66.2907C124.239 66.9158 124.744 67.4225 125.367 67.4225Z" fill="#3A474E"/>
<path d="M125.367 72.962C125.991 72.962 126.496 72.4553 126.496 71.8303C126.496 71.2052 125.991 70.6985 125.367 70.6985C124.744 70.6985 124.239 71.2052 124.239 71.8303C124.239 72.4553 124.744 72.962 125.367 72.962Z" fill="#3A474E"/>
<path d="M119.842 67.4225C120.466 67.4225 120.971 66.9158 120.971 66.2907C120.971 65.6656 120.466 65.1589 119.842 65.1589C119.219 65.1589 118.714 65.6656 118.714 66.2907C118.714 66.9158 119.219 67.4225 119.842 67.4225Z" fill="#3A474E"/>
<path d="M119.842 72.962C120.466 72.962 120.971 72.4553 120.971 71.8303C120.971 71.2052 120.466 70.6985 119.842 70.6985C119.219 70.6985 118.714 71.2052 118.714 71.8303C118.714 72.4553 119.219 72.962 119.842 72.962Z" fill="#3A474E"/>
<path d="M114.317 67.4225C114.941 67.4225 115.446 66.9158 115.446 66.2907C115.446 65.6656 114.941 65.1589 114.317 65.1589C113.694 65.1589 113.188 65.6656 113.188 66.2907C113.188 66.9158 113.694 67.4225 114.317 67.4225Z" fill="#3A474E"/>
<path d="M114.317 72.962C114.941 72.962 115.446 72.4553 115.446 71.8303C115.446 71.2052 114.941 70.6985 114.317 70.6985C113.694 70.6985 113.188 71.2052 113.188 71.8303C113.188 72.4553 113.694 72.962 114.317 72.962Z" fill="#3A474E"/>
<path d="M108.772 67.4225C109.396 67.4225 109.901 66.9158 109.901 66.2907C109.901 65.6656 109.396 65.1589 108.772 65.1589C108.149 65.1589 107.643 65.6656 107.643 66.2907C107.643 66.9158 108.149 67.4225 108.772 67.4225Z" fill="#3A474E"/>
<path d="M108.772 72.962C109.396 72.962 109.901 72.4553 109.901 71.8303C109.901 71.2052 109.396 70.6985 108.772 70.6985C108.149 70.6985 107.643 71.2052 107.643 71.8303C107.643 72.4553 108.149 72.962 108.772 72.962Z" fill="#3A474E"/>
<path d="M103.247 67.4225C103.87 67.4225 104.376 66.9158 104.376 66.2907C104.376 65.6656 103.87 65.1589 103.247 65.1589C102.624 65.1589 102.118 65.6656 102.118 66.2907C102.118 66.9158 102.624 67.4225 103.247 67.4225Z" fill="#3A474E"/>
<path d="M103.247 72.962C103.87 72.962 104.376 72.4553 104.376 71.8303C104.376 71.2052 103.87 70.6985 103.247 70.6985C102.624 70.6985 102.118 71.2052 102.118 71.8303C102.118 72.4553 102.624 72.962 103.247 72.962Z" fill="#3A474E"/>
<path d="M97.7218 67.4225C98.3452 67.4225 98.8506 66.9158 98.8506 66.2907C98.8506 65.6656 98.3452 65.1589 97.7218 65.1589C97.0984 65.1589 96.593 65.6656 96.593 66.2907C96.593 66.9158 97.0984 67.4225 97.7218 67.4225Z" fill="#3A474E"/>
<path d="M97.7218 72.962C98.3452 72.962 98.8506 72.4553 98.8506 71.8303C98.8506 71.2052 98.3452 70.6985 97.7218 70.6985C97.0984 70.6985 96.593 71.2052 96.593 71.8303C96.593 72.4553 97.0984 72.962 97.7218 72.962Z" fill="#3A474E"/>
<path d="M92.1768 67.4225C92.8002 67.4225 93.3056 66.9158 93.3056 66.2907C93.3056 65.6656 92.8002 65.1589 92.1768 65.1589C91.5534 65.1589 91.048 65.6656 91.048 66.2907C91.048 66.9158 91.5534 67.4225 92.1768 67.4225Z" fill="#3A474E"/>
<path d="M92.1768 72.962C92.8002 72.962 93.3056 72.4553 93.3056 71.8303C93.3056 71.2052 92.8002 70.6985 92.1768 70.6985C91.5534 70.6985 91.048 71.2052 91.048 71.8303C91.048 72.4553 91.5534 72.962 92.1768 72.962Z" fill="#3A474E"/>
<path d="M86.6516 67.4225C87.275 67.4225 87.7804 66.9158 87.7804 66.2907C87.7804 65.6656 87.275 65.1589 86.6516 65.1589C86.0282 65.1589 85.5228 65.6656 85.5228 66.2907C85.5228 66.9158 86.0282 67.4225 86.6516 67.4225Z" fill="#3A474E"/>
<path d="M86.6516 72.962C87.275 72.962 87.7804 72.4553 87.7804 71.8303C87.7804 71.2052 87.275 70.6985 86.6516 70.6985C86.0282 70.6985 85.5228 71.2052 85.5228 71.8303C85.5228 72.4553 86.0282 72.962 86.6516 72.962Z" fill="#3A474E"/>
<path d="M81.1066 67.4225C81.73 67.4225 82.2354 66.9158 82.2354 66.2907C82.2354 65.6656 81.73 65.1589 81.1066 65.1589C80.4832 65.1589 79.9778 65.6656 79.9778 66.2907C79.9778 66.9158 80.4832 67.4225 81.1066 67.4225Z" fill="#3A474E"/>
<path d="M81.1066 72.962C81.73 72.962 82.2354 72.4553 82.2354 71.8303C82.2354 71.2052 81.73 70.6985 81.1066 70.6985C80.4832 70.6985 79.9778 71.2052 79.9778 71.8303C79.9778 72.4553 80.4832 72.962 81.1066 72.962Z" fill="#3A474E"/>
<path d="M75.5814 67.4225C76.2049 67.4225 76.7102 66.9158 76.7102 66.2907C76.7102 65.6656 76.2049 65.1589 75.5814 65.1589C74.958 65.1589 74.4526 65.6656 74.4526 66.2907C74.4526 66.9158 74.958 67.4225 75.5814 67.4225Z" fill="#3A474E"/>
<path d="M75.5814 72.962C76.2049 72.962 76.7102 72.4553 76.7102 71.8303C76.7102 71.2052 76.2049 70.6985 75.5814 70.6985C74.958 70.6985 74.4526 71.2052 74.4526 71.8303C74.4526 72.4553 74.958 72.962 75.5814 72.962Z" fill="#3A474E"/>
<path d="M70.0563 67.4225C70.6797 67.4225 71.1851 66.9158 71.1851 66.2907C71.1851 65.6656 70.6797 65.1589 70.0563 65.1589C69.4329 65.1589 68.9275 65.6656 68.9275 66.2907C68.9275 66.9158 69.4329 67.4225 70.0563 67.4225Z" fill="#3A474E"/>
<path d="M70.0563 72.962C70.6797 72.962 71.1851 72.4553 71.1851 71.8303C71.1851 71.2052 70.6797 70.6985 70.0563 70.6985C69.4329 70.6985 68.9275 71.2052 68.9275 71.8303C68.9275 72.4553 69.4329 72.962 70.0563 72.962Z" fill="#3A474E"/>
<path d="M64.5112 67.4225C65.1347 67.4225 65.64 66.9158 65.64 66.2907C65.64 65.6656 65.1347 65.1589 64.5112 65.1589C63.8878 65.1589 63.3824 65.6656 63.3824 66.2907C63.3824 66.9158 63.8878 67.4225 64.5112 67.4225Z" fill="#3A474E"/>
<path d="M64.5112 72.962C65.1347 72.962 65.64 72.4553 65.64 71.8303C65.64 71.2052 65.1347 70.6985 64.5112 70.6985C63.8878 70.6985 63.3824 71.2052 63.3824 71.8303C63.3824 72.4553 63.8878 72.962 64.5112 72.962Z" fill="#3A474E"/>
<path d="M58.9861 67.4225C59.6095 67.4225 60.1149 66.9158 60.1149 66.2907C60.1149 65.6656 59.6095 65.1589 58.9861 65.1589C58.3627 65.1589 57.8573 65.6656 57.8573 66.2907C57.8573 66.9158 58.3627 67.4225 58.9861 67.4225Z" fill="#3A474E"/>
<path d="M58.9861 72.962C59.6095 72.962 60.1149 72.4553 60.1149 71.8303C60.1149 71.2052 59.6095 70.6985 58.9861 70.6985C58.3627 70.6985 57.8573 71.2052 57.8573 71.8303C57.8573 72.4553 58.3627 72.962 58.9861 72.962Z" fill="#3A474E"/>
<path d="M53.4411 61.8827C54.0645 61.8827 54.5699 61.376 54.5699 60.7509C54.5699 60.1259 54.0645 59.6191 53.4411 59.6191C52.8176 59.6191 52.3123 60.1259 52.3123 60.7509C52.3123 61.376 52.8176 61.8827 53.4411 61.8827Z" fill="#3A474E"/>
<path d="M53.4411 67.4225C54.0645 67.4225 54.5699 66.9158 54.5699 66.2907C54.5699 65.6656 54.0645 65.1589 53.4411 65.1589C52.8176 65.1589 52.3123 65.6656 52.3123 66.2907C52.3123 66.9158 52.8176 67.4225 53.4411 67.4225Z" fill="#3A474E"/>
<path d="M53.4411 72.962C54.0645 72.962 54.5699 72.4553 54.5699 71.8303C54.5699 71.2052 54.0645 70.6985 53.4411 70.6985C52.8176 70.6985 52.3123 71.2052 52.3123 71.8303C52.3123 72.4553 52.8176 72.962 53.4411 72.962Z" fill="#3A474E"/>
<path d="M47.9159 50.7835C48.5393 50.7835 49.0447 50.2768 49.0447 49.6518C49.0447 49.0267 48.5393 48.52 47.9159 48.52C47.2925 48.52 46.7871 49.0267 46.7871 49.6518C46.7871 50.2768 47.2925 50.7835 47.9159 50.7835Z" fill="#3A474E"/>
<path d="M47.9159 56.3233C48.5393 56.3233 49.0447 55.8166 49.0447 55.1916C49.0447 54.5665 48.5393 54.0598 47.9159 54.0598C47.2925 54.0598 46.7871 54.5665 46.7871 55.1916C46.7871 55.8166 47.2925 56.3233 47.9159 56.3233Z" fill="#3A474E"/>
<path d="M47.9159 61.8827C48.5393 61.8827 49.0447 61.376 49.0447 60.7509C49.0447 60.1259 48.5393 59.6191 47.9159 59.6191C47.2925 59.6191 46.7871 60.1259 46.7871 60.7509C46.7871 61.376 47.2925 61.8827 47.9159 61.8827Z" fill="#3A474E"/>
<path d="M47.9159 67.4225C48.5393 67.4225 49.0447 66.9158 49.0447 66.2907C49.0447 65.6656 48.5393 65.1589 47.9159 65.1589C47.2925 65.1589 46.7871 65.6656 46.7871 66.2907C46.7871 66.9158 47.2925 67.4225 47.9159 67.4225Z" fill="#3A474E"/>
<path d="M69.6998 34.5815H66.353C65.7985 34.5815 65.3628 34.1447 65.3628 33.5887C65.3628 33.0328 65.7985 32.5959 66.353 32.5959H69.6998C70.2543 32.5959 70.6899 33.0328 70.6899 33.5887C70.6899 34.1447 70.2543 34.5815 69.6998 34.5815Z" fill="#3A474E"/>
<path d="M164.281 37.5598C163.727 37.5598 163.291 37.123 163.291 36.567V33.6483C163.291 33.0923 163.727 32.6555 164.281 32.6555C164.836 32.6555 165.272 33.0923 165.272 33.6483V36.567C165.272 37.123 164.836 37.5598 164.281 37.5598Z" fill="#3A474E"/>
<path d="M107.564 19.9283C107.346 19.9283 107.109 19.8489 106.93 19.69L104.891 17.9825C104.475 17.6251 104.415 17.0095 104.772 16.5926C105.128 16.1756 105.742 16.116 106.158 16.4734L108.198 18.181C108.614 18.5384 108.673 19.1539 108.317 19.5709C108.119 19.8092 107.841 19.9283 107.564 19.9283Z" fill="#3A474E"/>
<path d="M182.89 123.441L176.436 129.912L178.392 131.873L184.846 125.402L182.89 123.441Z" fill="#3A474E"/>
<path d="M178.391 123.442L176.436 125.402L182.89 131.873L184.846 129.912L178.391 123.442Z" fill="#3A474E"/>
<path d="M349.984 22.5536L343.53 29.0251L345.486 30.9859L351.94 24.5144L349.984 22.5536Z" fill="#3A474E"/>
<path d="M345.485 22.5543L343.529 24.5151L349.984 30.9858L351.94 29.025L345.485 22.5543Z" fill="#3A474E"/>
<path d="M143.3 43.9511C143.036 43.7364 142.673 43.7199 142.376 43.885L78.9255 81.1321C78.6614 81.2973 78.4963 81.5946 78.5129 81.9084C78.5294 82.2223 78.7439 82.5031 79.0246 82.6187L97.9244 90.2168L78.6944 115.059C78.4138 115.423 78.4798 115.935 78.843 116.215L90.3644 125.168C90.513 125.283 90.6946 125.35 90.8761 125.35C90.9092 125.35 90.9422 125.35 90.9752 125.35C91.1898 125.317 91.3878 125.217 91.5199 125.036L110.816 100.094L121.793 115.819C121.974 116.083 122.288 116.215 122.601 116.166C122.915 116.116 123.179 115.885 123.262 115.571L143.581 44.8265C143.68 44.4962 143.565 44.1493 143.3 43.9511Z" fill="#3A474E"/>
<path d="M65.1657 175.108L58.7112 181.58L60.6674 183.541L67.1218 177.069L65.1657 175.108Z" fill="#3A474E"/>
<path d="M60.6668 175.109L58.7109 177.07L65.1654 183.54L67.1213 181.58L60.6668 175.109Z" fill="#3A474E"/>
<path d="M421.052 162.6L414.598 169.071L416.554 171.032L423.009 164.56L421.052 162.6Z" fill="#3A474E"/>
<path d="M416.554 162.6L414.598 164.561L421.052 171.032L423.008 169.071L416.554 162.6Z" fill="#3A474E"/>
<path d="M143.135 167.078L136.858 162.737L140.644 156.123C140.986 155.503 140.951 154.745 140.508 154.194C140.065 153.642 139.348 153.401 138.666 153.608L131.4 155.847L128.671 148.75C128.398 148.096 127.784 147.648 127.067 147.648C126.385 147.648 125.737 148.061 125.498 148.75L122.701 155.847L115.469 153.608C114.787 153.401 114.07 153.642 113.627 154.194C113.183 154.745 113.149 155.503 113.49 156.123L117.243 162.737L111 167.078C110.42 167.491 110.147 168.181 110.318 168.87C110.488 169.559 111.034 170.075 111.716 170.179L119.187 171.316L118.641 178.964C118.607 179.653 118.983 180.342 119.597 180.652C120.211 180.962 120.995 180.858 121.507 180.376L127.067 175.174L132.628 180.376C132.935 180.686 133.378 180.824 133.788 180.824C134.026 180.824 134.299 180.755 134.538 180.652C135.152 180.342 135.562 179.687 135.493 178.964L134.913 171.316L142.418 170.179C143.101 170.075 143.681 169.559 143.817 168.87C143.988 168.181 143.715 167.457 143.135 167.078Z" fill="#E2CFFE"/>
</svg>
