<svg width="544" height="35" viewBox="0 0 544 35" fill="none" xmlns="http://www.w3.org/2000/svg">
<g clip-path="url(#clip0_10888_198369)">
<path d="M212.53 2.9458V14.1708C211.011 12.6439 208.946 11.7034 206.67 11.7034C202.006 11.7034 198.226 15.6413 198.226 20.4986C198.226 25.3558 202.006 29.2937 206.67 29.2937C211.139 29.2937 214.796 25.6748 215.091 21.0966L215.113 21.1271V2.9458H212.53ZM206.67 26.6036C203.432 26.6036 200.809 23.8712 200.809 20.4986C200.809 17.1259 203.432 14.3936 206.67 14.3936C209.907 14.3936 212.53 17.1259 212.53 20.4986C212.53 23.8712 209.907 26.6036 206.67 26.6036Z" fill="#101F39"/>
<path d="M265.207 11.7034C260.738 11.7034 257.081 15.3223 256.786 19.9004L256.763 19.87V35H259.346V26.8263C260.866 28.3532 262.931 29.2937 265.207 29.2937C269.87 29.2937 273.651 25.3558 273.651 20.4985C273.651 15.6413 269.87 11.7034 265.207 11.7034ZM265.207 26.6035C261.969 26.6035 259.346 23.8712 259.346 20.4985C259.346 17.1259 261.969 14.3935 265.207 14.3935C268.445 14.3935 271.068 17.1259 271.068 20.4985C271.068 23.8712 268.445 26.6035 265.207 26.6035Z" fill="#101F39"/>
<path d="M226.554 11.7292C221.904 11.7292 218.135 15.6554 218.135 20.4986C218.135 25.3418 221.904 29.2679 226.554 29.2679C229.129 29.2679 231.435 28.0624 232.977 26.1627L231.442 24.3192C230.327 25.8648 228.553 26.8639 226.554 26.8639C223.442 26.8639 220.875 24.4412 220.492 21.3078H231.937H233.047H234.259C234.281 21.0404 234.297 20.7707 234.297 20.4986C234.297 15.6554 231.203 11.7292 226.554 11.7292ZM220.623 18.9647C221.283 16.1901 223.687 14.1333 226.556 14.1333C229.424 14.1333 231.154 16.1901 231.811 18.9647H220.623Z" fill="#101F39"/>
<path d="M245.566 11.7292C240.916 11.7292 237.147 15.6554 237.147 20.4986C237.147 25.3418 240.916 29.2679 245.566 29.2679C248.142 29.2679 250.447 28.0624 251.99 26.1627L250.454 24.3192C249.34 25.8648 247.565 26.8639 245.566 26.8639C242.454 26.8639 239.887 24.4412 239.505 21.3078H250.95H252.06H253.271C253.294 21.0404 253.309 20.7707 253.309 20.4986C253.309 15.6554 250.216 11.7292 245.566 11.7292ZM239.635 18.9647C240.295 16.1901 242.7 14.1333 245.568 14.1333C248.437 14.1333 250.166 16.1901 250.824 18.9647H239.635Z" fill="#101F39"/>
<path d="M309.086 18.5729V29.0872H308.093V18.5729C308.093 16.964 307.656 15.6647 306.785 14.6773C305.914 13.6899 304.75 13.195 303.293 13.195C301.791 13.195 300.557 13.7016 299.587 14.7124C298.616 15.7233 298.13 17.0109 298.13 18.5729V29.0872H297.137V3.22949H298.13V15.1932C299.211 13.1926 300.944 12.1935 303.327 12.1935C305.092 12.1935 306.492 12.7799 307.53 13.9525C308.568 15.1252 309.086 16.6638 309.086 18.5729Z" fill="#101F39"/>
<path d="M349.633 29.0872V3.22949H350.626V29.0872H349.633ZM352.612 19.8136L361.02 29.0872H359.696L351.254 19.7784L358.833 12.5383H360.256L352.612 19.8136Z" fill="#101F39"/>
<path d="M362.839 25.4965L363.634 24.875C365.091 27.0351 366.833 28.1163 368.864 28.1163C370.033 28.1163 370.988 27.8231 371.726 27.2368C372.465 26.6505 372.834 25.8296 372.834 24.7718C372.769 23.7844 372.481 23.048 371.974 22.5648C371.467 22.0817 370.551 21.5305 369.227 20.909L367.838 20.2546C366.491 19.6331 365.51 19.0139 364.893 18.3924C364.276 17.7709 363.965 16.9664 363.965 15.979C363.965 14.7149 364.44 13.7275 365.388 13.0145C366.336 12.2569 367.473 11.877 368.797 11.877C370.76 11.877 372.426 12.7612 373.795 14.5319L373.068 15.2215C371.81 13.6594 370.364 12.8761 368.732 12.8761C367.673 12.8761 366.791 13.1458 366.084 13.6852C365.377 14.2247 365.025 14.9775 365.025 15.9438C365.048 16.3355 365.12 16.6732 365.242 16.9617C365.363 17.2502 365.467 17.473 365.557 17.6348C365.645 17.7967 365.881 17.996 366.268 18.2376C366.653 18.4792 366.93 18.641 367.095 18.7208C367.261 18.8005 367.685 19.0139 368.369 19.3587L369.857 20.0482C371.226 20.6698 372.24 21.3241 372.902 22.0137C373.564 22.7032 373.895 23.5991 373.895 24.7038C373.895 26.0829 373.397 27.1641 372.404 27.9451C371.434 28.7261 370.231 29.1178 368.797 29.1178C366.325 29.1178 364.339 27.9099 362.839 25.4965Z" fill="#101F39"/>
<path d="M292.614 25.3652C291.274 27.0374 289.261 28.0999 287.007 28.0999C282.977 28.0999 279.71 24.6967 279.71 20.4985C279.71 16.3003 282.977 12.8972 287.007 12.8972C289.247 12.8972 291.251 13.9502 292.591 15.6061L293.316 14.9705C291.803 13.1012 289.54 11.9121 287.009 11.9121C282.454 11.9121 278.764 15.7585 278.764 20.5009C278.764 25.2456 282.457 29.0896 287.009 29.0896C289.56 29.0896 291.841 27.8818 293.352 25.9867L292.614 25.3652Z" fill="#101F39"/>
<path d="M345.054 25.3652C343.714 27.0374 341.701 28.0999 339.447 28.0999C335.417 28.0999 332.15 24.6967 332.15 20.4985C332.15 16.3003 335.417 12.8972 339.447 12.8972C341.687 12.8972 343.691 13.9502 345.031 15.6061L345.756 14.9705C344.243 13.1012 341.98 11.9121 339.449 11.9121C334.894 11.9121 331.204 15.7585 331.204 20.5009C331.204 25.2456 334.896 29.0896 339.449 29.0896C342 29.0896 344.281 27.8818 345.792 25.9867L345.054 25.3652Z" fill="#101F39"/>
<path d="M320.783 11.9075C316.228 11.9075 312.538 15.7539 312.538 20.4962C312.538 25.2386 316.231 29.085 320.783 29.085C323.346 29.085 325.636 27.8677 327.149 25.9563L326.424 25.2855C325.089 26.9882 323.058 28.0765 320.783 28.0765C316.764 28.0765 313.506 24.6827 313.506 20.4962H327.16H327.784H328.128C328.128 15.7539 325.336 11.9075 320.783 11.9075ZM313.565 19.5487C314.013 15.8102 317.073 12.916 320.783 12.916C324.494 12.916 326.653 15.8102 327.102 19.5487H313.565Z" fill="#101F39"/>
<path d="M168.554 16.047L168.577 16.0775C168.874 11.4994 172.528 7.88045 176.998 7.88045C177 7.88045 177.002 7.88045 177.002 7.88045C177.004 7.88045 177.007 7.88045 177.007 7.88045C179.283 7.88045 181.35 8.82095 182.868 10.3478V1.15861C181.055 0.412786 179.078 0 177.009 0C168.167 0 161 7.46532 161 16.6756C161 22.6516 164.019 27.8912 168.554 30.8346V16.047Z" fill="#00E6FF"/>
<path d="M185.453 2.50952V17.3065L185.43 17.276C185.135 21.8542 181.478 25.4731 177.009 25.4731C177.007 25.4731 177.004 25.4731 177.004 25.4731C177.002 25.4731 177 25.4731 177 25.4731C174.724 25.4731 172.657 24.5326 171.139 23.0057V32.1926C172.958 32.9407 174.938 33.3559 177.011 33.3559C185.853 33.3559 193.02 25.8905 193.02 16.6803C193.02 10.6949 189.994 5.45296 185.453 2.50952Z" fill="#007AFF"/>
<path d="M181.895 13.3053C181.843 13.5891 181.749 13.8682 181.602 14.1308C180.902 15.395 179.353 15.8265 178.139 15.0971C176.926 14.3677 176.511 12.7541 177.212 11.4899C177.403 11.1452 177.66 10.8637 177.952 10.6503C177.646 10.5987 177.331 10.5706 177.009 10.5706C173.771 10.5706 171.148 13.3029 171.148 16.6756C171.148 20.0482 173.773 22.7806 177.009 22.7806C180.245 22.7806 182.87 20.0482 182.87 16.6756C182.87 15.4302 182.512 14.2716 181.895 13.3053Z" fill="#9D60FB"/>
<path d="M380.462 29.1177C381.863 29.1177 382.998 27.9354 382.998 26.4768C382.998 25.0183 381.863 23.8359 380.462 23.8359C379.062 23.8359 377.927 25.0183 377.927 26.4768C377.927 27.9354 379.062 29.1177 380.462 29.1177Z" fill="#9D60FB"/>
</g>
<defs>
<clipPath id="clip0_10888_198369">
<rect width="222" height="35" fill="white" transform="translate(161)"/>
</clipPath>
</defs>
</svg>
